<?xml version="1.0" encoding="UTF-8"?>
<svg id="Layer_2" data-name="Layer 2" xmlns="http://www.w3.org/2000/svg" xmlns:xlink="http://www.w3.org/1999/xlink" viewBox="0 0 98.85 63.22">
  <defs>
    <style>
      .cls-1 {
        clip-path: url(#clippath);
      }

      .cls-2 {
        fill: none;
      }

      .cls-2, .cls-3, .cls-4, .cls-5, .cls-6, .cls-7, .cls-8, .cls-9, .cls-10, .cls-11, .cls-12, .cls-13, .cls-14, .cls-15, .cls-16, .cls-17, .cls-18, .cls-19, .cls-20, .cls-21, .cls-22, .cls-23, .cls-24, .cls-25, .cls-26, .cls-27, .cls-28, .cls-29, .cls-30, .cls-31, .cls-32, .cls-33, .cls-34, .cls-35, .cls-36, .cls-37, .cls-38, .cls-39, .cls-40, .cls-41, .cls-42, .cls-43, .cls-44, .cls-45, .cls-46, .cls-47, .cls-48, .cls-49, .cls-50, .cls-51, .cls-52, .cls-53, .cls-54, .cls-55, .cls-56, .cls-57, .cls-58, .cls-59, .cls-60, .cls-61, .cls-62, .cls-63, .cls-64, .cls-65, .cls-66, .cls-67, .cls-68, .cls-69, .cls-70, .cls-71, .cls-72, .cls-73, .cls-74, .cls-75, .cls-76, .cls-77, .cls-78, .cls-79, .cls-80, .cls-81, .cls-82 {
        stroke-width: 0px;
      }

      .cls-83 {
        clip-path: url(#clippath-1);
      }

      .cls-84 {
        clip-path: url(#clippath-4);
      }

      .cls-85 {
        clip-path: url(#clippath-3);
      }

      .cls-86 {
        clip-path: url(#clippath-2);
      }

      .cls-87 {
        clip-path: url(#clippath-7);
      }

      .cls-88 {
        clip-path: url(#clippath-8);
      }

      .cls-89 {
        clip-path: url(#clippath-6);
      }

      .cls-90 {
        clip-path: url(#clippath-5);
      }

      .cls-91 {
        clip-path: url(#clippath-9);
      }

      .cls-92 {
        clip-path: url(#clippath-13);
      }

      .cls-93 {
        clip-path: url(#clippath-12);
      }

      .cls-94 {
        clip-path: url(#clippath-10);
      }

      .cls-95 {
        clip-path: url(#clippath-11);
      }

      .cls-3 {
        fill: #4b73b8;
      }

      .cls-4 {
        fill: #5e97d0;
      }

      .cls-5 {
        fill: #619ed5;
      }

      .cls-6 {
        fill: #4c74b9;
      }

      .cls-7 {
        fill: #4c75b9;
      }

      .cls-8 {
        fill: #5e98d1;
      }

      .cls-9 {
        fill: #5c94ce;
      }

      .cls-10 {
        fill: #5d96d0;
      }

      .cls-11 {
        fill: #5d95cf;
      }

      .cls-12 {
        fill: #5f99d2;
      }

      .cls-13 {
        fill: #619dd4;
      }

      .cls-14 {
        fill: #609bd3;
      }

      .cls-15 {
        fill: #73c1ec;
      }

      .cls-16 {
        fill: #73c0ec;
      }

      .cls-17 {
        fill: #74c2ed;
      }

      .cls-18 {
        fill: #609cd3;
      }

      .cls-19 {
        fill: #5c93ce;
      }

      .cls-20 {
        fill: #5280c1;
      }

      .cls-21 {
        fill: #71bce9;
      }

      .cls-22 {
        fill: #4d76ba;
      }

      .cls-23 {
        fill: #4d77bb;
      }

      .cls-24 {
        fill: #507dbf;
      }

      .cls-25 {
        fill: #4f7bbd;
      }

      .cls-26 {
        fill: #4f7abd;
      }

      .cls-27 {
        fill: #517ebf;
      }

      .cls-28 {
        fill: #517fc0;
      }

      .cls-29 {
        fill: #4e79bc;
      }

      .cls-30 {
        fill: #4e78bb;
      }

      .cls-31 {
        fill: #507cbe;
      }

      .cls-32 {
        fill: #5b91cc;
      }

      .cls-33 {
        fill: #5586c5;
      }

      .cls-34 {
        fill: #588cc9;
      }

      .cls-35 {
        fill: #588bc8;
      }

      .cls-36 {
        fill: #5a90cc;
      }

      .cls-37 {
        fill: #5b92cd;
      }

      .cls-38 {
        fill: #5a8fcb;
      }

      .cls-39 {
        fill: #62a0d6;
      }

      .cls-40 {
        fill: #629fd5;
      }

      .cls-41 {
        fill: #63a2d7;
      }

      .cls-42 {
        fill: #63a1d7;
      }

      .cls-43 {
        fill: #5485c4;
      }

      .cls-44 {
        fill: #5484c4;
      }

      .cls-45 {
        fill: #6cb3e3;
      }

      .cls-46 {
        fill: #6cb2e2;
      }

      .cls-47 {
        fill: #6db5e4;
      }

      .cls-48 {
        fill: #6db4e3;
      }

      .cls-49 {
        fill: #5383c3;
      }

      .cls-50 {
        fill: #5382c2;
      }

      .cls-51 {
        fill: #5281c2;
      }

      .cls-52 {
        fill: #70bbe8;
      }

      .cls-53 {
        fill: #70bae8;
      }

      .cls-54 {
        fill: #6eb6e5;
      }

      .cls-55 {
        fill: #6eb7e6;
      }

      .cls-56 {
        fill: #6fb9e7;
      }

      .cls-57 {
        fill: #6fb8e6;
      }

      .cls-58 {
        fill: #5789c7;
      }

      .cls-59 {
        fill: #578ac8;
      }

      .cls-60 {
        fill: #598dca;
      }

      .cls-61 {
        fill: #598eca;
      }

      .cls-62 {
        fill: #5688c6;
      }

      .cls-63 {
        fill: #5687c6;
      }

      .cls-64 {
        fill: #65a6da;
      }

      .cls-65 {
        fill: #65a5d9;
      }

      .cls-66 {
        fill: #6bb1e1;
      }

      .cls-67 {
        fill: #6bb0e1;
      }

      .cls-68 {
        fill: #6aafe0;
      }

      .cls-69 {
        fill: #72beea;
      }

      .cls-70 {
        fill: #72bfeb;
      }

      .cls-71 {
        fill: #64a3d8;
      }

      .cls-72 {
        fill: #71bdea;
      }

      .cls-73 {
        fill: #67a9dc;
      }

      .cls-74 {
        fill: #64a4d9;
      }

      .cls-75 {
        fill: #fff;
      }

      .cls-76 {
        fill: #69addf;
      }

      .cls-77 {
        fill: #67aadd;
      }

      .cls-78 {
        fill: #68acde;
      }

      .cls-79 {
        fill: #68abdd;
      }

      .cls-80 {
        fill: #66a8db;
      }

      .cls-81 {
        fill: #66a7db;
      }

      .cls-82 {
        fill: #69aedf;
      }
    </style>
    <clipPath id="clippath">
      <path class="cls-2" d="M44.68,10.5c.87.38,1.74.78,2.59,1.17,2.27,1.05,4.5,2.19,6.73,3.33.25.13.5.26.76.39,1.8.92,3.68,1.75,5.44,2.76.05-.33.09-.66.13-.99.05-.37.1-.74.15-1.11h0c.05-.34.1-.67.15-.99.47-2.75,1.28-4.97,3.63-4.15.38.06.78.1,1.17.08.81-.05,1.66-.15,2.3-.7.45-.38.73-.99.86-1.53.39-1.7-.42-3.11-1.81-4.23h0c-.45-.37-.97-.7-1.53-1-.09-.05-.17-.09-.26-.14h-.02c-.1-.06-.19-.11-.29-.15-.1-.05-.19-.09-.29-.14-.11-.05-.21-.1-.32-.14-.09-.04-.18-.08-.28-.12-.11-.04-.22-.09-.33-.13-.2-.07-.4-.15-.59-.22-.21-.07-.42-.14-.63-.2-.42-.13-.84-.25-1.25-.35-.1-.02-.19-.05-.29-.07-.32-.07-.63-.13-.93-.19-.1-.02-.2-.03-.29-.05-.32-.05-.64-.1-.94-.13-.14-.01-.27-.03-.4-.04-.19-.02-.38-.03-.56-.03-.74-.03-1.01-.93-1.74-1.14C54.68,0,54.7,2.03,54.94,2.79c.15.52.42.96.72,1.32.26.31.54.57.77.78.29.29.79.67.31.78-.48.06-1.02-.18-1.44-.42-.58-.34-1.06-.9-1.48-1.02-1.16-.29-1.89,2.44-3.46,3.92-.41.39-.88.7-1.43.84h-.02c-1.42.47-2.8.94-4.12,1.45-.04.02-.08.03-.12.05ZM61.24,4.99c-.19-.04-.38-.12-.54-.23-.03-.02-.06-.05-.09-.08-.04-.03-.08-.07-.11-.11-.44-.5.01-.73.47-.76.4-.03.81.04,1.11.28.05.04.09.07.12.11.03.04.07.07.09.11s.05.07.06.1c.01.02.02.03.02.05,0,.02.02.03.02.05.09.31-.23.52-.75.52h-.03c-.12,0-.25,0-.38-.04Z"/>
    </clipPath>
    <clipPath id="clippath-1">
      <path class="cls-2" d="M52.87,31.43c.24-.77.37-1.58.37-2.43,0-2.23-.9-4.25-2.36-5.71.82-.37,1.74-.57,2.7-.57,2.17,0,4.79-2.04,6-.43-.66.64.32.83-2.89,5.26-1.13.88-1.28,2.3-1.28,3.85,0,.09,0,.17,0,.26.05.95.38,1.82.9,2.55-.77-.2-2.32.65-3.15.65-.91,0-.63-2.37-.3-3.42Z"/>
    </clipPath>
    <clipPath id="clippath-2">
      <path class="cls-2" d="M58.07,34.86c0-1.47-1.19-2.66-2.66-2.66-1.47,0-2.66,1.19-2.66,2.66h5.33Z"/>
    </clipPath>
    <clipPath id="clippath-3">
      <path class="cls-2" d="M48.92,9.01h.02c2.65-.71,3.43-5.13,4.89-4.77.42.12.9.69,1.48,1.02.42.24.96.48,1.44.42.48-.11-.02-.5-.31-.78-.23-.21-.51-.47-.77-.78-.3-.36-.58-.8-.73-1.32-.24-.76-.26-2.79.86-2.5.73.2,1,1.11,1.74,1.13,2.59.1,6.78,1.15,9.21,3.1-.69-.22-1.44-.35-2.2-.35s-1.48.12-2.16.33c-.04-.12-.14-.26-.32-.41-.3-.23-.71-.31-1.11-.28-.46.02-.91.25-.47.75.18.21.46.35.75.42-2.3,1.2-3.86,3.6-3.86,6.37,0,2.38,1.16,4.49,2.94,5.79-.04.33-.09.67-.13.99-1.76-1.01-3.64-1.84-5.44-2.76-2.48-1.27-4.95-2.55-7.48-3.71-.85-.39-1.71-.79-2.59-1.17,1.35-.53,2.78-1.01,4.24-1.49Z"/>
    </clipPath>
    <clipPath id="clippath-4">
      <path class="cls-2" d="M50.97,31.43c.24-.77.37-1.58.37-2.43,0-2.23-.9-4.25-2.36-5.71.82-.37,1.74-.57,2.7-.57,2.17,0,4.09,1.04,5.31,2.64-.66.64-1.78,1.35-2.19,2.19-1.13.88-1.28,2.3-1.28,3.85,0,.09,0,.17,0,.26.05.95.38,1.82.9,2.55-.77-.2-2.32.65-3.15.65-.91,0-.63-2.37-.3-3.42Z"/>
    </clipPath>
    <clipPath id="clippath-5">
      <path class="cls-2" d="M56.17,34.86c0-1.47-1.19-2.66-2.66-2.66-1.47,0-2.66,1.19-2.66,2.66h5.33Z"/>
    </clipPath>
    <clipPath id="clippath-6">
      <path class="cls-2" d="M43.83,10.68c1.33-.36,2.74-.55,4.18-.55,5.2,0,9.82,2.47,12.75,6.3.01.21.02.41.02.62,0,6.64-5.38,12.02-12.02,12.02-5.56,0-10.23-3.77-11.61-8.89.97-3.94,3.4-7.31,6.68-9.5Z"/>
    </clipPath>
    <clipPath id="clippath-7">
      <path class="cls-2" d="M31.96,26.18s0,.05,0,.07c.02,4.53,3.6,8.28,8.13,8.49.21,0,.42.01.63.01h.07c-2.55-2.84-4.1-6.6-4.1-10.72,0-5.57,2.84-10.48,7.15-13.36-6.84,1.84-11.87,8.09-11.87,15.51Z"/>
    </clipPath>
    <clipPath id="clippath-8">
      <polygon class="cls-2" points="57.37 8.66 57.37 8.66 57.37 8.66 57.37 8.66"/>
    </clipPath>
    <clipPath id="clippath-9">
      <path class="cls-2" d="M36.69,24.04c0,1.35.17,2.66.48,3.91.64,2.57,1.91,4.9,3.62,6.81.16,0,.31,0,.47,0,.14,0,.29-.01.43-.02.09,0,.18-.01.27-.02.1,0,.19-.01.29-.03.02,0,.05,0,.07,0,.24-.03.48-.06.72-.1.45-.07.9-.17,1.34-.28.14-.04.29-.08.43-.12.14-.04.27-.08.4-.12.16-.05.33-.11.49-.17.12-.05.24-.09.35-.14.03-.01.06-.02.09-.04.1-.04.21-.09.31-.13.25-.11.49-.22.73-.34.05-.02.1-.05.15-.07.07-.04.14-.07.21-.11h0s.06-.03.09-.05c1.36-.75,2.59-1.71,3.63-2.84.5-.54.96-1.12,1.37-1.73.18-.26.34-.53.5-.8.74-1.28,1.3-2.68,1.61-4.17.07-.31.13-.62.17-.94.1-.68.15-1.38.15-2.08,0-1.93-.38-3.76-1.07-5.44-.71-1.73-1.75-3.28-3.04-4.6h0c.12.02.25.04.37.07.26.05.51.11.77.18.08.02.16.04.23.06.12.03.24.07.36.11.27.08.53.17.8.27.12.04.23.08.35.13.12.04.23.09.35.14.22.09.44.19.66.29.23.11.45.22.68.34.11.06.21.11.32.17.43.24.85.5,1.25.77.1.07.2.14.3.21.09.07.18.13.27.2h0s.01.01.02.02c.41.31.8.63,1.18.98.07.07.14.13.22.2.24.23.48.47.71.71.1.11.21.22.3.34.07.08.14.15.2.23.06.07.12.15.19.23h0s.05.07.08.1c.08.09.15.19.23.29-.02-.46-.07-.92-.15-1.37-.37-2.28-1.4-4.34-2.87-5.99-.12-.14-.25-.27-.38-.4-1.47-.44-3.02-.68-4.63-.68-.81,0-1.6.06-2.37.18-.58.09-1.15.2-1.71.35-1.74.45-3.37,1.2-4.83,2.17-.51.34-1,.71-1.47,1.11-.08.07-.16.14-.24.21-.13.11-.26.23-.39.35-.06.06-.13.12-.19.18-.09.08-.18.17-.26.26-.07.06-.13.13-.19.2-.13.13-.25.27-.37.41-.06.07-.12.14-.18.21-.15.17-.3.35-.44.53-.1.12-.19.25-.28.38-.06.08-.12.17-.18.25-.29.41-.57.84-.82,1.29-.1.18-.2.36-.3.54-.31.59-.59,1.21-.82,1.84-.04.09-.07.19-.1.28-.04.11-.07.22-.11.33-.04.13-.08.26-.12.39-.04.13-.08.26-.11.39-.03.09-.05.18-.07.27,0,.03-.01.05-.02.08-.3,1.23-.47,2.53-.47,3.86Z"/>
    </clipPath>
    <clipPath id="clippath-10">
      <path class="cls-2" d="M31.96,26.18s0,.05,0,.07c.02,4.53,3.6,8.28,8.13,8.49.21,0,.42.01.63.01h.07c-2.55-2.84-4.1-6.6-4.1-10.72,0-5.57,2.84-10.48,7.15-13.36-6.84,1.84-11.87,8.09-11.87,15.51Z"/>
    </clipPath>
    <clipPath id="clippath-11">
      <path class="cls-2" d="M32.73,29.76c.04.09.08.18.13.26.04.08.08.17.13.25.05.09.1.18.15.26.06.11.13.21.2.32.08.12.16.24.24.35.07.1.14.19.21.28.01.01.02.03.03.04.08.1.16.2.25.3.07.09.15.17.23.25.1.11.21.22.32.32.09.08.17.16.26.24.23.2.46.38.71.56.09.07.19.13.28.19.1.06.19.12.29.18.03.02.06.04.09.05.1.06.2.11.3.16.01,0,.02.01.03.01.11.06.23.12.34.17.09.04.18.08.28.12.07.03.14.06.21.09.35.14.71.25,1.08.34.12.03.24.05.36.08.11.02.23.04.34.06.04,0,.08.01.12.02.1.01.2.03.3.04.04,0,.08.01.11.01.12.01.25.02.37.03.06,0,.12,0,.18,0,.15,0,.3,0,.45,0h.07c.16,0,.31,0,.47,0,.14,0,.29-.01.43-.02.09,0,.18-.01.27-.02.1,0,.19-.01.29-.03.02,0,.05,0,.07,0,.24-.03.48-.06.72-.1.45-.07.9-.17,1.34-.28.14-.04.29-.08.43-.12.14-.04.27-.08.4-.12.16-.05.33-.11.49-.17.12-.05.24-.09.35-.14.03-.01.06-.03.09-.04.1-.04.21-.08.31-.13.25-.11.49-.22.73-.34.05-.02.1-.05.15-.07.07-.04.14-.07.21-.11.03-.02.06-.03.09-.05-.03-.05-.06-.1-.09-.15-.4-.68-.88-1.31-1.42-1.87-1.86-1.95-4.49-3.16-7.4-3.16-.53,0-1.05.04-1.56.12-.36.05-.71.13-1.06.22-1.23.32-2.37.87-3.37,1.59Z"/>
    </clipPath>
    <clipPath id="clippath-12">
      <path class="cls-2" d="M43.83,10.68c-5.04,2.88-8.35,7.79-8.35,13.36,0,4.12,1.81,7.88,4.79,10.72h0c-.27,0-.55,0-.82-.01-5.29-.2-9.48-3.96-9.5-8.49,0-.02,0-.05,0-.07,0-7.42,5.88-13.66,13.88-15.51Z"/>
    </clipPath>
    <clipPath id="clippath-13">
      <path class="cls-2" d="M40.05,22.77c2.26,1.05,4.17,2.9,5.25,5.36.07.16.14.32.2.48.3.78.5,1.57.61,2.36.13.91.13,1.83.03,2.72h0c.1-.04.21-.08.31-.13.25-.11.49-.22.73-.34.05-.02.1-.05.15-.07.07-.04.14-.07.21-.11v-.2c-.01-1.32-.27-2.66-.8-3.95-.04-.08-.07-.17-.11-.25-1.29-2.93-3.74-4.98-6.57-5.87Z"/>
    </clipPath>
  </defs>
  <g id="Layer_1-2" data-name="Layer 1">
    <g>
      <g>
        <g>
          <g class="cls-1">
            <polygon class="cls-60" points="62.34 5.03 62.49 4.32 62.49 5.03 62.34 5.03"/>
            <polygon class="cls-34" points="62.09 5.03 62.34 3.79 62.49 3.79 62.49 4.32 62.34 5.03 62.09 5.03"/>
            <polygon class="cls-35" points="61.85 5.03 62.09 3.79 62.34 3.79 62.09 5.03 61.85 5.03"/>
            <polygon class="cls-59" points="61.6 5.03 61.84 3.79 62.09 3.79 61.85 5.03 61.6 5.03"/>
            <polygon class="cls-58" points="61.35 5.03 61.59 3.79 61.84 3.79 61.6 5.03 61.35 5.03"/>
            <polygon class="cls-62" points="61.1 5.03 61.34 3.79 61.59 3.79 61.35 5.03 61.1 5.03"/>
            <polygon class="cls-63" points="60.85 5.03 61.09 3.79 61.34 3.79 61.1 5.03 60.85 5.03"/>
            <polygon class="cls-33" points="60.6 5.03 60.85 3.79 61.09 3.79 60.85 5.03 60.6 5.03"/>
            <polygon class="cls-43" points="60.35 5.03 60.6 3.79 60.85 3.79 60.6 5.03 60.35 5.03"/>
            <polygon class="cls-44" points="60.1 5.03 60.35 3.79 60.6 3.79 60.35 5.03 60.1 5.03"/>
            <polygon class="cls-49" points="60.06 3.99 60.1 3.79 60.35 3.79 60.1 5.03 60.06 5.03 60.06 3.99"/>
            <polygon class="cls-50" points="60.1 3.79 60.06 3.99 60.06 3.79 60.1 3.79"/>
            <polygon class="cls-46" points="68.72 18.14 68.96 16.92 68.96 18.14 68.72 18.14"/>
            <polygon class="cls-66" points="68.47 18.14 68.96 15.67 68.96 16.92 68.72 18.14 68.47 18.14"/>
            <polygon class="cls-67" points="68.22 18.14 68.96 14.42 68.96 15.67 68.47 18.14 68.22 18.14"/>
            <polygon class="cls-68" points="67.97 18.14 68.96 13.17 68.96 14.42 68.22 18.14 67.97 18.14"/>
            <polygon class="cls-82" points="67.72 18.14 68.96 11.92 68.96 13.17 67.97 18.14 67.72 18.14"/>
            <polygon class="cls-76" points="67.47 18.14 68.96 10.66 68.96 11.92 67.72 18.14 67.47 18.14"/>
            <polygon class="cls-78" points="67.22 18.14 68.96 9.41 68.96 10.66 67.47 18.14 67.22 18.14"/>
            <polygon class="cls-79" points="66.97 18.14 68.96 8.16 68.96 9.41 67.22 18.14 66.97 18.14"/>
            <polygon class="cls-77" points="66.72 18.14 68.96 6.91 68.96 8.16 66.97 18.14 66.72 18.14"/>
            <polygon class="cls-73" points="66.47 18.14 68.96 5.66 68.96 6.91 66.72 18.14 66.47 18.14"/>
            <polygon class="cls-80" points="66.22 18.14 68.96 4.4 68.96 5.66 66.47 18.14 66.22 18.14"/>
            <polygon class="cls-81" points="65.97 18.14 68.96 3.15 68.96 4.4 66.22 18.14 65.97 18.14"/>
            <polygon class="cls-64" points="65.72 18.14 68.96 1.9 68.96 3.15 65.97 18.14 65.72 18.14"/>
            <polygon class="cls-65" points="65.47 18.14 68.93 .8 68.96 .81 68.96 1.9 65.72 18.14 65.47 18.14"/>
            <polygon class="cls-74" points="65.22 18.14 68.69 .75 68.93 .8 65.47 18.14 65.22 18.14"/>
            <polygon class="cls-71" points="64.97 18.14 68.45 .71 68.69 .75 65.22 18.14 64.97 18.14"/>
            <polygon class="cls-41" points="64.72 18.14 68.21 .66 68.45 .71 64.97 18.14 64.72 18.14"/>
            <polygon class="cls-42" points="64.47 18.14 67.97 .61 68.21 .66 64.72 18.14 64.47 18.14"/>
            <polygon class="cls-39" points="64.22 18.14 67.73 .56 67.97 .61 64.47 18.14 64.22 18.14"/>
            <polygon class="cls-40" points="63.97 18.14 67.49 .51 67.73 .56 64.22 18.14 63.97 18.14"/>
            <polygon class="cls-5" points="63.72 18.14 67.25 .47 67.49 .51 63.97 18.14 63.72 18.14"/>
            <polygon class="cls-13" points="63.48 18.14 67.01 .42 67.25 .47 63.72 18.14 63.48 18.14"/>
            <polygon class="cls-18" points="63.23 18.14 66.77 .37 67.01 .42 63.48 18.14 63.23 18.14"/>
            <polygon class="cls-14" points="62.98 18.14 66.53 .32 66.77 .37 63.23 18.14 62.98 18.14"/>
            <polygon class="cls-12" points="62.73 18.14 66.29 .28 66.53 .32 62.98 18.14 62.73 18.14"/>
            <polygon class="cls-8" points="62.48 18.14 66.05 .23 66.29 .28 62.73 18.14 62.48 18.14"/>
            <polygon class="cls-4" points="62.23 18.14 65.81 .18 66.05 .23 62.48 18.14 62.23 18.14"/>
            <polygon class="cls-10" points="61.98 18.14 65.57 .13 65.81 .18 62.23 18.14 61.98 18.14"/>
            <polygon class="cls-11" points="61.73 18.14 65.33 .08 65.57 .13 61.98 18.14 61.73 18.14"/>
            <polygon class="cls-9" points="61.48 18.14 65.09 .04 65.33 .08 61.73 18.14 61.48 18.14"/>
            <polygon class="cls-19" points="61.23 18.14 64.85 0 64.91 0 65.09 .04 61.48 18.14 61.23 18.14"/>
            <polygon class="cls-37" points="60.98 18.14 64.6 0 64.85 0 61.23 18.14 60.98 18.14"/>
            <polygon class="cls-32" points="60.73 18.14 64.35 0 64.6 0 60.98 18.14 60.73 18.14"/>
            <polygon class="cls-36" points="60.48 18.14 64.1 0 64.35 0 60.73 18.14 60.48 18.14"/>
            <polygon class="cls-38" points="60.23 18.14 63.85 0 64.1 0 60.48 18.14 60.23 18.14"/>
            <polygon class="cls-61" points="59.98 18.14 63.6 0 63.85 0 60.23 18.14 59.98 18.14"/>
            <polygon class="cls-60" points="59.73 18.14 63.35 0 63.6 0 59.98 18.14 59.73 18.14"/>
            <polygon class="cls-34" points="59.48 18.14 63.1 0 63.35 0 59.73 18.14 59.48 18.14"/>
            <polygon class="cls-35" points="59.23 18.14 62.85 0 63.1 0 59.48 18.14 59.23 18.14"/>
            <polygon class="cls-59" points="58.98 18.14 62.6 0 62.85 0 59.23 18.14 58.98 18.14"/>
            <polygon class="cls-58" points="58.73 18.14 62.35 0 62.6 0 58.98 18.14 58.73 18.14"/>
            <polygon class="cls-62" points="58.48 18.14 62.1 0 62.35 0 58.73 18.14 58.48 18.14"/>
            <polygon class="cls-63" points="58.23 18.14 61.85 0 62.1 0 58.48 18.14 58.23 18.14"/>
            <polygon class="cls-33" points="57.98 18.14 61.6 0 61.85 0 58.23 18.14 57.98 18.14"/>
            <polygon class="cls-43" points="57.73 18.14 61.35 0 61.6 0 57.98 18.14 57.73 18.14"/>
            <polygon class="cls-44" points="57.48 18.14 61.1 0 61.35 0 57.73 18.14 57.48 18.14"/>
            <polygon class="cls-49" points="57.23 18.14 60.85 0 61.1 0 57.48 18.14 57.23 18.14"/>
            <polygon class="cls-50" points="56.98 18.14 60.6 0 60.85 0 57.23 18.14 56.98 18.14"/>
            <polygon class="cls-51" points="56.74 18.14 60.35 0 60.6 0 56.98 18.14 56.74 18.14"/>
            <polygon class="cls-20" points="56.49 18.14 60.1 0 60.35 0 56.74 18.14 56.49 18.14"/>
            <polygon class="cls-28" points="56.24 18.14 59.85 0 60.1 0 56.49 18.14 56.24 18.14"/>
            <polygon class="cls-27" points="55.99 18.14 59.6 0 59.85 0 56.24 18.14 55.99 18.14"/>
            <polygon class="cls-24" points="55.74 18.14 59.35 0 59.6 0 55.99 18.14 55.74 18.14"/>
            <polygon class="cls-31" points="55.49 18.14 59.1 0 59.35 0 55.74 18.14 55.49 18.14"/>
            <polygon class="cls-25" points="55.24 18.14 58.85 0 59.1 0 55.49 18.14 55.24 18.14"/>
            <polygon class="cls-26" points="54.99 18.14 58.61 0 58.85 0 55.24 18.14 54.99 18.14"/>
            <polygon class="cls-29" points="54.74 18.14 58.36 0 58.61 0 54.99 18.14 54.74 18.14"/>
            <polygon class="cls-30" points="54.49 18.14 58.11 0 58.36 0 54.74 18.14 54.49 18.14"/>
            <polygon class="cls-23" points="54.24 18.14 57.86 0 58.11 0 54.49 18.14 54.24 18.14"/>
            <polygon class="cls-22" points="53.99 18.14 57.61 0 57.86 0 54.24 18.14 53.99 18.14"/>
            <polygon class="cls-7" points="53.74 18.14 57.36 0 57.61 0 53.99 18.14 53.74 18.14"/>
            <polygon class="cls-6" points="53.49 18.14 57.11 0 57.36 0 53.74 18.14 53.49 18.14"/>
            <polygon class="cls-3" points="53.24 18.14 56.86 0 57.11 0 53.49 18.14 53.24 18.14"/>
            <polygon class="cls-3" points="49.95 18.14 44.68 17.09 44.68 0 56.86 0 53.24 18.14 49.95 18.14"/>
          </g>
          <g>
            <g id="mBmY4O">
              <g class="cls-83">
                <rect class="cls-17" x="59.59" y="20.68" width=".32" height="14.18"/>
                <rect class="cls-17" x="59.48" y="20.68" width=".11" height="14.18"/>
                <rect class="cls-15" x="59.37" y="20.68" width=".11" height="14.18"/>
                <rect class="cls-16" x="59.26" y="20.68" width=".11" height="14.18"/>
                <rect class="cls-70" x="59.15" y="20.68" width=".11" height="14.18"/>
                <rect class="cls-69" x="59.04" y="20.68" width=".11" height="14.18"/>
                <rect class="cls-72" x="58.93" y="20.68" width=".11" height="14.18"/>
                <rect class="cls-21" x="58.82" y="20.68" width=".11" height="14.18"/>
                <rect class="cls-52" x="58.71" y="20.68" width=".11" height="14.18"/>
                <rect class="cls-53" x="58.6" y="20.68" width=".11" height="14.18"/>
                <rect class="cls-56" x="58.49" y="20.68" width=".11" height="14.18"/>
                <rect class="cls-57" x="58.38" y="20.68" width=".11" height="14.18"/>
                <rect class="cls-55" x="58.27" y="20.68" width=".11" height="14.18"/>
                <rect class="cls-54" x="58.16" y="20.68" width=".11" height="14.18"/>
                <rect class="cls-47" x="58.05" y="20.68" width=".11" height="14.18"/>
                <rect class="cls-48" x="57.94" y="20.68" width=".11" height="14.18"/>
                <rect class="cls-45" x="57.83" y="20.68" width=".11" height="14.18"/>
                <rect class="cls-46" x="57.72" y="20.68" width=".11" height="14.18"/>
                <rect class="cls-66" x="57.61" y="20.68" width=".11" height="14.18"/>
                <rect class="cls-67" x="57.5" y="20.68" width=".11" height="14.18"/>
                <rect class="cls-68" x="57.39" y="20.68" width=".11" height="14.18"/>
                <rect class="cls-82" x="57.28" y="20.68" width=".11" height="14.18"/>
                <rect class="cls-76" x="57.17" y="20.68" width=".11" height="14.18"/>
                <rect class="cls-78" x="57.06" y="20.68" width=".11" height="14.18"/>
                <rect class="cls-79" x="56.95" y="20.68" width=".11" height="14.18"/>
                <rect class="cls-77" x="56.84" y="20.68" width=".11" height="14.18"/>
                <rect class="cls-73" x="56.73" y="20.68" width=".11" height="14.18"/>
                <rect class="cls-80" x="56.62" y="20.68" width=".11" height="14.18"/>
                <rect class="cls-81" x="56.51" y="20.68" width=".11" height="14.18"/>
                <rect class="cls-64" x="56.4" y="20.68" width=".11" height="14.18"/>
                <rect class="cls-65" x="56.29" y="20.68" width=".11" height="14.18"/>
                <rect class="cls-74" x="56.18" y="20.68" width=".11" height="14.18"/>
                <rect class="cls-71" x="56.07" y="20.68" width=".11" height="14.18"/>
                <rect class="cls-41" x="55.96" y="20.68" width=".11" height="14.18"/>
                <rect class="cls-42" x="55.85" y="20.68" width=".11" height="14.18"/>
                <rect class="cls-39" x="55.73" y="20.68" width=".11" height="14.18"/>
                <rect class="cls-40" x="55.62" y="20.68" width=".11" height="14.18"/>
                <rect class="cls-5" x="55.51" y="20.68" width=".11" height="14.18"/>
                <rect class="cls-13" x="55.4" y="20.68" width=".11" height="14.18"/>
                <rect class="cls-18" x="55.29" y="20.68" width=".11" height="14.18"/>
                <rect class="cls-14" x="55.18" y="20.68" width=".11" height="14.18"/>
                <rect class="cls-12" x="55.07" y="20.68" width=".11" height="14.18"/>
                <rect class="cls-8" x="54.96" y="20.68" width=".11" height="14.18"/>
                <rect class="cls-4" x="54.85" y="20.68" width=".11" height="14.18"/>
                <rect class="cls-10" x="54.74" y="20.68" width=".11" height="14.18"/>
                <rect class="cls-11" x="54.63" y="20.68" width=".11" height="14.18"/>
                <rect class="cls-9" x="54.52" y="20.68" width=".11" height="14.18"/>
                <rect class="cls-19" x="54.41" y="20.68" width=".11" height="14.18"/>
                <rect class="cls-37" x="54.3" y="20.68" width=".11" height="14.18"/>
                <rect class="cls-32" x="54.19" y="20.68" width=".11" height="14.18"/>
                <rect class="cls-36" x="54.08" y="20.68" width=".11" height="14.18"/>
                <rect class="cls-38" x="53.97" y="20.68" width=".11" height="14.18"/>
                <rect class="cls-61" x="53.86" y="20.68" width=".11" height="14.18"/>
                <rect class="cls-60" x="53.75" y="20.68" width=".11" height="14.18"/>
                <rect class="cls-34" x="53.64" y="20.68" width=".11" height="14.18"/>
                <rect class="cls-35" x="53.53" y="20.68" width=".11" height="14.18"/>
                <rect class="cls-59" x="53.42" y="20.68" width=".11" height="14.18"/>
                <rect class="cls-58" x="53.31" y="20.68" width=".11" height="14.18"/>
                <rect class="cls-62" x="53.2" y="20.68" width=".11" height="14.18"/>
                <rect class="cls-63" x="53.09" y="20.68" width=".11" height="14.18"/>
                <rect class="cls-33" x="52.98" y="20.68" width=".11" height="14.18"/>
                <rect class="cls-43" x="52.87" y="20.68" width=".11" height="14.18"/>
                <rect class="cls-44" x="52.76" y="20.68" width=".11" height="14.18"/>
                <rect class="cls-49" x="52.65" y="20.68" width=".11" height="14.18"/>
                <rect class="cls-50" x="52.54" y="20.68" width=".11" height="14.18"/>
                <rect class="cls-51" x="52.43" y="20.68" width=".11" height="14.18"/>
                <rect class="cls-20" x="52.32" y="20.68" width=".11" height="14.18"/>
                <rect class="cls-28" x="52.21" y="20.68" width=".11" height="14.18"/>
                <rect class="cls-27" x="52.1" y="20.68" width=".11" height="14.18"/>
                <rect class="cls-24" x="51.99" y="20.68" width=".11" height="14.18"/>
                <rect class="cls-31" x="51.88" y="20.68" width=".11" height="14.18"/>
                <rect class="cls-25" x="51.77" y="20.68" width=".11" height="14.18"/>
                <rect class="cls-26" x="51.66" y="20.68" width=".11" height="14.18"/>
                <rect class="cls-29" x="51.55" y="20.68" width=".11" height="14.18"/>
                <rect class="cls-30" x="51.44" y="20.68" width=".11" height="14.18"/>
                <rect class="cls-23" x="51.33" y="20.68" width=".11" height="14.18"/>
                <rect class="cls-22" x="51.22" y="20.68" width=".11" height="14.18"/>
                <rect class="cls-7" x="51.11" y="20.68" width=".11" height="14.18"/>
                <rect class="cls-6" x="51" y="20.68" width=".11" height="14.18"/>
                <polygon class="cls-3" points="50.89 23.28 50.89 20.68 51 20.68 51 34.86 50.89 34.86 50.89 23.28"/>
              </g>
            </g>
            <g class="cls-86">
              <rect class="cls-17" x="58.01" y="32.19" width=".07" height="2.66"/>
              <rect class="cls-15" x="57.94" y="32.19" width=".07" height="2.66"/>
              <rect class="cls-16" x="57.87" y="32.19" width=".07" height="2.66"/>
              <rect class="cls-70" x="57.8" y="32.19" width=".07" height="2.66"/>
              <rect class="cls-69" x="57.74" y="32.19" width=".07" height="2.66"/>
              <rect class="cls-72" x="57.67" y="32.19" width=".07" height="2.66"/>
              <rect class="cls-21" x="57.6" y="32.19" width=".07" height="2.66"/>
              <rect class="cls-52" x="57.53" y="32.19" width=".07" height="2.66"/>
              <rect class="cls-53" x="57.47" y="32.19" width=".07" height="2.66"/>
              <rect class="cls-56" x="57.4" y="32.19" width=".07" height="2.66"/>
              <rect class="cls-57" x="57.33" y="32.19" width=".07" height="2.66"/>
              <rect class="cls-55" x="57.26" y="32.19" width=".07" height="2.66"/>
              <rect class="cls-54" x="57.2" y="32.19" width=".07" height="2.66"/>
              <rect class="cls-47" x="57.13" y="32.19" width=".07" height="2.66"/>
              <rect class="cls-48" x="57.06" y="32.19" width=".07" height="2.66"/>
              <rect class="cls-45" x="56.99" y="32.19" width=".07" height="2.66"/>
              <rect class="cls-46" x="56.93" y="32.19" width=".07" height="2.66"/>
              <rect class="cls-66" x="56.86" y="32.19" width=".07" height="2.66"/>
              <rect class="cls-67" x="56.79" y="32.19" width=".07" height="2.66"/>
              <rect class="cls-68" x="56.72" y="32.19" width=".07" height="2.66"/>
              <rect class="cls-82" x="56.66" y="32.19" width=".07" height="2.66"/>
              <rect class="cls-76" x="56.59" y="32.19" width=".07" height="2.66"/>
              <rect class="cls-78" x="56.52" y="32.19" width=".07" height="2.66"/>
              <rect class="cls-79" x="56.45" y="32.19" width=".07" height="2.66"/>
              <rect class="cls-77" x="56.39" y="32.19" width=".07" height="2.66"/>
              <rect class="cls-73" x="56.32" y="32.19" width=".07" height="2.66"/>
              <rect class="cls-80" x="56.25" y="32.19" width=".07" height="2.66"/>
              <rect class="cls-81" x="56.18" y="32.19" width=".07" height="2.66"/>
              <rect class="cls-64" x="56.12" y="32.19" width=".07" height="2.66"/>
              <rect class="cls-65" x="56.05" y="32.19" width=".07" height="2.66"/>
              <rect class="cls-74" x="55.98" y="32.19" width=".07" height="2.66"/>
              <rect class="cls-71" x="55.91" y="32.19" width=".07" height="2.66"/>
              <rect class="cls-41" x="55.85" y="32.19" width=".07" height="2.66"/>
              <rect class="cls-42" x="55.78" y="32.19" width=".07" height="2.66"/>
              <rect class="cls-39" x="55.71" y="32.19" width=".07" height="2.66"/>
              <rect class="cls-40" x="55.64" y="32.19" width=".07" height="2.66"/>
              <rect class="cls-5" x="55.58" y="32.19" width=".07" height="2.66"/>
              <rect class="cls-13" x="55.51" y="32.19" width=".07" height="2.66"/>
              <rect class="cls-18" x="55.44" y="32.19" width=".07" height="2.66"/>
              <rect class="cls-14" x="55.37" y="32.19" width=".07" height="2.66"/>
              <rect class="cls-12" x="55.31" y="32.19" width=".07" height="2.66"/>
              <rect class="cls-8" x="55.24" y="32.19" width=".07" height="2.66"/>
              <rect class="cls-4" x="55.17" y="32.19" width=".07" height="2.66"/>
              <rect class="cls-10" x="55.1" y="32.19" width=".07" height="2.66"/>
              <rect class="cls-11" x="55.04" y="32.19" width=".07" height="2.66"/>
              <rect class="cls-9" x="54.97" y="32.19" width=".07" height="2.66"/>
              <rect class="cls-19" x="54.9" y="32.19" width=".07" height="2.66"/>
              <rect class="cls-37" x="54.83" y="32.19" width=".07" height="2.66"/>
              <rect class="cls-32" x="54.77" y="32.19" width=".07" height="2.66"/>
              <rect class="cls-36" x="54.7" y="32.19" width=".07" height="2.66"/>
              <rect class="cls-38" x="54.63" y="32.19" width=".07" height="2.66"/>
              <rect class="cls-61" x="54.57" y="32.19" width=".07" height="2.66"/>
              <rect class="cls-60" x="54.5" y="32.19" width=".07" height="2.66"/>
              <rect class="cls-34" x="54.43" y="32.19" width=".07" height="2.66"/>
              <rect class="cls-35" x="54.36" y="32.19" width=".07" height="2.66"/>
              <rect class="cls-59" x="54.3" y="32.19" width=".07" height="2.66"/>
              <rect class="cls-58" x="54.23" y="32.19" width=".07" height="2.66"/>
              <rect class="cls-62" x="54.16" y="32.19" width=".07" height="2.66"/>
              <rect class="cls-63" x="54.09" y="32.19" width=".07" height="2.66"/>
              <rect class="cls-33" x="54.03" y="32.19" width=".07" height="2.66"/>
              <rect class="cls-43" x="53.96" y="32.19" width=".07" height="2.66"/>
              <rect class="cls-44" x="53.89" y="32.19" width=".07" height="2.66"/>
              <rect class="cls-49" x="53.82" y="32.19" width=".07" height="2.66"/>
              <rect class="cls-50" x="53.76" y="32.19" width=".07" height="2.66"/>
              <rect class="cls-51" x="53.69" y="32.19" width=".07" height="2.66"/>
              <rect class="cls-20" x="53.62" y="32.19" width=".07" height="2.66"/>
              <rect class="cls-28" x="53.55" y="32.19" width=".07" height="2.66"/>
              <rect class="cls-27" x="53.49" y="32.19" width=".07" height="2.66"/>
              <rect class="cls-24" x="53.42" y="32.19" width=".07" height="2.66"/>
              <rect class="cls-31" x="53.35" y="32.19" width=".07" height="2.66"/>
              <rect class="cls-25" x="53.28" y="32.19" width=".07" height="2.66"/>
              <rect class="cls-26" x="53.22" y="32.19" width=".07" height="2.66"/>
              <rect class="cls-29" x="53.15" y="32.19" width=".07" height="2.66"/>
              <rect class="cls-30" x="53.08" y="32.19" width=".07" height="2.66"/>
              <rect class="cls-23" x="53.01" y="32.19" width=".07" height="2.66"/>
              <rect class="cls-22" x="52.95" y="32.19" width=".07" height="2.66"/>
              <rect class="cls-7" x="52.88" y="32.19" width=".07" height="2.66"/>
              <rect class="cls-6" x="52.81" y="32.19" width=".07" height="2.66"/>
              <polygon class="cls-3" points="52.74 34.86 52.74 34.85 52.74 32.19 52.81 32.19 52.81 34.86 52.74 34.86"/>
            </g>
          </g>
          <g class="cls-85">
            <rect class="cls-17" x="66.34" y="0" width=".41" height="18.14"/>
            <rect class="cls-15" x="65.93" y="0" width=".41" height="18.14"/>
            <rect class="cls-16" x="65.51" y="0" width=".41" height="18.14"/>
            <rect class="cls-70" x="65.1" y="0" width=".41" height="18.14"/>
            <rect class="cls-69" x="64.68" y="0" width=".41" height="18.14"/>
            <rect class="cls-72" x="64.27" y="0" width=".41" height="18.14"/>
            <rect class="cls-21" x="63.85" y="0" width=".41" height="18.14"/>
            <rect class="cls-52" x="63.44" y="0" width=".41" height="18.14"/>
            <rect class="cls-53" x="63.02" y="0" width=".41" height="18.14"/>
            <rect class="cls-56" x="62.61" y="0" width=".41" height="18.14"/>
            <rect class="cls-57" x="62.2" y="0" width=".41" height="18.14"/>
            <rect class="cls-55" x="61.78" y="0" width=".41" height="18.14"/>
            <rect class="cls-54" x="61.37" y="0" width=".41" height="18.14"/>
            <rect class="cls-47" x="60.95" y="0" width=".41" height="18.14"/>
            <rect class="cls-48" x="60.54" y="0" width=".41" height="18.14"/>
            <rect class="cls-45" x="60.12" y="0" width=".41" height="18.14"/>
            <rect class="cls-46" x="59.71" y="0" width=".41" height="18.14"/>
            <rect class="cls-66" x="59.29" y="0" width=".41" height="18.14"/>
            <rect class="cls-67" x="58.88" y="0" width=".41" height="18.14"/>
            <rect class="cls-68" x="58.47" y="0" width=".41" height="18.14"/>
            <rect class="cls-82" x="58.05" y="0" width=".41" height="18.14"/>
            <rect class="cls-76" x="57.64" y="0" width=".41" height="18.14"/>
            <rect class="cls-78" x="57.22" y="0" width=".41" height="18.14"/>
            <rect class="cls-79" x="56.81" y="0" width=".41" height="18.14"/>
            <rect class="cls-77" x="56.39" y="0" width=".41" height="18.14"/>
            <rect class="cls-73" x="55.98" y="0" width=".41" height="18.14"/>
            <rect class="cls-80" x="55.56" y="0" width=".41" height="18.14"/>
            <rect class="cls-81" x="55.15" y="0" width=".41" height="18.14"/>
            <rect class="cls-64" x="54.73" y="0" width=".41" height="18.14"/>
            <rect class="cls-65" x="54.32" y="0" width=".41" height="18.14"/>
            <rect class="cls-74" x="53.91" y="0" width=".41" height="18.14"/>
            <rect class="cls-71" x="53.49" y="0" width=".41" height="18.14"/>
            <rect class="cls-41" x="53.08" y="0" width=".41" height="18.14"/>
            <rect class="cls-42" x="52.66" y="0" width=".41" height="18.14"/>
            <rect class="cls-39" x="52.25" y="0" width=".41" height="18.14"/>
            <rect class="cls-40" x="51.83" y="0" width=".41" height="18.14"/>
            <rect class="cls-5" x="51.42" y="0" width=".41" height="18.14"/>
            <rect class="cls-13" x="51" y="0" width=".41" height="18.14"/>
            <rect class="cls-18" x="50.59" y="0" width=".41" height="18.14"/>
            <rect class="cls-14" x="50.18" y="0" width=".41" height="18.14"/>
            <rect class="cls-12" x="49.76" y="0" width=".41" height="18.14"/>
            <rect class="cls-8" x="49.35" y="0" width=".41" height="18.14"/>
            <rect class="cls-4" x="48.93" y="0" width=".41" height="18.14"/>
            <rect class="cls-10" x="48.52" y="0" width=".41" height="18.14"/>
            <rect class="cls-11" x="48.1" y="0" width=".41" height="18.14"/>
            <rect class="cls-9" x="47.69" y="0" width=".41" height="18.14"/>
            <rect class="cls-19" x="47.27" y="0" width=".41" height="18.14"/>
            <rect class="cls-37" x="46.86" y="0" width=".41" height="18.14"/>
            <rect class="cls-32" x="46.45" y="0" width=".41" height="18.14"/>
            <rect class="cls-36" x="46.03" y="0" width=".41" height="18.14"/>
            <rect class="cls-38" x="45.62" y="0" width=".41" height="18.14"/>
            <rect class="cls-61" x="45.2" y="0" width=".41" height="18.14"/>
            <rect class="cls-60" x="44.79" y="0" width=".41" height="18.14"/>
            <rect class="cls-34" x="44.67" y="0" width=".11" height="18.14"/>
          </g>
          <g>
            <g id="mBmY4O-2" data-name="mBmY4O">
              <g class="cls-84">
                <rect class="cls-17" x="56.89" y="22.72" width=".1" height="12.14"/>
                <rect class="cls-15" x="56.79" y="22.72" width=".1" height="12.14"/>
                <rect class="cls-16" x="56.69" y="22.72" width=".1" height="12.14"/>
                <rect class="cls-70" x="56.59" y="22.72" width=".1" height="12.14"/>
                <rect class="cls-69" x="56.48" y="22.72" width=".1" height="12.14"/>
                <rect class="cls-72" x="56.38" y="22.72" width=".1" height="12.14"/>
                <rect class="cls-21" x="56.28" y="22.72" width=".1" height="12.14"/>
                <rect class="cls-52" x="56.18" y="22.72" width=".1" height="12.14"/>
                <rect class="cls-53" x="56.08" y="22.72" width=".1" height="12.14"/>
                <rect class="cls-56" x="55.98" y="22.72" width=".1" height="12.14"/>
                <rect class="cls-57" x="55.88" y="22.72" width=".1" height="12.14"/>
                <rect class="cls-55" x="55.77" y="22.72" width=".1" height="12.14"/>
                <rect class="cls-54" x="55.67" y="22.72" width=".1" height="12.14"/>
                <rect class="cls-47" x="55.57" y="22.72" width=".1" height="12.14"/>
                <rect class="cls-48" x="55.47" y="22.72" width=".1" height="12.14"/>
                <rect class="cls-45" x="55.37" y="22.72" width=".1" height="12.14"/>
                <rect class="cls-46" x="55.27" y="22.72" width=".1" height="12.14"/>
                <rect class="cls-66" x="55.17" y="22.72" width=".1" height="12.14"/>
                <rect class="cls-67" x="55.06" y="22.72" width=".1" height="12.14"/>
                <rect class="cls-68" x="54.96" y="22.72" width=".1" height="12.14"/>
                <rect class="cls-82" x="54.86" y="22.72" width=".1" height="12.14"/>
                <rect class="cls-76" x="54.76" y="22.72" width=".1" height="12.14"/>
                <rect class="cls-78" x="54.66" y="22.72" width=".1" height="12.14"/>
                <rect class="cls-79" x="54.56" y="22.72" width=".1" height="12.14"/>
                <rect class="cls-77" x="54.46" y="22.72" width=".1" height="12.14"/>
                <rect class="cls-73" x="54.36" y="22.72" width=".1" height="12.14"/>
                <rect class="cls-80" x="54.25" y="22.72" width=".1" height="12.14"/>
                <rect class="cls-81" x="54.15" y="22.72" width=".1" height="12.14"/>
                <rect class="cls-64" x="54.05" y="22.72" width=".1" height="12.14"/>
                <rect class="cls-65" x="53.95" y="22.72" width=".1" height="12.14"/>
                <rect class="cls-74" x="53.85" y="22.72" width=".1" height="12.14"/>
                <rect class="cls-71" x="53.75" y="22.72" width=".1" height="12.14"/>
                <rect class="cls-41" x="53.65" y="22.72" width=".1" height="12.14"/>
                <rect class="cls-42" x="53.54" y="22.72" width=".1" height="12.14"/>
                <rect class="cls-39" x="53.44" y="22.72" width=".1" height="12.14"/>
                <rect class="cls-40" x="53.34" y="22.72" width=".1" height="12.14"/>
                <rect class="cls-5" x="53.24" y="22.72" width=".1" height="12.14"/>
                <rect class="cls-13" x="53.14" y="22.72" width=".1" height="12.14"/>
                <rect class="cls-18" x="53.04" y="22.72" width=".1" height="12.14"/>
                <rect class="cls-14" x="52.94" y="22.72" width=".1" height="12.14"/>
                <rect class="cls-12" x="52.83" y="22.72" width=".1" height="12.14"/>
                <rect class="cls-8" x="52.73" y="22.72" width=".1" height="12.14"/>
                <rect class="cls-4" x="52.63" y="22.72" width=".1" height="12.14"/>
                <rect class="cls-10" x="52.53" y="22.72" width=".1" height="12.14"/>
                <rect class="cls-11" x="52.43" y="22.72" width=".1" height="12.14"/>
                <rect class="cls-9" x="52.33" y="22.72" width=".1" height="12.14"/>
                <rect class="cls-19" x="52.23" y="22.72" width=".1" height="12.14"/>
                <rect class="cls-37" x="52.13" y="22.72" width=".1" height="12.14"/>
                <rect class="cls-32" x="52.02" y="22.72" width=".1" height="12.14"/>
                <rect class="cls-36" x="51.92" y="22.72" width=".1" height="12.14"/>
                <rect class="cls-38" x="51.82" y="22.72" width=".1" height="12.14"/>
                <rect class="cls-61" x="51.72" y="22.72" width=".1" height="12.14"/>
                <rect class="cls-60" x="51.62" y="22.72" width=".1" height="12.14"/>
                <rect class="cls-34" x="51.52" y="22.72" width=".1" height="12.14"/>
                <rect class="cls-35" x="51.42" y="22.72" width=".1" height="12.14"/>
                <rect class="cls-59" x="51.31" y="22.72" width=".1" height="12.14"/>
                <rect class="cls-58" x="51.21" y="22.72" width=".1" height="12.14"/>
                <rect class="cls-62" x="51.11" y="22.72" width=".1" height="12.14"/>
                <rect class="cls-63" x="51.01" y="22.72" width=".1" height="12.14"/>
                <rect class="cls-33" x="50.91" y="22.72" width=".1" height="12.14"/>
                <rect class="cls-43" x="50.81" y="22.72" width=".1" height="12.14"/>
                <rect class="cls-44" x="50.71" y="22.72" width=".1" height="12.14"/>
                <rect class="cls-49" x="50.6" y="22.72" width=".1" height="12.14"/>
                <rect class="cls-50" x="50.5" y="22.72" width=".1" height="12.14"/>
                <rect class="cls-51" x="50.4" y="22.72" width=".1" height="12.14"/>
                <rect class="cls-20" x="50.3" y="22.72" width=".1" height="12.14"/>
                <rect class="cls-28" x="50.2" y="22.72" width=".1" height="12.14"/>
                <rect class="cls-27" x="50.1" y="22.72" width=".1" height="12.14"/>
                <rect class="cls-24" x="50" y="22.72" width=".1" height="12.14"/>
                <rect class="cls-31" x="49.89" y="22.72" width=".1" height="12.14"/>
                <rect class="cls-25" x="49.79" y="22.72" width=".1" height="12.14"/>
                <rect class="cls-26" x="49.69" y="22.72" width=".1" height="12.14"/>
                <rect class="cls-29" x="49.59" y="22.72" width=".1" height="12.14"/>
                <rect class="cls-30" x="49.49" y="22.72" width=".1" height="12.14"/>
                <rect class="cls-23" x="49.39" y="22.72" width=".1" height="12.14"/>
                <rect class="cls-22" x="49.29" y="22.72" width=".1" height="12.14"/>
                <rect class="cls-7" x="49.19" y="22.72" width=".1" height="12.14"/>
                <rect class="cls-6" x="49.08" y="22.72" width=".1" height="12.14"/>
                <polygon class="cls-3" points="48.98 23.27 48.98 22.72 49.08 22.72 49.08 34.86 48.98 34.86 48.98 23.27"/>
              </g>
            </g>
            <g class="cls-90">
              <rect class="cls-17" x="56.1" y="32.19" width=".07" height="2.66"/>
              <rect class="cls-15" x="56.03" y="32.19" width=".07" height="2.66"/>
              <rect class="cls-16" x="55.96" y="32.19" width=".07" height="2.66"/>
              <rect class="cls-70" x="55.9" y="32.19" width=".07" height="2.66"/>
              <rect class="cls-69" x="55.83" y="32.19" width=".07" height="2.66"/>
              <rect class="cls-72" x="55.76" y="32.19" width=".07" height="2.66"/>
              <rect class="cls-21" x="55.69" y="32.19" width=".07" height="2.66"/>
              <rect class="cls-52" x="55.63" y="32.19" width=".07" height="2.66"/>
              <rect class="cls-53" x="55.56" y="32.19" width=".07" height="2.66"/>
              <rect class="cls-56" x="55.49" y="32.19" width=".07" height="2.66"/>
              <rect class="cls-57" x="55.42" y="32.19" width=".07" height="2.66"/>
              <rect class="cls-55" x="55.36" y="32.19" width=".07" height="2.66"/>
              <rect class="cls-54" x="55.29" y="32.19" width=".07" height="2.66"/>
              <rect class="cls-47" x="55.22" y="32.19" width=".07" height="2.66"/>
              <rect class="cls-48" x="55.16" y="32.19" width=".07" height="2.66"/>
              <rect class="cls-45" x="55.09" y="32.19" width=".07" height="2.66"/>
              <rect class="cls-46" x="55.02" y="32.19" width=".07" height="2.66"/>
              <rect class="cls-66" x="54.95" y="32.19" width=".07" height="2.66"/>
              <rect class="cls-67" x="54.89" y="32.19" width=".07" height="2.66"/>
              <rect class="cls-68" x="54.82" y="32.19" width=".07" height="2.66"/>
              <rect class="cls-82" x="54.75" y="32.19" width=".07" height="2.66"/>
              <rect class="cls-76" x="54.68" y="32.19" width=".07" height="2.66"/>
              <rect class="cls-78" x="54.62" y="32.19" width=".07" height="2.66"/>
              <rect class="cls-79" x="54.55" y="32.19" width=".07" height="2.66"/>
              <rect class="cls-77" x="54.48" y="32.19" width=".07" height="2.66"/>
              <rect class="cls-73" x="54.41" y="32.19" width=".07" height="2.66"/>
              <rect class="cls-80" x="54.35" y="32.19" width=".07" height="2.66"/>
              <rect class="cls-81" x="54.28" y="32.19" width=".07" height="2.66"/>
              <rect class="cls-64" x="54.21" y="32.19" width=".07" height="2.66"/>
              <rect class="cls-65" x="54.14" y="32.19" width=".07" height="2.66"/>
              <rect class="cls-74" x="54.08" y="32.19" width=".07" height="2.66"/>
              <rect class="cls-71" x="54.01" y="32.19" width=".07" height="2.66"/>
              <rect class="cls-41" x="53.94" y="32.19" width=".07" height="2.66"/>
              <rect class="cls-42" x="53.87" y="32.19" width=".07" height="2.66"/>
              <rect class="cls-39" x="53.81" y="32.19" width=".07" height="2.66"/>
              <rect class="cls-40" x="53.74" y="32.19" width=".07" height="2.66"/>
              <rect class="cls-5" x="53.67" y="32.19" width=".07" height="2.66"/>
              <rect class="cls-13" x="53.6" y="32.19" width=".07" height="2.66"/>
              <rect class="cls-18" x="53.54" y="32.19" width=".07" height="2.66"/>
              <rect class="cls-14" x="53.47" y="32.19" width=".07" height="2.66"/>
              <rect class="cls-12" x="53.4" y="32.19" width=".07" height="2.66"/>
              <rect class="cls-8" x="53.33" y="32.19" width=".07" height="2.66"/>
              <rect class="cls-4" x="53.27" y="32.19" width=".07" height="2.66"/>
              <rect class="cls-10" x="53.2" y="32.19" width=".07" height="2.66"/>
              <rect class="cls-11" x="53.13" y="32.19" width=".07" height="2.66"/>
              <rect class="cls-9" x="53.06" y="32.19" width=".07" height="2.66"/>
              <rect class="cls-19" x="53" y="32.19" width=".07" height="2.66"/>
              <rect class="cls-37" x="52.93" y="32.19" width=".07" height="2.66"/>
              <rect class="cls-32" x="52.86" y="32.19" width=".07" height="2.66"/>
              <rect class="cls-36" x="52.79" y="32.19" width=".07" height="2.66"/>
              <rect class="cls-38" x="52.73" y="32.19" width=".07" height="2.66"/>
              <rect class="cls-61" x="52.66" y="32.19" width=".07" height="2.66"/>
              <rect class="cls-60" x="52.59" y="32.19" width=".07" height="2.66"/>
              <rect class="cls-34" x="52.52" y="32.19" width=".07" height="2.66"/>
              <rect class="cls-35" x="52.46" y="32.19" width=".07" height="2.66"/>
              <rect class="cls-59" x="52.39" y="32.19" width=".07" height="2.66"/>
              <rect class="cls-58" x="52.32" y="32.19" width=".07" height="2.66"/>
              <rect class="cls-62" x="52.25" y="32.19" width=".07" height="2.66"/>
              <rect class="cls-63" x="52.19" y="32.19" width=".07" height="2.66"/>
              <rect class="cls-33" x="52.12" y="32.19" width=".07" height="2.66"/>
              <rect class="cls-43" x="52.05" y="32.19" width=".07" height="2.66"/>
              <rect class="cls-44" x="51.98" y="32.19" width=".07" height="2.66"/>
              <rect class="cls-49" x="51.92" y="32.19" width=".07" height="2.66"/>
              <rect class="cls-50" x="51.85" y="32.19" width=".07" height="2.66"/>
              <rect class="cls-51" x="51.78" y="32.19" width=".07" height="2.66"/>
              <rect class="cls-20" x="51.71" y="32.19" width=".07" height="2.66"/>
              <rect class="cls-28" x="51.65" y="32.19" width=".07" height="2.66"/>
              <rect class="cls-27" x="51.58" y="32.19" width=".07" height="2.66"/>
              <rect class="cls-24" x="51.51" y="32.19" width=".07" height="2.66"/>
              <rect class="cls-31" x="51.44" y="32.19" width=".07" height="2.66"/>
              <rect class="cls-25" x="51.38" y="32.19" width=".07" height="2.66"/>
              <rect class="cls-26" x="51.31" y="32.19" width=".07" height="2.66"/>
              <rect class="cls-29" x="51.24" y="32.19" width=".07" height="2.66"/>
              <rect class="cls-30" x="51.18" y="32.19" width=".07" height="2.66"/>
              <rect class="cls-23" x="51.11" y="32.19" width=".07" height="2.66"/>
              <rect class="cls-22" x="51.04" y="32.19" width=".07" height="2.66"/>
              <rect class="cls-7" x="50.97" y="32.19" width=".07" height="2.66"/>
              <rect class="cls-6" x="50.91" y="32.19" width=".07" height="2.66"/>
              <polygon class="cls-3" points="50.84 34.86 50.84 34.85 50.84 32.19 50.91 32.19 50.91 34.86 50.84 34.86"/>
            </g>
          </g>
          <g class="cls-89">
            <rect class="cls-17" x="60.49" y="10.13" width=".3" height="18.95"/>
            <rect class="cls-15" x="60.19" y="10.13" width=".3" height="18.95"/>
            <rect class="cls-16" x="59.89" y="10.13" width=".3" height="18.95"/>
            <rect class="cls-70" x="59.59" y="10.13" width=".3" height="18.95"/>
            <rect class="cls-69" x="59.29" y="10.13" width=".3" height="18.95"/>
            <rect class="cls-72" x="58.99" y="10.13" width=".3" height="18.95"/>
            <rect class="cls-21" x="58.69" y="10.13" width=".3" height="18.95"/>
            <rect class="cls-52" x="58.39" y="10.13" width=".3" height="18.95"/>
            <rect class="cls-53" x="58.09" y="10.13" width=".3" height="18.95"/>
            <rect class="cls-56" x="57.8" y="10.13" width=".3" height="18.95"/>
            <rect class="cls-57" x="57.5" y="10.13" width=".3" height="18.95"/>
            <rect class="cls-55" x="57.2" y="10.13" width=".3" height="18.95"/>
            <rect class="cls-54" x="56.9" y="10.13" width=".3" height="18.95"/>
            <rect class="cls-47" x="56.6" y="10.13" width=".3" height="18.95"/>
            <rect class="cls-48" x="56.3" y="10.13" width=".3" height="18.95"/>
            <rect class="cls-45" x="56" y="10.13" width=".3" height="18.95"/>
            <rect class="cls-46" x="55.7" y="10.13" width=".3" height="18.95"/>
            <rect class="cls-66" x="55.4" y="10.13" width=".3" height="18.95"/>
            <rect class="cls-67" x="55.1" y="10.13" width=".3" height="18.95"/>
            <rect class="cls-68" x="54.8" y="10.13" width=".3" height="18.95"/>
            <rect class="cls-82" x="54.5" y="10.13" width=".3" height="18.95"/>
            <rect class="cls-76" x="54.21" y="10.13" width=".3" height="18.95"/>
            <rect class="cls-78" x="53.91" y="10.13" width=".3" height="18.95"/>
            <rect class="cls-79" x="53.61" y="10.13" width=".3" height="18.95"/>
            <rect class="cls-77" x="53.31" y="10.13" width=".3" height="18.95"/>
            <rect class="cls-73" x="53.01" y="10.13" width=".3" height="18.95"/>
            <rect class="cls-80" x="52.71" y="10.13" width=".3" height="18.95"/>
            <rect class="cls-81" x="52.41" y="10.13" width=".3" height="18.95"/>
            <rect class="cls-64" x="52.11" y="10.13" width=".3" height="18.95"/>
            <rect class="cls-65" x="51.81" y="10.13" width=".3" height="18.95"/>
            <rect class="cls-74" x="51.51" y="10.13" width=".3" height="18.95"/>
            <rect class="cls-71" x="51.21" y="10.13" width=".3" height="18.95"/>
            <rect class="cls-41" x="50.91" y="10.13" width=".3" height="18.95"/>
            <rect class="cls-42" x="50.62" y="10.13" width=".3" height="18.95"/>
            <rect class="cls-39" x="50.32" y="10.13" width=".3" height="18.95"/>
            <rect class="cls-40" x="50.02" y="10.13" width=".3" height="18.95"/>
            <rect class="cls-5" x="49.72" y="10.13" width=".3" height="18.95"/>
            <rect class="cls-13" x="49.42" y="10.13" width=".3" height="18.95"/>
            <rect class="cls-18" x="49.12" y="10.13" width=".3" height="18.95"/>
            <rect class="cls-14" x="48.82" y="10.13" width=".3" height="18.95"/>
            <rect class="cls-12" x="48.52" y="10.13" width=".3" height="18.95"/>
            <rect class="cls-8" x="48.22" y="10.13" width=".3" height="18.95"/>
            <rect class="cls-4" x="47.92" y="10.13" width=".3" height="18.95"/>
            <rect class="cls-10" x="47.62" y="10.13" width=".3" height="18.95"/>
            <rect class="cls-11" x="47.32" y="10.13" width=".3" height="18.95"/>
            <rect class="cls-9" x="47.03" y="10.13" width=".3" height="18.95"/>
            <rect class="cls-19" x="46.73" y="10.13" width=".3" height="18.95"/>
            <rect class="cls-37" x="46.43" y="10.13" width=".3" height="18.95"/>
            <rect class="cls-32" x="46.13" y="10.13" width=".3" height="18.95"/>
            <rect class="cls-36" x="45.83" y="10.13" width=".3" height="18.95"/>
            <rect class="cls-38" x="45.53" y="10.13" width=".3" height="18.95"/>
            <rect class="cls-61" x="45.23" y="10.13" width=".3" height="18.95"/>
            <rect class="cls-60" x="44.93" y="10.13" width=".3" height="18.95"/>
            <rect class="cls-34" x="44.63" y="10.13" width=".3" height="18.95"/>
            <rect class="cls-35" x="44.33" y="10.13" width=".3" height="18.95"/>
            <rect class="cls-59" x="44.03" y="10.13" width=".3" height="18.95"/>
            <rect class="cls-58" x="43.73" y="10.13" width=".3" height="18.95"/>
            <rect class="cls-62" x="43.44" y="10.13" width=".3" height="18.95"/>
            <rect class="cls-63" x="43.14" y="10.13" width=".3" height="18.95"/>
            <rect class="cls-33" x="42.84" y="10.13" width=".3" height="18.95"/>
            <rect class="cls-43" x="42.54" y="10.13" width=".3" height="18.95"/>
            <rect class="cls-44" x="42.24" y="10.13" width=".3" height="18.95"/>
            <rect class="cls-49" x="41.94" y="10.13" width=".3" height="18.95"/>
            <rect class="cls-50" x="41.64" y="10.13" width=".3" height="18.95"/>
            <rect class="cls-51" x="41.34" y="10.13" width=".3" height="18.95"/>
            <rect class="cls-20" x="41.04" y="10.13" width=".3" height="18.95"/>
            <rect class="cls-28" x="40.74" y="10.13" width=".3" height="18.95"/>
            <rect class="cls-27" x="40.44" y="10.13" width=".3" height="18.95"/>
            <rect class="cls-24" x="40.14" y="10.13" width=".3" height="18.95"/>
            <rect class="cls-31" x="39.85" y="10.13" width=".3" height="18.95"/>
            <rect class="cls-25" x="39.55" y="10.13" width=".3" height="18.95"/>
            <rect class="cls-26" x="39.25" y="10.13" width=".3" height="18.95"/>
            <rect class="cls-29" x="38.95" y="10.13" width=".3" height="18.95"/>
            <rect class="cls-30" x="38.65" y="10.13" width=".3" height="18.95"/>
            <rect class="cls-23" x="38.35" y="10.13" width=".3" height="18.95"/>
            <rect class="cls-22" x="38.05" y="10.13" width=".3" height="18.95"/>
            <rect class="cls-7" x="37.75" y="10.13" width=".3" height="18.95"/>
            <rect class="cls-6" x="37.45" y="10.13" width=".3" height="18.95"/>
            <polygon class="cls-3" points="37.15 20.16 37.15 10.13 37.45 10.13 37.45 29.07 37.15 29.07 37.15 20.16"/>
          </g>
          <g>
            <g class="cls-87">
              <polygon class="cls-36" points="43.46 34.76 43.83 34.16 43.83 34.76 43.46 34.76"/>
              <polygon class="cls-38" points="43.02 34.76 43.83 33.46 43.83 34.16 43.46 34.76 43.02 34.76"/>
              <polygon class="cls-61" points="42.58 34.76 43.83 32.75 43.83 33.46 43.02 34.76 42.58 34.76"/>
              <polygon class="cls-60" points="42.15 34.76 43.83 32.05 43.83 32.75 42.58 34.76 42.15 34.76"/>
              <polygon class="cls-34" points="41.71 34.76 43.83 31.35 43.83 32.05 42.15 34.76 41.71 34.76"/>
              <polygon class="cls-35" points="41.27 34.76 43.83 30.64 43.83 31.35 41.71 34.76 41.27 34.76"/>
              <polygon class="cls-59" points="40.83 34.76 43.83 29.94 43.83 30.64 41.27 34.76 40.83 34.76"/>
              <polygon class="cls-58" points="40.39 34.76 43.83 29.23 43.83 29.94 40.83 34.76 40.39 34.76"/>
              <polygon class="cls-62" points="39.95 34.76 43.83 28.53 43.83 29.23 40.39 34.76 39.95 34.76"/>
              <polygon class="cls-63" points="39.51 34.76 43.83 27.82 43.83 28.53 39.95 34.76 39.51 34.76"/>
              <polygon class="cls-33" points="39.07 34.76 43.83 27.12 43.83 27.82 39.51 34.76 39.07 34.76"/>
              <polygon class="cls-43" points="38.63 34.76 43.83 26.42 43.83 27.12 39.07 34.76 38.63 34.76"/>
              <polygon class="cls-44" points="38.19 34.76 43.83 25.71 43.83 26.42 38.63 34.76 38.19 34.76"/>
              <polygon class="cls-49" points="37.76 34.76 43.83 25.01 43.83 25.71 38.19 34.76 37.76 34.76"/>
              <polygon class="cls-50" points="37.32 34.76 43.83 24.3 43.83 25.01 37.76 34.76 37.32 34.76"/>
              <polygon class="cls-51" points="36.88 34.76 43.83 23.6 43.83 24.3 37.32 34.76 36.88 34.76"/>
              <polygon class="cls-20" points="36.44 34.76 43.83 22.89 43.83 23.6 36.88 34.76 36.44 34.76"/>
              <polygon class="cls-28" points="36 34.76 43.83 22.19 43.83 22.89 36.44 34.76 36 34.76"/>
              <polygon class="cls-27" points="35.56 34.76 43.83 21.49 43.83 22.19 36 34.76 35.56 34.76"/>
              <polygon class="cls-24" points="35.12 34.76 43.83 20.78 43.83 21.49 35.56 34.76 35.12 34.76"/>
              <polygon class="cls-31" points="34.68 34.76 43.83 20.08 43.83 20.78 35.12 34.76 34.68 34.76"/>
              <polygon class="cls-25" points="34.24 34.76 43.83 19.37 43.83 20.08 34.68 34.76 34.24 34.76"/>
              <polygon class="cls-26" points="33.81 34.76 43.83 18.67 43.83 19.37 34.24 34.76 33.81 34.76"/>
              <polygon class="cls-29" points="33.37 34.76 43.83 17.96 43.83 18.67 33.81 34.76 33.37 34.76"/>
              <polygon class="cls-30" points="32.93 34.76 43.83 17.26 43.83 17.96 33.37 34.76 32.93 34.76"/>
              <polygon class="cls-23" points="32.49 34.76 43.83 16.56 43.83 17.26 32.93 34.76 32.49 34.76"/>
              <polygon class="cls-22" points="32.13 34.76 32.07 34.72 43.83 15.85 43.83 16.56 32.49 34.76 32.13 34.76"/>
              <polygon class="cls-7" points="32.07 34.72 31.96 34.65 31.96 34.2 43.83 15.15 43.83 15.85 32.07 34.72"/>
              <polygon class="cls-6" points="31.96 33.5 43.83 14.44 43.83 15.15 31.96 34.2 31.96 33.5"/>
              <polygon class="cls-3" points="31.96 32.79 43.83 13.74 43.83 14.44 31.96 33.5 31.96 32.79"/>
              <polygon class="cls-3" points="43.83 13.74 31.96 32.79 31.96 10.68 43.83 10.68 43.83 13.74"/>
            </g>
            <g class="cls-88">
              <rect class="cls-14" x="57.37" y="8.66" width="0" height="0"/>
            </g>
            <g class="cls-91">
              <polygon class="cls-57" points="60.58 34.76 60.77 34.45 60.77 34.76 60.58 34.76"/>
              <polygon class="cls-55" points="60.14 34.76 60.77 33.74 60.77 34.45 60.58 34.76 60.14 34.76"/>
              <polygon class="cls-54" points="59.7 34.76 60.77 33.04 60.77 33.74 60.14 34.76 59.7 34.76"/>
              <polygon class="cls-47" points="59.26 34.76 60.77 32.34 60.77 33.04 59.7 34.76 59.26 34.76"/>
              <polygon class="cls-48" points="58.82 34.76 60.77 31.63 60.77 32.34 59.26 34.76 58.82 34.76"/>
              <polygon class="cls-45" points="58.38 34.76 60.77 30.93 60.77 31.63 58.82 34.76 58.38 34.76"/>
              <polygon class="cls-46" points="57.94 34.76 60.77 30.22 60.77 30.93 58.38 34.76 57.94 34.76"/>
              <polygon class="cls-66" points="57.51 34.76 60.77 29.52 60.77 30.22 57.94 34.76 57.51 34.76"/>
              <polygon class="cls-67" points="57.07 34.76 60.77 28.81 60.77 29.52 57.51 34.76 57.07 34.76"/>
              <polygon class="cls-68" points="56.63 34.76 60.77 28.11 60.77 28.81 57.07 34.76 56.63 34.76"/>
              <polygon class="cls-82" points="56.19 34.76 60.77 27.41 60.77 28.11 56.63 34.76 56.19 34.76"/>
              <polygon class="cls-76" points="55.75 34.76 60.77 26.7 60.77 27.41 56.19 34.76 55.75 34.76"/>
              <polygon class="cls-78" points="55.31 34.76 60.77 26 60.77 26.7 55.75 34.76 55.31 34.76"/>
              <polygon class="cls-79" points="54.87 34.76 60.77 25.29 60.77 26 55.31 34.76 54.87 34.76"/>
              <polygon class="cls-77" points="54.43 34.76 60.77 24.59 60.77 25.29 54.87 34.76 54.43 34.76"/>
              <polygon class="cls-73" points="53.99 34.76 60.77 23.88 60.77 24.59 54.43 34.76 53.99 34.76"/>
              <polygon class="cls-80" points="53.56 34.76 60.77 23.18 60.77 23.88 53.99 34.76 53.56 34.76"/>
              <polygon class="cls-81" points="53.12 34.76 60.77 22.48 60.77 23.18 53.56 34.76 53.12 34.76"/>
              <polygon class="cls-64" points="52.68 34.76 60.77 21.77 60.77 22.48 53.12 34.76 52.68 34.76"/>
              <polygon class="cls-65" points="52.24 34.76 60.77 21.07 60.77 21.77 52.68 34.76 52.24 34.76"/>
              <polygon class="cls-74" points="51.8 34.76 60.77 20.36 60.77 21.07 52.24 34.76 51.8 34.76"/>
              <polygon class="cls-71" points="51.36 34.76 60.77 19.66 60.77 20.36 51.8 34.76 51.36 34.76"/>
              <polygon class="cls-41" points="50.92 34.76 60.77 18.95 60.77 19.66 51.36 34.76 50.92 34.76"/>
              <polygon class="cls-42" points="50.48 34.76 60.77 18.25 60.77 18.95 50.92 34.76 50.48 34.76"/>
              <polygon class="cls-39" points="50.04 34.76 60.77 17.55 60.77 18.25 50.48 34.76 50.04 34.76"/>
              <polygon class="cls-40" points="49.61 34.76 60.77 16.84 60.77 17.55 50.04 34.76 49.61 34.76"/>
              <polygon class="cls-5" points="49.17 34.76 60.77 16.14 60.77 16.84 49.61 34.76 49.17 34.76"/>
              <polygon class="cls-13" points="48.73 34.76 60.77 15.43 60.77 16.14 49.17 34.76 48.73 34.76"/>
              <polygon class="cls-18" points="48.29 34.76 60.77 14.73 60.77 15.43 48.73 34.76 48.29 34.76"/>
              <polygon class="cls-14" points="47.85 34.76 60.77 14.02 60.77 14.73 48.29 34.76 47.85 34.76"/>
              <polygon class="cls-12" points="47.41 34.76 60.77 13.32 60.77 14.02 47.85 34.76 47.41 34.76"/>
              <polygon class="cls-8" points="46.97 34.76 60.77 12.62 60.77 13.32 47.41 34.76 46.97 34.76"/>
              <polygon class="cls-4" points="46.53 34.76 60.77 11.91 60.77 12.62 46.97 34.76 46.53 34.76"/>
              <polygon class="cls-10" points="46.09 34.76 60.77 11.21 60.77 11.91 46.53 34.76 46.09 34.76"/>
              <polygon class="cls-11" points="45.66 34.76 60.77 10.5 60.77 11.21 46.09 34.76 45.66 34.76"/>
              <polygon class="cls-9" points="45.22 34.76 60.77 9.8 60.77 10.5 45.66 34.76 45.22 34.76"/>
              <polygon class="cls-19" points="44.78 34.76 60.77 9.1 60.77 9.8 45.22 34.76 44.78 34.76"/>
              <polygon class="cls-37" points="44.34 34.76 60.76 8.41 60.77 8.42 60.77 9.1 44.78 34.76 44.34 34.76"/>
              <polygon class="cls-32" points="43.9 34.76 60.44 8.22 60.76 8.41 44.34 34.76 43.9 34.76"/>
              <polygon class="cls-36" points="43.46 34.76 60.12 8.02 60.44 8.22 43.9 34.76 43.46 34.76"/>
              <polygon class="cls-38" points="43.02 34.76 59.71 7.98 60.06 7.98 60.12 8.02 43.46 34.76 43.02 34.76"/>
              <polygon class="cls-61" points="42.58 34.76 59.27 7.98 59.71 7.98 43.02 34.76 42.58 34.76"/>
              <polygon class="cls-60" points="42.14 34.76 58.83 7.98 59.27 7.98 42.58 34.76 42.14 34.76"/>
              <polygon class="cls-34" points="41.71 34.76 58.39 7.98 58.83 7.98 42.14 34.76 41.71 34.76"/>
              <polygon class="cls-35" points="41.27 34.76 57.95 7.98 58.39 7.98 41.71 34.76 41.27 34.76"/>
              <polygon class="cls-59" points="40.83 34.76 57.51 7.98 57.95 7.98 41.27 34.76 40.83 34.76"/>
              <polygon class="cls-58" points="40.39 34.76 57.08 7.98 57.51 7.98 40.83 34.76 40.39 34.76"/>
              <polygon class="cls-62" points="39.95 34.76 56.64 7.98 57.08 7.98 40.39 34.76 39.95 34.76"/>
              <polygon class="cls-63" points="39.51 34.76 56.2 7.98 56.64 7.98 39.95 34.76 39.51 34.76"/>
              <polygon class="cls-33" points="39.07 34.76 55.76 7.98 56.2 7.98 39.51 34.76 39.07 34.76"/>
              <polygon class="cls-43" points="38.63 34.76 55.32 7.98 55.76 7.98 39.07 34.76 38.63 34.76"/>
              <polygon class="cls-44" points="38.19 34.76 54.88 7.98 55.32 7.98 38.63 34.76 38.19 34.76"/>
              <polygon class="cls-49" points="37.76 34.76 54.44 7.98 54.88 7.98 38.19 34.76 37.76 34.76"/>
              <polygon class="cls-50" points="37.32 34.76 54 7.98 54.44 7.98 37.76 34.76 37.32 34.76"/>
              <polygon class="cls-51" points="37 34.76 36.91 34.7 53.56 7.98 54 7.98 37.32 34.76 37 34.76"/>
              <polygon class="cls-20" points="36.91 34.7 36.69 34.56 36.69 34.36 53.13 7.98 53.56 7.98 36.91 34.7"/>
              <polygon class="cls-28" points="36.69 33.66 52.69 7.98 53.13 7.98 36.69 34.36 36.69 33.66"/>
              <polygon class="cls-27" points="36.69 32.95 52.25 7.98 52.69 7.98 36.69 33.66 36.69 32.95"/>
              <polygon class="cls-24" points="36.69 32.25 51.81 7.98 52.25 7.98 36.69 32.95 36.69 32.25"/>
              <polygon class="cls-31" points="36.69 31.54 51.37 7.98 51.81 7.98 36.69 32.25 36.69 31.54"/>
              <polygon class="cls-25" points="36.69 30.84 50.93 7.98 51.37 7.98 36.69 31.54 36.69 30.84"/>
              <polygon class="cls-26" points="36.69 30.13 50.49 7.98 50.93 7.98 36.69 30.84 36.69 30.13"/>
              <polygon class="cls-29" points="36.69 29.43 50.05 7.98 50.49 7.98 36.69 30.13 36.69 29.43"/>
              <polygon class="cls-30" points="36.69 28.73 49.61 7.98 50.05 7.98 36.69 29.43 36.69 28.73"/>
              <polygon class="cls-23" points="36.69 28.02 49.18 7.98 49.61 7.98 36.69 28.73 36.69 28.02"/>
              <polygon class="cls-22" points="36.69 27.32 48.74 7.98 49.18 7.98 36.69 28.02 36.69 27.32"/>
              <polygon class="cls-7" points="36.69 26.61 48.3 7.98 48.74 7.98 36.69 27.32 36.69 26.61"/>
              <polygon class="cls-6" points="36.69 25.91 47.86 7.98 48.3 7.98 36.69 26.61 36.69 25.91"/>
              <polygon class="cls-3" points="36.69 25.2 47.42 7.98 47.86 7.98 36.69 25.91 36.69 25.2"/>
              <polygon class="cls-3" points="47.42 7.98 36.69 25.2 36.69 7.98 47.42 7.98"/>
            </g>
            <g class="cls-94">
              <polygon class="cls-36" points="43.46 34.76 43.83 34.16 43.83 34.76 43.46 34.76"/>
              <polygon class="cls-38" points="43.02 34.76 43.83 33.46 43.83 34.16 43.46 34.76 43.02 34.76"/>
              <polygon class="cls-61" points="42.58 34.76 43.83 32.75 43.83 33.46 43.02 34.76 42.58 34.76"/>
              <polygon class="cls-60" points="42.15 34.76 43.83 32.05 43.83 32.75 42.58 34.76 42.15 34.76"/>
              <polygon class="cls-34" points="41.71 34.76 43.83 31.35 43.83 32.05 42.15 34.76 41.71 34.76"/>
              <polygon class="cls-35" points="41.27 34.76 43.83 30.64 43.83 31.35 41.71 34.76 41.27 34.76"/>
              <polygon class="cls-59" points="40.83 34.76 43.83 29.94 43.83 30.64 41.27 34.76 40.83 34.76"/>
              <polygon class="cls-58" points="40.39 34.76 43.83 29.23 43.83 29.94 40.83 34.76 40.39 34.76"/>
              <polygon class="cls-62" points="39.95 34.76 43.83 28.53 43.83 29.23 40.39 34.76 39.95 34.76"/>
              <polygon class="cls-63" points="39.51 34.76 43.83 27.82 43.83 28.53 39.95 34.76 39.51 34.76"/>
              <polygon class="cls-33" points="39.07 34.76 43.83 27.12 43.83 27.82 39.51 34.76 39.07 34.76"/>
              <polygon class="cls-43" points="38.63 34.76 43.83 26.42 43.83 27.12 39.07 34.76 38.63 34.76"/>
              <polygon class="cls-44" points="38.19 34.76 43.83 25.71 43.83 26.42 38.63 34.76 38.19 34.76"/>
              <polygon class="cls-49" points="37.76 34.76 43.83 25.01 43.83 25.71 38.19 34.76 37.76 34.76"/>
              <polygon class="cls-50" points="37.32 34.76 43.83 24.3 43.83 25.01 37.76 34.76 37.32 34.76"/>
              <polygon class="cls-51" points="36.88 34.76 43.83 23.6 43.83 24.3 37.32 34.76 36.88 34.76"/>
              <polygon class="cls-20" points="36.44 34.76 43.83 22.89 43.83 23.6 36.88 34.76 36.44 34.76"/>
              <polygon class="cls-28" points="36 34.76 43.83 22.19 43.83 22.89 36.44 34.76 36 34.76"/>
              <polygon class="cls-27" points="35.56 34.76 43.83 21.49 43.83 22.19 36 34.76 35.56 34.76"/>
              <polygon class="cls-24" points="35.12 34.76 43.83 20.78 43.83 21.49 35.56 34.76 35.12 34.76"/>
              <polygon class="cls-31" points="34.68 34.76 43.83 20.08 43.83 20.78 35.12 34.76 34.68 34.76"/>
              <polygon class="cls-25" points="34.24 34.76 43.83 19.37 43.83 20.08 34.68 34.76 34.24 34.76"/>
              <polygon class="cls-26" points="33.81 34.76 43.83 18.67 43.83 19.37 34.24 34.76 33.81 34.76"/>
              <polygon class="cls-29" points="33.37 34.76 43.83 17.96 43.83 18.67 33.81 34.76 33.37 34.76"/>
              <polygon class="cls-30" points="32.93 34.76 43.83 17.26 43.83 17.96 33.37 34.76 32.93 34.76"/>
              <polygon class="cls-23" points="32.49 34.76 43.83 16.56 43.83 17.26 32.93 34.76 32.49 34.76"/>
              <polygon class="cls-22" points="32.13 34.76 32.07 34.72 43.83 15.85 43.83 16.56 32.49 34.76 32.13 34.76"/>
              <polygon class="cls-7" points="32.07 34.72 31.96 34.65 31.96 34.2 43.83 15.15 43.83 15.85 32.07 34.72"/>
              <polygon class="cls-6" points="31.96 33.5 43.83 14.44 43.83 15.15 31.96 34.2 31.96 33.5"/>
              <polygon class="cls-3" points="31.96 32.79 43.83 13.74 43.83 14.44 31.96 33.5 31.96 32.79"/>
              <polygon class="cls-3" points="43.83 13.74 31.96 32.79 31.96 10.68 43.83 10.68 43.83 13.74"/>
            </g>
          </g>
          <g class="cls-95">
            <rect class="cls-8" x="45.33" y="27.82" width="2.3" height="6.93"/>
            <rect class="cls-4" x="41.4" y="27.82" width="3.93" height="6.93"/>
            <rect class="cls-10" x="37.46" y="27.82" width="3.93" height="6.93"/>
            <rect class="cls-11" x="33.53" y="27.82" width="3.93" height="6.93"/>
            <rect class="cls-9" x="32.73" y="27.82" width=".8" height="6.93"/>
          </g>
          <g class="cls-93">
            <rect class="cls-8" x="43.62" y="10.68" width=".21" height="24.08"/>
            <rect class="cls-4" x="43.25" y="10.68" width=".37" height="24.08"/>
            <rect class="cls-10" x="42.88" y="10.68" width=".37" height="24.08"/>
            <rect class="cls-11" x="42.51" y="10.68" width=".37" height="24.08"/>
            <rect class="cls-9" x="42.14" y="10.68" width=".37" height="24.08"/>
            <rect class="cls-19" x="41.78" y="10.68" width=".37" height="24.08"/>
            <rect class="cls-37" x="41.41" y="10.68" width=".37" height="24.08"/>
            <rect class="cls-32" x="41.04" y="10.68" width=".37" height="24.08"/>
            <rect class="cls-36" x="40.67" y="10.68" width=".37" height="24.08"/>
            <rect class="cls-38" x="40.3" y="10.68" width=".37" height="24.08"/>
            <rect class="cls-61" x="39.93" y="10.68" width=".37" height="24.08"/>
            <rect class="cls-60" x="39.56" y="10.68" width=".37" height="24.08"/>
            <rect class="cls-34" x="39.19" y="10.68" width=".37" height="24.08"/>
            <rect class="cls-35" x="38.82" y="10.68" width=".37" height="24.08"/>
            <rect class="cls-59" x="38.45" y="10.68" width=".37" height="24.08"/>
            <rect class="cls-58" x="38.08" y="10.68" width=".37" height="24.08"/>
            <rect class="cls-62" x="37.71" y="10.68" width=".37" height="24.08"/>
            <rect class="cls-63" x="37.34" y="10.68" width=".37" height="24.08"/>
            <rect class="cls-33" x="36.97" y="10.68" width=".37" height="24.08"/>
            <rect class="cls-43" x="36.6" y="10.68" width=".37" height="24.08"/>
            <rect class="cls-44" x="36.24" y="10.68" width=".37" height="24.08"/>
            <rect class="cls-49" x="35.87" y="10.68" width=".37" height="24.08"/>
            <rect class="cls-50" x="35.5" y="10.68" width=".37" height="24.08"/>
            <rect class="cls-51" x="35.13" y="10.68" width=".37" height="24.08"/>
            <rect class="cls-20" x="34.76" y="10.68" width=".37" height="24.08"/>
            <rect class="cls-28" x="34.39" y="10.68" width=".37" height="24.08"/>
            <rect class="cls-27" x="34.02" y="10.68" width=".37" height="24.08"/>
            <rect class="cls-24" x="33.65" y="10.68" width=".37" height="24.08"/>
            <rect class="cls-31" x="33.28" y="10.68" width=".37" height="24.08"/>
            <rect class="cls-25" x="32.91" y="10.68" width=".37" height="24.08"/>
            <rect class="cls-26" x="32.54" y="10.68" width=".37" height="24.08"/>
            <rect class="cls-29" x="32.17" y="10.68" width=".37" height="24.08"/>
            <rect class="cls-30" x="31.8" y="10.68" width=".37" height="24.08"/>
            <rect class="cls-23" x="31.43" y="10.68" width=".37" height="24.08"/>
            <rect class="cls-22" x="31.06" y="10.68" width=".37" height="24.08"/>
            <rect class="cls-7" x="30.69" y="10.68" width=".37" height="24.08"/>
            <rect class="cls-6" x="30.33" y="10.68" width=".37" height="24.08"/>
            <polygon class="cls-3" points="29.96 26.24 29.96 10.68 30.33 10.68 30.33 34.76 29.96 34.76 29.96 26.24"/>
          </g>
        </g>
        <g class="cls-92">
          <polygon class="cls-59" points="47.54 22.81 47.26 22.77 47.54 22.77 47.54 22.81"/>
          <polygon class="cls-58" points="47.54 23.02 45.37 22.77 47.26 22.77 47.54 22.81 47.54 23.02"/>
          <polygon class="cls-62" points="47.54 23.23 43.48 22.77 45.37 22.77 47.54 23.02 47.54 23.23"/>
          <polygon class="cls-63" points="47.54 23.44 41.59 22.77 43.48 22.77 47.54 23.23 47.54 23.44"/>
          <polygon class="cls-33" points="47.54 23.65 40.05 22.81 40.05 22.77 41.59 22.77 47.54 23.44 47.54 23.65"/>
          <polygon class="cls-43" points="47.54 23.86 40.05 23.02 40.05 22.81 47.54 23.65 47.54 23.86"/>
          <polygon class="cls-44" points="47.54 24.07 40.05 23.23 40.05 23.02 47.54 23.86 47.54 24.07"/>
          <polygon class="cls-49" points="47.54 24.28 40.05 23.44 40.05 23.23 47.54 24.07 47.54 24.28"/>
          <polygon class="cls-50" points="47.54 24.49 40.05 23.65 40.05 23.44 47.54 24.28 47.54 24.49"/>
          <polygon class="cls-51" points="47.54 24.7 40.05 23.86 40.05 23.65 47.54 24.49 47.54 24.7"/>
          <polygon class="cls-20" points="47.54 24.91 40.05 24.07 40.05 23.86 47.54 24.7 47.54 24.91"/>
          <polygon class="cls-28" points="47.54 25.12 40.05 24.28 40.05 24.07 47.54 24.91 47.54 25.12"/>
          <polygon class="cls-27" points="47.54 25.33 40.05 24.49 40.05 24.28 47.54 25.12 47.54 25.33"/>
          <polygon class="cls-24" points="47.54 25.54 40.05 24.7 40.05 24.49 47.54 25.33 47.54 25.54"/>
          <polygon class="cls-31" points="47.54 25.75 40.05 24.91 40.05 24.7 47.54 25.54 47.54 25.75"/>
          <polygon class="cls-25" points="47.54 25.96 40.05 25.12 40.05 24.91 47.54 25.75 47.54 25.96"/>
          <polygon class="cls-26" points="47.54 26.17 40.05 25.34 40.05 25.12 47.54 25.96 47.54 26.17"/>
          <polygon class="cls-29" points="47.54 26.38 40.05 25.55 40.05 25.34 47.54 26.17 47.54 26.38"/>
          <polygon class="cls-30" points="47.54 26.59 40.05 25.76 40.05 25.55 47.54 26.38 47.54 26.59"/>
          <polygon class="cls-23" points="47.54 26.8 40.05 25.97 40.05 25.76 47.54 26.59 47.54 26.8"/>
          <polygon class="cls-22" points="47.54 27.01 40.05 26.18 40.05 25.97 47.54 26.8 47.54 27.01"/>
          <polygon class="cls-7" points="47.54 27.22 40.05 26.39 40.05 26.18 47.54 27.01 47.54 27.22"/>
          <polygon class="cls-6" points="47.54 27.43 40.05 26.6 40.05 26.39 47.54 27.22 47.54 27.43"/>
          <polygon class="cls-3" points="47.54 27.64 40.05 26.81 40.05 26.6 47.54 27.43 47.54 27.64"/>
          <polygon class="cls-3" points="40.05 26.81 47.54 27.64 47.54 33.7 40.05 33.7 40.05 26.81"/>
        </g>
      </g>
      <g>
        <path class="cls-75" d="M12.87,48.95h-2.27c-.09-.49-.25-.91-.49-1.28-.24-.37-.53-.68-.87-.94-.35-.26-.73-.45-1.16-.58s-.88-.2-1.35-.2c-.86,0-1.63.22-2.31.65-.68.43-1.21,1.07-1.6,1.9-.39.83-.59,1.85-.59,3.06s.2,2.24.59,3.07c.39.84.93,1.47,1.61,1.89.68.43,1.45.64,2.29.64.47,0,.92-.06,1.34-.19.42-.13.81-.32,1.16-.57.34-.25.64-.56.88-.93.24-.37.41-.79.5-1.26h2.27c-.12.74-.36,1.41-.7,2.03-.35.61-.79,1.14-1.33,1.59-.54.44-1.16.79-1.85,1.03-.7.24-1.45.36-2.27.36-1.29,0-2.44-.31-3.45-.92-1.01-.61-1.8-1.49-2.39-2.64-.58-1.15-.87-2.51-.87-4.1s.29-2.96.87-4.11,1.38-2.02,2.39-2.64c1.01-.61,2.16-.92,3.45-.92.79,0,1.53.11,2.22.34.69.23,1.3.56,1.85.99s1,.96,1.36,1.59.6,1.34.73,2.14Z"/>
        <path class="cls-75" d="M17.58,59.27c-.71,0-1.35-.13-1.92-.4-.57-.26-1.03-.65-1.36-1.15-.33-.5-.5-1.12-.5-1.86,0-.63.12-1.15.36-1.56.24-.41.57-.73.98-.97.41-.24.87-.42,1.38-.54.51-.12,1.03-.21,1.56-.28.67-.08,1.21-.14,1.63-.19.42-.05.72-.13.91-.25.19-.12.28-.31.28-.57v-.05c0-.64-.18-1.13-.54-1.48-.36-.35-.89-.52-1.59-.52s-1.31.16-1.73.48c-.42.32-.71.68-.87,1.08l-2.05-.47c.24-.68.6-1.23,1.07-1.65s1.01-.73,1.62-.92c.61-.19,1.26-.29,1.93-.29.45,0,.92.05,1.42.16.5.1.97.29,1.41.57.44.28.8.67,1.08,1.18.28.51.42,1.18.42,1.99v7.43h-2.13v-1.53h-.09c-.14.28-.35.56-.63.83-.28.27-.64.5-1.08.68-.44.18-.97.27-1.59.27ZM18.06,57.52c.6,0,1.12-.12,1.55-.36s.76-.55.98-.94c.23-.39.34-.8.34-1.24v-1.44c-.08.08-.23.15-.45.21-.22.07-.47.12-.75.17-.28.05-.56.09-.82.12-.27.04-.49.07-.67.09-.42.05-.81.14-1.16.27-.35.13-.62.31-.83.54-.21.24-.31.55-.31.94,0,.54.2.95.6,1.22.4.27.91.41,1.52.41Z"/>
        <path class="cls-75" d="M24.94,63.22v-15.39h2.13v1.81h.18c.13-.23.31-.5.55-.81.24-.31.57-.57.99-.81.42-.23.98-.35,1.68-.35.9,0,1.71.23,2.42.68.71.46,1.27,1.12,1.67,1.97s.61,1.89.61,3.1-.2,2.24-.6,3.11c-.4.86-.96,1.53-1.66,1.99-.7.46-1.51.7-2.41.7-.68,0-1.23-.11-1.67-.34-.43-.23-.77-.5-1.01-.8-.24-.31-.43-.58-.56-.82h-.13v5.94h-2.18ZM27.07,53.43c0,.79.11,1.48.34,2.07.23.59.56,1.05.99,1.39.43.33.96.5,1.59.5s1.2-.17,1.63-.52c.44-.35.77-.82.99-1.42.23-.6.34-1.27.34-2.02s-.11-1.4-.33-1.99c-.22-.59-.55-1.05-.99-1.39s-.99-.51-1.64-.51-1.16.16-1.6.49-.76.78-.99,1.36c-.22.58-.33,1.26-.33,2.04Z"/>
        <path class="cls-75" d="M37.91,63.22c-.33,0-.62-.03-.89-.08-.27-.05-.47-.11-.6-.16l.53-1.78c.4.11.75.15,1.06.14.31-.01.59-.13.83-.35.24-.22.45-.58.64-1.07l.27-.74-4.09-11.33h2.33l2.83,8.68h.12l2.83-8.68h2.34l-4.61,12.68c-.21.58-.49,1.08-.82,1.48s-.72.71-1.18.91c-.46.2-.99.31-1.59.31Z"/>
        <path class="cls-75" d="M46.52,46.04v-1.94h11.55v1.94h-4.65v12.98h-2.24v-12.98h-4.65Z"/>
        <path class="cls-75" d="M62.62,59.27c-.71,0-1.35-.13-1.92-.4-.57-.26-1.03-.65-1.36-1.15-.33-.5-.5-1.12-.5-1.86,0-.63.12-1.15.36-1.56.24-.41.57-.73.98-.97.41-.24.87-.42,1.38-.54.51-.12,1.03-.21,1.56-.28.67-.08,1.21-.14,1.63-.19.42-.05.72-.13.91-.25.19-.12.28-.31.28-.57v-.05c0-.64-.18-1.13-.54-1.48-.36-.35-.89-.52-1.59-.52s-1.31.16-1.73.48c-.42.32-.71.68-.87,1.08l-2.05-.47c.24-.68.6-1.23,1.07-1.65s1.01-.73,1.62-.92c.61-.19,1.26-.29,1.93-.29.45,0,.92.05,1.42.16.5.1.97.29,1.41.57.44.28.8.67,1.08,1.18.28.51.42,1.18.42,1.99v7.43h-2.13v-1.53h-.09c-.14.28-.35.56-.63.83-.28.27-.64.5-1.08.68-.44.18-.97.27-1.59.27ZM63.1,57.52c.6,0,1.12-.12,1.55-.36s.76-.55.98-.94c.23-.39.34-.8.34-1.24v-1.44c-.08.08-.23.15-.45.21-.22.07-.47.12-.75.17-.28.05-.56.09-.82.12-.27.04-.49.07-.67.09-.42.05-.81.14-1.16.27-.35.13-.62.31-.83.54-.21.24-.31.55-.31.94,0,.54.2.95.6,1.22.4.27.91.41,1.52.41Z"/>
        <path class="cls-75" d="M78.36,50.57l-1.97.35c-.08-.25-.21-.49-.39-.72-.18-.23-.42-.42-.72-.56-.3-.15-.68-.22-1.13-.22-.62,0-1.13.14-1.54.41-.41.27-.62.63-.62,1.06,0,.37.14.67.42.9.28.23.72.42,1.34.56l1.78.41c1.03.24,1.8.6,2.3,1.1.5.5.76,1.14.76,1.93,0,.67-.19,1.27-.58,1.79-.39.52-.92.93-1.61,1.23-.69.3-1.48.44-2.39.44-1.25,0-2.28-.27-3.07-.8-.79-.54-1.28-1.3-1.46-2.29l2.11-.32c.13.55.4.96.81,1.24s.94.42,1.59.42c.71,0,1.29-.15,1.71-.45.43-.3.64-.66.64-1.1,0-.35-.13-.64-.39-.88-.26-.24-.66-.42-1.19-.54l-1.89-.42c-1.04-.24-1.82-.62-2.31-1.14-.5-.52-.75-1.18-.75-1.97,0-.66.18-1.24.55-1.73s.88-.88,1.53-1.16c.65-.28,1.4-.42,2.24-.42,1.21,0,2.16.26,2.86.78.69.52,1.15,1.22,1.38,2.09Z"/>
        <path class="cls-75" d="M79.9,59.02v-14.92h2.18v14.92h-2.18ZM81.91,55.23v-2.66s.36,0,.36,0l4.46-4.74h2.61l-5.08,5.39h-.34l-2,2ZM86.97,59.02l-4.01-5.32,1.5-1.52,5.18,6.84h-2.67Z"/>
        <path class="cls-75" d="M98.64,50.57l-1.97.35c-.08-.25-.21-.49-.39-.72-.18-.23-.42-.42-.72-.56-.3-.15-.68-.22-1.13-.22-.62,0-1.13.14-1.54.41-.41.27-.62.63-.62,1.06,0,.37.14.67.42.9.28.23.72.42,1.34.56l1.78.41c1.03.24,1.8.6,2.3,1.1.5.5.76,1.14.76,1.93,0,.67-.19,1.27-.58,1.79-.39.52-.92.93-1.61,1.23-.69.3-1.48.44-2.39.44-1.25,0-2.28-.27-3.07-.8-.79-.54-1.28-1.3-1.46-2.29l2.11-.32c.13.55.4.96.81,1.24s.94.42,1.59.42c.71,0,1.29-.15,1.71-.45.43-.3.64-.66.64-1.1,0-.35-.13-.64-.39-.88-.26-.24-.66-.42-1.19-.54l-1.89-.42c-1.04-.24-1.82-.62-2.31-1.14-.5-.52-.75-1.18-.75-1.97,0-.66.18-1.24.55-1.73s.88-.88,1.53-1.16c.65-.28,1.4-.42,2.24-.42,1.21,0,2.16.26,2.86.78.69.52,1.15,1.22,1.38,2.09Z"/>
      </g>
    </g>
  </g>
</svg>