<?xml version="1.0" encoding="UTF-8"?>
<svg id="Layer_2" data-name="Layer 2" xmlns="http://www.w3.org/2000/svg" xmlns:xlink="http://www.w3.org/1999/xlink" viewBox="0 0 148.24 36.13">
  <defs>
    <style>
      .cls-1 {
        fill: url(#linear-gradient);
      }

      .cls-1, .cls-2, .cls-3, .cls-4, .cls-5, .cls-6, .cls-7, .cls-8, .cls-9, .cls-10, .cls-11, .cls-12, .cls-13, .cls-14, .cls-15 {
        stroke-width: 0px;
      }

      .cls-2 {
        fill: url(#linear-gradient-11);
      }

      .cls-3 {
        fill: url(#linear-gradient-12);
      }

      .cls-4 {
        fill: url(#linear-gradient-13);
      }

      .cls-5 {
        fill: url(#linear-gradient-10);
      }

      .cls-6 {
        fill: url(#linear-gradient-14);
      }

      .cls-7 {
        fill: url(#linear-gradient-4);
      }

      .cls-8 {
        fill: url(#linear-gradient-2);
      }

      .cls-9 {
        fill: url(#linear-gradient-3);
      }

      .cls-10 {
        fill: url(#linear-gradient-8);
      }

      .cls-11 {
        fill: url(#linear-gradient-9);
      }

      .cls-12 {
        fill: url(#linear-gradient-7);
      }

      .cls-13 {
        fill: url(#linear-gradient-5);
      }

      .cls-14 {
        fill: url(#linear-gradient-6);
      }

      .cls-15 {
        fill: #fff;
      }
    </style>
    <linearGradient id="linear-gradient" x1="-5.43" y1="12.17" x2="13.53" y2="8.39" gradientUnits="userSpaceOnUse">
      <stop offset="0" stop-color="#74c2ed"/>
      <stop offset="1" stop-color="#4b73b8"/>
    </linearGradient>
    <linearGradient id="linear-gradient-2" x1="9.08" y1="28" x2="17.78" y2="28" xlink:href="#linear-gradient"/>
    <linearGradient id="linear-gradient-3" x1="10.59" y1="33.26" x2="15.92" y2="33.26" xlink:href="#linear-gradient"/>
    <linearGradient id="linear-gradient-4" x1="1.91" y1="8.94" x2="34.66" y2="8.94" xlink:href="#linear-gradient"/>
    <linearGradient id="linear-gradient-5" x1="11.67" y1="28.53" x2="19.68" y2="28.53" xlink:href="#linear-gradient"/>
    <linearGradient id="linear-gradient-6" x1="12.5" y1="33.26" x2="17.83" y2="33.26" xlink:href="#linear-gradient"/>
    <linearGradient id="linear-gradient-7" x1="7.88" y1="19.34" x2="31.51" y2="19.34" xlink:href="#linear-gradient"/>
    <linearGradient id="linear-gradient-8" x1="4.7" y1="36.81" x2="29.67" y2="21.24" xlink:href="#linear-gradient"/>
    <linearGradient id="linear-gradient-9" x1="10.66" y1="8.79" x2="11.92" y2="8.01" xlink:href="#linear-gradient"/>
    <linearGradient id="linear-gradient-10" x1="1.97" y1="32.43" x2="26.94" y2="16.86" xlink:href="#linear-gradient"/>
    <linearGradient id="linear-gradient-11" x1="4.7" y1="36.81" x2="29.67" y2="21.24" xlink:href="#linear-gradient"/>
    <linearGradient id="linear-gradient-12" x1="-141.87" y1="31.03" x2="168.88" y2="31.03" xlink:href="#linear-gradient"/>
    <linearGradient id="linear-gradient-13" x1="9.53" y1="22.46" x2="38.71" y2="22.46" xlink:href="#linear-gradient"/>
    <linearGradient id="linear-gradient-14" x1="22.97" y1="10.57" x2="24.79" y2="26.97" xlink:href="#linear-gradient"/>
  </defs>
  <g id="Layer_1-2" data-name="Layer 1">
    <g>
      <g>
        <g>
          <path class="cls-1" d="M23.87,10.19c-1.32-.51-2.7-.98-4.12-1.45h-.02c-.55-.15-1.02-.46-1.43-.85-1.57-1.49-2.31-4.21-3.46-3.92-.42.12-.9.68-1.48,1.02-.42.24-.96.48-1.44.42-.48-.11.02-.49.31-.78.23-.21.51-.47.77-.78.3-.36.58-.8.72-1.32.24-.76.26-2.79-.86-2.5-.73.21-1,1.11-1.74,1.14-.18,0-.37.02-.56.03-.13.01-.26.02-.4.04-.3.03-.62.08-.94.13-.1.02-.19.03-.29.05-.31.06-.62.12-.93.19-.1.02-.19.05-.29.07-.41.1-.84.21-1.25.35-.21.06-.42.13-.63.2-.2.07-.4.14-.59.22-.11.04-.22.09-.33.13-.09.04-.19.08-.28.12-.11.05-.22.09-.32.14-.1.04-.2.09-.29.14-.1.05-.19.1-.29.14h-.02c-.09.06-.17.1-.26.15-.56.3-1.07.64-1.53,1h0C.52,5.38-.29,6.8.1,8.49c.13.54.41,1.15.86,1.53.63.55,1.49.66,2.3.7.39.02.79-.02,1.17-.08,2.35-.82,3.16,1.4,3.63,4.15.05.32.1.65.15.98h0c.05.37.1.74.15,1.11.04.33.09.67.13.99,1.76-1.01,3.64-1.84,5.44-2.76.25-.13.5-.26.76-.39,2.22-1.14,4.45-2.28,6.73-3.33.85-.39,1.71-.79,2.59-1.17-.04-.02-.08-.03-.12-.05ZM7.05,4.77h-.03c-.52,0-.84-.21-.75-.52,0-.01.01-.03.02-.05,0-.02.01-.03.02-.05.01-.03.04-.07.06-.1s.06-.07.09-.11c.04-.04.08-.07.12-.11.3-.23.71-.31,1.11-.28.46.02.91.25.47.76-.03.04-.07.08-.11.11-.03.03-.06.05-.09.08-.16.11-.35.19-.54.23-.13.03-.26.04-.38.04Z"/>
          <g>
            <g id="mBmY4O">
              <path class="cls-8" d="M15.79,31.17c-.24-.77-.37-1.58-.37-2.43,0-2.23.9-4.25,2.36-5.71-.82-.37-1.74-.57-2.7-.57-2.17,0-4.79-2.04-6-.43.66.64-.32.83,2.89,5.26,1.13.88,1.28,2.3,1.28,3.85,0,.09,0,.17,0,.26-.05.95-.38,1.82-.9,2.55.77-.2,2.32.65,3.15.65.91,0,.63-2.37.3-3.42Z"/>
            </g>
            <path class="cls-9" d="M10.59,34.6c0-1.47,1.19-2.66,2.66-2.66s2.66,1.19,2.66,2.66h-5.33Z"/>
          </g>
          <path class="cls-7" d="M19.75,8.75h-.02c-2.65-.71-3.43-5.13-4.89-4.77-.42.12-.9.69-1.48,1.02-.42.24-.96.48-1.44.42-.48-.11.02-.5.31-.78.23-.21.51-.47.77-.78.3-.36.58-.8.73-1.32.24-.76.26-2.79-.86-2.5-.73.2-1,1.11-1.74,1.13-2.59.1-6.78,1.15-9.21,3.1.69-.22,1.44-.35,2.2-.35s1.48.12,2.16.33c.04-.12.14-.26.32-.41.3-.23.71-.31,1.11-.28.46.02.91.25.47.75-.18.21-.46.35-.75.42,2.3,1.2,3.86,3.6,3.86,6.37,0,2.38-1.16,4.49-2.94,5.79.04.33.09.67.13.99,1.76-1.01,3.64-1.84,5.44-2.76,2.48-1.27,4.95-2.55,7.48-3.71.85-.39,1.71-.79,2.59-1.17-1.35-.53-2.78-1.01-4.24-1.49Z"/>
          <g>
            <g id="mBmY4O-2" data-name="mBmY4O">
              <path class="cls-13" d="M17.7,31.17c-.24-.77-.37-1.58-.37-2.43,0-2.23.9-4.25,2.36-5.71-.82-.37-1.74-.57-2.7-.57-2.17,0-4.09,1.04-5.31,2.64.66.64,1.78,1.35,2.19,2.19,1.13.88,1.28,2.3,1.28,3.85,0,.09,0,.17,0,.26-.05.95-.38,1.82-.9,2.55.77-.2,2.32.65,3.15.65.91,0,.63-2.37.3-3.42Z"/>
            </g>
            <path class="cls-14" d="M12.5,34.6c0-1.47,1.19-2.66,2.66-2.66s2.66,1.19,2.66,2.66h-5.33Z"/>
          </g>
          <path class="cls-12" d="M24.83,10.42c-1.33-.36-2.74-.55-4.18-.55-5.2,0-9.82,2.47-12.75,6.3-.01.21-.02.41-.02.62,0,6.64,5.38,12.02,12.02,12.02,5.56,0,10.23-3.77,11.61-8.89-.97-3.94-3.4-7.31-6.68-9.5Z"/>
          <g>
            <path class="cls-10" d="M36.71,25.92s0,.05,0,.07c-.02,4.53-3.6,8.28-8.13,8.49-.21,0-.42.01-.63.01h-.07c2.55-2.84,4.1-6.6,4.1-10.72,0-5.57-2.84-10.48-7.15-13.36,6.84,1.84,11.87,8.09,11.87,15.51Z"/>
            <polygon class="cls-11" points="11.29 8.4 11.29 8.4 11.29 8.4 11.29 8.4"/>
            <path class="cls-5" d="M31.98,23.78c0,1.35-.17,2.66-.48,3.91-.64,2.57-1.91,4.9-3.62,6.81-.16,0-.31,0-.47,0-.14,0-.29-.01-.43-.02-.09,0-.18-.01-.27-.02-.1,0-.19-.01-.29-.03-.02,0-.05,0-.07,0-.24-.03-.48-.06-.72-.1-.45-.07-.9-.17-1.34-.28-.14-.04-.29-.08-.43-.12-.14-.04-.27-.08-.4-.12-.16-.05-.33-.11-.49-.17-.12-.05-.24-.09-.35-.14-.03-.01-.06-.02-.09-.04-.1-.04-.21-.09-.31-.13-.25-.11-.49-.22-.73-.34-.05-.02-.1-.05-.15-.07-.07-.04-.14-.07-.21-.11h0s-.06-.03-.09-.05c-1.36-.75-2.59-1.71-3.63-2.84-.5-.54-.96-1.12-1.37-1.73-.18-.26-.34-.53-.5-.8-.74-1.28-1.3-2.68-1.61-4.17-.07-.31-.13-.62-.17-.94-.1-.68-.15-1.38-.15-2.08,0-1.93.38-3.76,1.07-5.44.71-1.73,1.75-3.28,3.04-4.6h0c-.12.02-.25.04-.37.07-.26.05-.51.11-.77.18-.08.02-.16.04-.23.06-.12.03-.24.07-.36.11-.27.08-.53.17-.8.27-.12.04-.23.08-.35.13-.12.04-.23.09-.35.14-.22.09-.44.19-.66.29-.23.11-.45.22-.68.34-.11.06-.21.11-.32.17-.43.24-.85.5-1.25.77-.1.07-.2.14-.3.21-.09.07-.18.13-.27.2h0s-.01.01-.02.02c-.41.31-.8.63-1.18.98-.07.07-.14.13-.22.2-.24.23-.48.47-.71.71-.1.11-.21.22-.3.34-.07.08-.14.15-.2.23-.06.07-.12.15-.19.23h0s-.05.07-.08.1c-.08.09-.15.19-.23.29.02-.46.07-.92.15-1.37.37-2.28,1.4-4.34,2.87-5.99.12-.14.25-.27.38-.4,1.47-.44,3.02-.68,4.63-.68.81,0,1.6.06,2.37.18.58.09,1.15.2,1.71.35,1.74.45,3.37,1.2,4.83,2.17.51.34,1,.71,1.47,1.11.08.07.16.14.24.21.13.11.26.23.39.35.06.06.13.12.19.18.09.08.18.17.26.26.07.06.13.13.19.2.13.13.25.27.37.41.06.07.12.14.18.21.15.17.3.35.44.53.1.12.19.25.28.38.06.08.12.17.18.25.29.41.57.84.82,1.29.1.18.2.36.3.54.31.59.59,1.21.82,1.84.04.09.07.19.1.28.04.11.07.22.11.33.04.13.08.26.12.39.04.13.08.26.11.39.03.09.05.18.07.27,0,.03.01.05.02.08.3,1.23.47,2.53.47,3.86Z"/>
            <path class="cls-2" d="M36.71,25.92s0,.05,0,.07c-.02,4.53-3.6,8.28-8.13,8.49-.21,0-.42.01-.63.01h-.07c2.55-2.84,4.1-6.6,4.1-10.72,0-5.57-2.84-10.48-7.15-13.36,6.84,1.84,11.87,8.09,11.87,15.51Z"/>
          </g>
          <path class="cls-3" d="M35.93,29.5c-.04.09-.08.18-.13.26-.04.08-.08.17-.13.25-.05.09-.1.18-.15.26-.06.11-.13.21-.2.32-.08.12-.16.24-.24.35-.07.1-.14.19-.21.28-.01.01-.02.03-.03.04-.08.1-.16.2-.25.3-.07.09-.15.17-.23.25-.1.11-.21.22-.32.32-.09.08-.17.16-.26.24-.23.2-.46.38-.71.56-.09.07-.19.13-.28.19-.1.06-.19.12-.29.18-.03.02-.06.04-.09.05-.1.06-.2.11-.3.16-.01,0-.02.01-.03.01-.11.06-.23.12-.34.17-.09.04-.18.08-.28.12-.07.03-.14.06-.21.09-.35.14-.71.25-1.08.34-.12.03-.24.05-.36.08-.11.02-.23.04-.34.06-.04,0-.08.01-.12.02-.1.01-.2.03-.3.04-.04,0-.08.01-.11.01-.12.01-.25.02-.37.03-.06,0-.12,0-.18,0-.15,0-.3,0-.45,0h-.07c-.16,0-.31,0-.47,0-.14,0-.29-.01-.43-.02-.09,0-.18-.01-.27-.02-.1,0-.19-.01-.29-.03-.02,0-.05,0-.07,0-.24-.03-.48-.06-.72-.1-.45-.07-.9-.17-1.34-.28-.14-.04-.29-.08-.43-.12-.14-.04-.27-.08-.4-.12-.16-.05-.33-.11-.49-.17-.12-.05-.24-.09-.35-.14-.03-.01-.06-.03-.09-.04-.1-.04-.21-.08-.31-.13-.25-.11-.49-.22-.73-.34-.05-.02-.1-.05-.15-.07-.07-.04-.14-.07-.21-.11-.03-.02-.06-.03-.09-.05.03-.05.06-.1.09-.15.4-.68.88-1.31,1.42-1.87,1.86-1.95,4.49-3.16,7.4-3.16.53,0,1.05.04,1.56.12.36.05.71.13,1.06.22,1.23.32,2.37.87,3.37,1.59Z"/>
          <path class="cls-4" d="M24.83,10.42c5.04,2.88,8.35,7.79,8.35,13.36,0,4.12-1.81,7.88-4.79,10.72h0c.27,0,.55,0,.82-.01,5.29-.2,9.48-3.96,9.5-8.49,0-.02,0-.05,0-.07,0-7.42-5.88-13.66-13.88-15.51Z"/>
        </g>
        <path class="cls-6" d="M28.61,22.51c-2.26,1.05-4.17,2.9-5.25,5.36-.07.16-.14.32-.2.48-.3.78-.5,1.57-.61,2.36-.13.91-.13,1.83-.03,2.72h0c-.1-.04-.21-.08-.31-.13-.25-.11-.49-.22-.73-.34-.05-.02-.1-.05-.15-.07-.07-.04-.14-.07-.21-.11v-.2c.01-1.32.27-2.66.8-3.95.04-.08.07-.17.11-.25,1.29-2.93,3.74-4.98,6.57-5.87Z"/>
      </g>
      <g>
        <path class="cls-15" d="M62.26,21.87h-2.27c-.09-.49-.25-.91-.49-1.28-.24-.37-.53-.68-.87-.94s-.73-.45-1.15-.58c-.43-.13-.88-.2-1.35-.2-.86,0-1.63.22-2.31.65-.68.43-1.21,1.07-1.6,1.9-.39.83-.59,1.85-.59,3.06s.2,2.24.59,3.07c.39.84.93,1.47,1.61,1.89.68.43,1.44.64,2.29.64.47,0,.92-.06,1.34-.19.42-.13.81-.32,1.15-.57.34-.25.64-.56.88-.93.24-.37.41-.79.5-1.26h2.27c-.12.74-.36,1.41-.7,2.03s-.79,1.14-1.33,1.59-1.16.79-1.85,1.03-1.45.36-2.27.36c-1.29,0-2.44-.31-3.45-.92-1.01-.61-1.81-1.49-2.39-2.64-.58-1.15-.87-2.51-.87-4.1s.29-2.96.87-4.11c.58-1.14,1.38-2.02,2.39-2.64,1.01-.61,2.16-.92,3.45-.92.79,0,1.53.11,2.22.34s1.31.56,1.85.99,1,.96,1.36,1.59.6,1.34.73,2.14Z"/>
        <path class="cls-15" d="M66.97,32.19c-.71,0-1.35-.13-1.92-.4-.57-.26-1.03-.65-1.36-1.15-.33-.5-.5-1.12-.5-1.86,0-.63.12-1.15.36-1.56.24-.41.57-.73.98-.97.41-.24.87-.42,1.38-.54.51-.12,1.03-.21,1.56-.28.67-.08,1.21-.14,1.63-.19.42-.05.72-.13.91-.25.19-.12.28-.31.28-.57v-.05c0-.64-.18-1.13-.54-1.48s-.89-.52-1.59-.52-1.31.16-1.73.48c-.42.32-.71.68-.87,1.08l-2.05-.47c.24-.68.6-1.23,1.07-1.65s1.01-.73,1.62-.92c.61-.19,1.26-.29,1.93-.29.45,0,.92.05,1.42.16.5.1.97.29,1.41.57.44.28.8.67,1.08,1.18.28.51.42,1.18.42,1.99v7.43h-2.13v-1.53h-.09c-.14.28-.35.56-.63.83-.28.27-.64.5-1.09.68s-.97.27-1.59.27ZM67.44,30.44c.6,0,1.12-.12,1.55-.36.43-.24.76-.55.98-.94.23-.39.34-.8.34-1.24v-1.44c-.08.08-.23.15-.45.21-.22.07-.47.12-.75.17-.28.05-.56.09-.82.12s-.49.07-.67.09c-.42.05-.81.14-1.15.27-.35.13-.62.31-.83.54-.21.24-.31.55-.31.94,0,.54.2.95.6,1.22.4.27.91.41,1.52.41Z"/>
        <path class="cls-15" d="M74.33,36.13v-15.39h2.13v1.81h.18c.13-.23.31-.5.55-.81.24-.31.57-.57.99-.81.42-.23.98-.35,1.68-.35.9,0,1.71.23,2.42.68.71.46,1.27,1.12,1.67,1.97s.61,1.89.61,3.1-.2,2.24-.6,3.11c-.4.86-.96,1.53-1.66,1.99-.7.46-1.51.7-2.41.7-.68,0-1.23-.11-1.66-.34-.43-.23-.77-.5-1.01-.8-.24-.31-.43-.58-.56-.82h-.13v5.94h-2.18ZM76.46,26.34c0,.79.11,1.48.34,2.07.23.59.56,1.05.99,1.39.43.33.96.5,1.59.5s1.19-.17,1.63-.52c.44-.35.77-.82.99-1.42.23-.6.34-1.27.34-2.02s-.11-1.4-.33-1.99c-.22-.59-.55-1.05-.99-1.39-.44-.34-.99-.51-1.64-.51s-1.16.16-1.6.49c-.44.33-.76.78-.99,1.36-.22.58-.33,1.26-.33,2.04Z"/>
        <path class="cls-15" d="M87.3,36.13c-.33,0-.62-.03-.89-.08-.27-.05-.47-.11-.6-.16l.52-1.78c.4.11.75.15,1.06.14.31-.01.59-.13.83-.35.24-.22.45-.58.64-1.07l.27-.74-4.09-11.33h2.33l2.83,8.68h.12l2.83-8.68h2.34l-4.61,12.68c-.21.58-.49,1.08-.82,1.48-.33.41-.72.71-1.18.91-.46.2-.99.31-1.59.31Z"/>
        <path class="cls-15" d="M95.91,18.96v-1.94h11.55v1.94h-4.65v12.98h-2.24v-12.98h-4.65Z"/>
        <path class="cls-15" d="M112.01,32.19c-.71,0-1.35-.13-1.92-.4-.57-.26-1.03-.65-1.36-1.15-.33-.5-.5-1.12-.5-1.86,0-.63.12-1.15.36-1.56.24-.41.57-.73.98-.97.41-.24.87-.42,1.38-.54.51-.12,1.03-.21,1.56-.28.67-.08,1.21-.14,1.63-.19.42-.05.72-.13.91-.25.19-.12.28-.31.28-.57v-.05c0-.64-.18-1.13-.54-1.48s-.89-.52-1.59-.52-1.31.16-1.73.48c-.42.32-.71.68-.87,1.08l-2.05-.47c.24-.68.6-1.23,1.07-1.65s1.01-.73,1.62-.92c.61-.19,1.26-.29,1.93-.29.45,0,.92.05,1.42.16.5.1.97.29,1.41.57.44.28.8.67,1.08,1.18.28.51.42,1.18.42,1.99v7.43h-2.13v-1.53h-.09c-.14.28-.35.56-.63.83-.28.27-.64.5-1.09.68s-.97.27-1.59.27ZM112.49,30.44c.6,0,1.12-.12,1.55-.36.43-.24.76-.55.98-.94.23-.39.34-.8.34-1.24v-1.44c-.08.08-.23.15-.45.21-.22.07-.47.12-.75.17-.28.05-.56.09-.82.12s-.49.07-.67.09c-.42.05-.81.14-1.15.27-.35.13-.62.31-.83.54-.21.24-.31.55-.31.94,0,.54.2.95.6,1.22.4.27.91.41,1.52.41Z"/>
        <path class="cls-15" d="M127.75,23.48l-1.97.35c-.08-.25-.21-.49-.39-.72-.18-.23-.42-.42-.72-.56-.3-.15-.68-.22-1.13-.22-.62,0-1.13.14-1.54.41-.41.27-.62.63-.62,1.06,0,.37.14.67.42.9s.72.42,1.34.56l1.78.41c1.03.24,1.8.6,2.3,1.1.51.5.76,1.14.76,1.93,0,.67-.19,1.27-.58,1.79-.39.52-.92.93-1.61,1.23-.69.3-1.48.44-2.39.44-1.25,0-2.28-.27-3.07-.8-.79-.54-1.28-1.3-1.46-2.29l2.11-.32c.13.55.4.96.81,1.24.41.28.94.42,1.6.42.71,0,1.28-.15,1.71-.45s.64-.66.64-1.1c0-.35-.13-.64-.39-.88-.26-.24-.66-.42-1.19-.54l-1.89-.42c-1.04-.24-1.81-.62-2.31-1.14-.5-.52-.75-1.18-.75-1.97,0-.66.18-1.24.55-1.73s.88-.88,1.53-1.16,1.4-.42,2.24-.42c1.21,0,2.16.26,2.86.78.69.52,1.15,1.22,1.38,2.09Z"/>
        <path class="cls-15" d="M129.29,31.94v-14.92h2.18v14.92h-2.18ZM131.3,28.14v-2.66s.36,0,.36,0l4.46-4.74h2.61l-5.08,5.39h-.34l-2,2ZM136.36,31.94l-4.01-5.32,1.5-1.52,5.18,6.84h-2.67Z"/>
        <path class="cls-15" d="M148.03,23.48l-1.97.35c-.08-.25-.21-.49-.39-.72-.18-.23-.42-.42-.72-.56-.3-.15-.68-.22-1.13-.22-.62,0-1.13.14-1.54.41-.41.27-.62.63-.62,1.06,0,.37.14.67.42.9s.72.42,1.34.56l1.78.41c1.03.24,1.8.6,2.3,1.1.51.5.76,1.14.76,1.93,0,.67-.19,1.27-.58,1.79-.39.52-.92.93-1.61,1.23-.69.3-1.48.44-2.39.44-1.25,0-2.28-.27-3.07-.8-.79-.54-1.28-1.3-1.46-2.29l2.11-.32c.13.55.4.96.81,1.24.41.28.94.42,1.6.42.71,0,1.28-.15,1.71-.45s.64-.66.64-1.1c0-.35-.13-.64-.39-.88-.26-.24-.66-.42-1.19-.54l-1.89-.42c-1.04-.24-1.81-.62-2.31-1.14-.5-.52-.75-1.18-.75-1.97,0-.66.18-1.24.55-1.73s.88-.88,1.53-1.16,1.4-.42,2.24-.42c1.21,0,2.16.26,2.86.78.69.52,1.15,1.22,1.38,2.09Z"/>
      </g>
    </g>
  </g>
</svg>