<?xml version="1.0" encoding="UTF-8"?>
<svg id="Layer_2" data-name="Layer 2" xmlns="http://www.w3.org/2000/svg" xmlns:xlink="http://www.w3.org/1999/xlink" viewBox="0 0 98.85 63.22">
  <defs>
    <style>
      .cls-1 {
        clip-path: url(#clippath);
      }

      .cls-2 {
        fill: none;
      }

      .cls-2, .cls-3, .cls-4, .cls-5, .cls-6, .cls-7, .cls-8, .cls-9, .cls-10, .cls-11, .cls-12, .cls-13, .cls-14, .cls-15, .cls-16, .cls-17, .cls-18, .cls-19, .cls-20, .cls-21, .cls-22, .cls-23, .cls-24, .cls-25, .cls-26, .cls-27, .cls-28, .cls-29, .cls-30, .cls-31, .cls-32, .cls-33, .cls-34, .cls-35, .cls-36, .cls-37, .cls-38, .cls-39, .cls-40, .cls-41, .cls-42, .cls-43, .cls-44, .cls-45, .cls-46, .cls-47, .cls-48, .cls-49, .cls-50, .cls-51, .cls-52, .cls-53, .cls-54, .cls-55, .cls-56, .cls-57, .cls-58, .cls-59, .cls-60, .cls-61, .cls-62, .cls-63, .cls-64, .cls-65, .cls-66, .cls-67, .cls-68, .cls-69, .cls-70, .cls-71, .cls-72, .cls-73, .cls-74, .cls-75, .cls-76, .cls-77, .cls-78, .cls-79, .cls-80, .cls-81, .cls-82 {
        stroke-width: 0px;
      }

      .cls-83 {
        clip-path: url(#clippath-1);
      }

      .cls-84 {
        clip-path: url(#clippath-4);
      }

      .cls-85 {
        clip-path: url(#clippath-3);
      }

      .cls-86 {
        clip-path: url(#clippath-2);
      }

      .cls-87 {
        clip-path: url(#clippath-7);
      }

      .cls-88 {
        clip-path: url(#clippath-8);
      }

      .cls-89 {
        clip-path: url(#clippath-6);
      }

      .cls-90 {
        clip-path: url(#clippath-5);
      }

      .cls-91 {
        clip-path: url(#clippath-9);
      }

      .cls-92 {
        clip-path: url(#clippath-13);
      }

      .cls-93 {
        clip-path: url(#clippath-12);
      }

      .cls-94 {
        clip-path: url(#clippath-10);
      }

      .cls-95 {
        clip-path: url(#clippath-11);
      }

      .cls-3 {
        fill: #4b73b8;
      }

      .cls-4 {
        fill: #5e97d0;
      }

      .cls-5 {
        fill: #619ed5;
      }

      .cls-6 {
        fill: #4c74b9;
      }

      .cls-7 {
        fill: #4c75b9;
      }

      .cls-8 {
        fill: #5e98d1;
      }

      .cls-9 {
        fill: #5c94ce;
      }

      .cls-10 {
        fill: #5d96d0;
      }

      .cls-11 {
        fill: #5d95cf;
      }

      .cls-12 {
        fill: #5f99d2;
      }

      .cls-13 {
        fill: #619dd4;
      }

      .cls-14 {
        fill: #609bd3;
      }

      .cls-15 {
        fill: #73c1ec;
      }

      .cls-16 {
        fill: #73c0ec;
      }

      .cls-17 {
        fill: #74c2ed;
      }

      .cls-18 {
        fill: #609cd3;
      }

      .cls-19 {
        fill: #5c93ce;
      }

      .cls-20 {
        fill: #5280c1;
      }

      .cls-21 {
        fill: #71bce9;
      }

      .cls-22 {
        fill: #4d76ba;
      }

      .cls-23 {
        fill: #4d77bb;
      }

      .cls-24 {
        fill: #507dbf;
      }

      .cls-25 {
        fill: #4f7bbd;
      }

      .cls-26 {
        fill: #4f7abd;
      }

      .cls-27 {
        fill: #517ebf;
      }

      .cls-28 {
        fill: #517fc0;
      }

      .cls-29 {
        fill: #4e79bc;
      }

      .cls-30 {
        fill: #4e78bb;
      }

      .cls-31 {
        fill: #507cbe;
      }

      .cls-32 {
        fill: #5b91cc;
      }

      .cls-33 {
        fill: #5586c5;
      }

      .cls-34 {
        fill: #588cc9;
      }

      .cls-35 {
        fill: #588bc8;
      }

      .cls-36 {
        fill: #5a90cc;
      }

      .cls-37 {
        fill: #5b92cd;
      }

      .cls-38 {
        fill: #5a8fcb;
      }

      .cls-39 {
        fill: #62a0d6;
      }

      .cls-40 {
        fill: #629fd5;
      }

      .cls-41 {
        fill: #63a2d7;
      }

      .cls-42 {
        fill: #63a1d7;
      }

      .cls-43 {
        fill: #5485c4;
      }

      .cls-44 {
        fill: #5484c4;
      }

      .cls-45 {
        fill: #6cb3e3;
      }

      .cls-46 {
        fill: #6cb2e2;
      }

      .cls-47 {
        fill: #6db5e4;
      }

      .cls-48 {
        fill: #6db4e3;
      }

      .cls-49 {
        fill: #5383c3;
      }

      .cls-50 {
        fill: #5382c2;
      }

      .cls-51 {
        fill: #5281c2;
      }

      .cls-52 {
        fill: #70bbe8;
      }

      .cls-53 {
        fill: #70bae8;
      }

      .cls-54 {
        fill: #6eb6e5;
      }

      .cls-55 {
        fill: #6eb7e6;
      }

      .cls-56 {
        fill: #6fb9e7;
      }

      .cls-57 {
        fill: #6fb8e6;
      }

      .cls-58 {
        fill: #5789c7;
      }

      .cls-59 {
        fill: #578ac8;
      }

      .cls-60 {
        fill: #598dca;
      }

      .cls-61 {
        fill: #598eca;
      }

      .cls-62 {
        fill: #5688c6;
      }

      .cls-63 {
        fill: #5687c6;
      }

      .cls-64 {
        fill: #65a6da;
      }

      .cls-65 {
        fill: #65a5d9;
      }

      .cls-66 {
        fill: #6bb1e1;
      }

      .cls-67 {
        fill: #6bb0e1;
      }

      .cls-68 {
        fill: #6aafe0;
      }

      .cls-69 {
        fill: #72beea;
      }

      .cls-70 {
        fill: #72bfeb;
      }

      .cls-71 {
        fill: #64a3d8;
      }

      .cls-72 {
        fill: #71bdea;
      }

      .cls-73 {
        fill: #67a9dc;
      }

      .cls-74 {
        fill: #64a4d9;
      }

      .cls-75 {
        fill: #fff;
      }

      .cls-76 {
        fill: #69addf;
      }

      .cls-77 {
        fill: #67aadd;
      }

      .cls-78 {
        fill: #68acde;
      }

      .cls-79 {
        fill: #68abdd;
      }

      .cls-80 {
        fill: #66a8db;
      }

      .cls-81 {
        fill: #66a7db;
      }

      .cls-82 {
        fill: #69aedf;
      }
    </style>
    <clipPath id="clippath">
      <path class="cls-2" d="M53.82,10.45c-1.32-.51-2.7-.98-4.12-1.45h-.02c-.55-.15-1.02-.46-1.43-.85-1.57-1.49-2.31-4.21-3.46-3.92-.42.12-.9.68-1.48,1.02-.42.24-.96.48-1.44.42-.48-.11.02-.49.31-.78.23-.21.51-.47.77-.78.3-.36.58-.8.72-1.32C43.92,2.03,43.94,0,42.82.29c-.73.21-1,1.11-1.74,1.14-.18,0-.37.02-.56.03-.13.01-.26.02-.4.04-.3.03-.62.08-.94.13-.1.02-.19.03-.29.05-.31.06-.62.12-.93.19-.1.02-.19.05-.29.07-.41.1-.84.21-1.25.35-.21.06-.42.13-.63.2-.2.07-.4.14-.59.22-.11.04-.22.09-.33.13-.09.04-.19.08-.28.12-.11.05-.22.09-.32.14-.1.04-.2.09-.29.14-.1.05-.19.1-.29.14h-.02c-.09.06-.17.1-.26.15-.56.3-1.07.64-1.53,1h0c-1.39,1.12-2.2,2.53-1.81,4.23.13.54.41,1.15.86,1.53.63.55,1.49.66,2.3.7.39.02.79-.02,1.17-.08,2.35-.82,3.16,1.4,3.63,4.15.05.32.1.65.15.98h0c.05.37.1.74.15,1.11.04.33.09.67.13.99,1.76-1.01,3.64-1.84,5.44-2.76.25-.13.5-.26.76-.39,2.22-1.14,4.45-2.28,6.73-3.33.85-.39,1.71-.79,2.59-1.17-.04-.02-.08-.03-.12-.05ZM37,5.03h-.03c-.52,0-.84-.21-.75-.52,0-.01.01-.03.02-.05,0-.02.01-.03.02-.05.01-.03.04-.07.06-.1s.06-.07.09-.11c.04-.04.08-.07.12-.11.3-.23.71-.31,1.11-.28.46.02.91.25.47.76-.03.04-.07.08-.11.11-.03.03-.06.05-.09.08-.16.11-.35.19-.54.23-.13.03-.26.04-.38.04Z"/>
    </clipPath>
    <clipPath id="clippath-1">
      <path class="cls-2" d="M45.75,31.43c-.24-.77-.37-1.58-.37-2.43,0-2.23.9-4.25,2.36-5.71-.82-.37-1.74-.57-2.7-.57-2.17,0-4.79-2.04-6-.43.66.64-.32.83,2.89,5.26,1.13.88,1.28,2.3,1.28,3.85,0,.09,0,.17,0,.26-.05.95-.38,1.82-.9,2.55.77-.2,2.32.65,3.15.65.91,0,.63-2.37.3-3.42Z"/>
    </clipPath>
    <clipPath id="clippath-2">
      <path class="cls-2" d="M40.55,34.86c0-1.47,1.19-2.66,2.66-2.66s2.66,1.19,2.66,2.66h-5.33Z"/>
    </clipPath>
    <clipPath id="clippath-3">
      <path class="cls-2" d="M49.7,9.01h-.02c-2.65-.71-3.43-5.13-4.89-4.77-.42.12-.9.69-1.48,1.02-.42.24-.96.48-1.44.42-.48-.11.02-.5.31-.78.23-.21.51-.47.77-.78.3-.36.58-.8.73-1.32.24-.76.26-2.79-.86-2.5-.73.2-1,1.11-1.74,1.13-2.59.1-6.78,1.15-9.21,3.1.69-.22,1.44-.35,2.2-.35s1.48.12,2.16.33c.04-.12.14-.26.32-.41.3-.23.71-.31,1.11-.28.46.02.91.25.47.75-.18.21-.46.35-.75.42,2.3,1.2,3.86,3.6,3.86,6.37,0,2.38-1.16,4.49-2.94,5.79.04.33.09.67.13.99,1.76-1.01,3.64-1.84,5.44-2.76,2.48-1.27,4.95-2.55,7.48-3.71.85-.39,1.71-.79,2.59-1.17-1.35-.53-2.78-1.01-4.24-1.49Z"/>
    </clipPath>
    <clipPath id="clippath-4">
      <path class="cls-2" d="M47.65,31.43c-.24-.77-.37-1.58-.37-2.43,0-2.23.9-4.25,2.36-5.71-.82-.37-1.74-.57-2.7-.57-2.17,0-4.09,1.04-5.31,2.64.66.64,1.78,1.35,2.19,2.19,1.13.88,1.28,2.3,1.28,3.85,0,.09,0,.17,0,.26-.05.95-.38,1.82-.9,2.55.77-.2,2.32.65,3.15.65.91,0,.63-2.37.3-3.42Z"/>
    </clipPath>
    <clipPath id="clippath-5">
      <path class="cls-2" d="M42.45,34.86c0-1.47,1.19-2.66,2.66-2.66s2.66,1.19,2.66,2.66h-5.33Z"/>
    </clipPath>
    <clipPath id="clippath-6">
      <path class="cls-2" d="M54.79,10.68c-1.33-.36-2.74-.55-4.18-.55-5.2,0-9.82,2.47-12.75,6.3-.01.21-.02.41-.02.62,0,6.64,5.38,12.02,12.02,12.02,5.56,0,10.23-3.77,11.61-8.89-.97-3.94-3.4-7.31-6.68-9.5Z"/>
    </clipPath>
    <clipPath id="clippath-7">
      <path class="cls-2" d="M66.66,26.18s0,.05,0,.07c-.02,4.53-3.6,8.28-8.13,8.49-.21,0-.42.01-.63.01h-.07c2.55-2.84,4.1-6.6,4.1-10.72,0-5.57-2.84-10.48-7.15-13.36,6.84,1.84,11.87,8.09,11.87,15.51Z"/>
    </clipPath>
    <clipPath id="clippath-8">
      <polygon class="cls-2" points="41.25 8.66 41.25 8.66 41.25 8.66 41.25 8.66"/>
    </clipPath>
    <clipPath id="clippath-9">
      <path class="cls-2" d="M61.94,24.04c0,1.35-.17,2.66-.48,3.91-.64,2.57-1.91,4.9-3.62,6.81-.16,0-.31,0-.47,0-.14,0-.29-.01-.43-.02-.09,0-.18-.01-.27-.02-.1,0-.19-.01-.29-.03-.02,0-.05,0-.07,0-.24-.03-.48-.06-.72-.1-.45-.07-.9-.17-1.34-.28-.14-.04-.29-.08-.43-.12-.14-.04-.27-.08-.4-.12-.16-.05-.33-.11-.49-.17-.12-.05-.24-.09-.35-.14-.03-.01-.06-.02-.09-.04-.1-.04-.21-.09-.31-.13-.25-.11-.49-.22-.73-.34-.05-.02-.1-.05-.15-.07-.07-.04-.14-.07-.21-.11h0s-.06-.03-.09-.05c-1.36-.75-2.59-1.71-3.63-2.84-.5-.54-.96-1.12-1.37-1.73-.18-.26-.34-.53-.5-.8-.74-1.28-1.3-2.68-1.61-4.17-.07-.31-.13-.62-.17-.94-.1-.68-.15-1.38-.15-2.08,0-1.93.38-3.76,1.07-5.44.71-1.73,1.75-3.28,3.04-4.6h0c-.12.02-.25.04-.37.07-.26.05-.51.11-.77.18-.08.02-.16.04-.23.06-.12.03-.24.07-.36.11-.27.08-.53.17-.8.27-.12.04-.23.08-.35.13-.12.04-.23.09-.35.14-.22.09-.44.19-.66.29-.23.11-.45.22-.68.34-.11.06-.21.11-.32.17-.43.24-.85.5-1.25.77-.1.07-.2.14-.3.21-.09.07-.18.13-.27.2h0s-.01.01-.02.02c-.41.31-.8.63-1.18.98-.07.07-.14.13-.22.2-.24.23-.48.47-.71.71-.1.11-.21.22-.3.34-.07.08-.14.15-.2.23-.06.07-.12.15-.19.23h0s-.05.07-.08.1c-.08.09-.15.19-.23.29.02-.46.07-.92.15-1.37.37-2.28,1.4-4.34,2.87-5.99.12-.14.25-.27.38-.4,1.47-.44,3.02-.68,4.63-.68.81,0,1.6.06,2.37.18.58.09,1.15.2,1.71.35,1.74.45,3.37,1.2,4.83,2.17.51.34,1,.71,1.47,1.11.08.07.16.14.24.21.13.11.26.23.39.35.06.06.13.12.19.18.09.08.18.17.26.26.07.06.13.13.19.2.13.13.25.27.37.41.06.07.12.14.18.21.15.17.3.35.44.53.1.12.19.25.28.38.06.08.12.17.18.25.29.41.57.84.82,1.29.1.18.2.36.3.54.31.59.59,1.21.82,1.84.04.09.07.19.1.28.04.11.07.22.11.33.04.13.08.26.12.39.04.13.08.26.11.39.03.09.05.18.07.27,0,.03.01.05.02.08.3,1.23.47,2.53.47,3.86Z"/>
    </clipPath>
    <clipPath id="clippath-10">
      <path class="cls-2" d="M66.66,26.18s0,.05,0,.07c-.02,4.53-3.6,8.28-8.13,8.49-.21,0-.42.01-.63.01h-.07c2.55-2.84,4.1-6.6,4.1-10.72,0-5.57-2.84-10.48-7.15-13.36,6.84,1.84,11.87,8.09,11.87,15.51Z"/>
    </clipPath>
    <clipPath id="clippath-11">
      <path class="cls-2" d="M65.89,29.76c-.04.09-.08.18-.13.26-.04.08-.08.17-.13.25-.05.09-.1.18-.15.26-.06.11-.13.21-.2.32-.08.12-.16.24-.24.35-.07.1-.14.19-.21.28-.01.01-.02.03-.03.04-.08.1-.16.2-.25.3-.07.09-.15.17-.23.25-.1.11-.21.22-.32.32-.09.08-.17.16-.26.24-.23.2-.46.38-.71.56-.09.07-.19.13-.28.19-.1.06-.19.12-.29.18-.03.02-.06.04-.09.05-.1.06-.2.11-.3.16-.01,0-.02.01-.03.01-.11.06-.23.12-.34.17-.09.04-.18.08-.28.12-.07.03-.14.06-.21.09-.35.14-.71.25-1.08.34-.12.03-.24.05-.36.08-.11.02-.23.04-.34.06-.04,0-.08.01-.12.02-.1.01-.2.03-.3.04-.04,0-.08.01-.11.01-.12.01-.25.02-.37.03-.06,0-.12,0-.18,0-.15,0-.3,0-.45,0h-.07c-.16,0-.31,0-.47,0-.14,0-.29-.01-.43-.02-.09,0-.18-.01-.27-.02-.1,0-.19-.01-.29-.03-.02,0-.05,0-.07,0-.24-.03-.48-.06-.72-.1-.45-.07-.9-.17-1.34-.28-.14-.04-.29-.08-.43-.12-.14-.04-.27-.08-.4-.12-.16-.05-.33-.11-.49-.17-.12-.05-.24-.09-.35-.14-.03-.01-.06-.03-.09-.04-.1-.04-.21-.08-.31-.13-.25-.11-.49-.22-.73-.34-.05-.02-.1-.05-.15-.07-.07-.04-.14-.07-.21-.11-.03-.02-.06-.03-.09-.05.03-.05.06-.1.09-.15.4-.68.88-1.31,1.42-1.87,1.86-1.95,4.49-3.16,7.4-3.16.53,0,1.05.04,1.56.12.36.05.71.13,1.06.22,1.23.32,2.37.87,3.37,1.59Z"/>
    </clipPath>
    <clipPath id="clippath-12">
      <path class="cls-2" d="M54.79,10.68c5.04,2.88,8.35,7.79,8.35,13.36,0,4.12-1.81,7.88-4.79,10.72h0c.27,0,.55,0,.82-.01,5.29-.2,9.48-3.96,9.5-8.49,0-.02,0-.05,0-.07,0-7.42-5.88-13.66-13.88-15.51Z"/>
    </clipPath>
    <clipPath id="clippath-13">
      <path class="cls-2" d="M58.57,22.77c-2.26,1.05-4.17,2.9-5.25,5.36-.07.16-.14.32-.2.48-.3.78-.5,1.57-.61,2.36-.13.91-.13,1.83-.03,2.72h0c-.1-.04-.21-.08-.31-.13-.25-.11-.49-.22-.73-.34-.05-.02-.1-.05-.15-.07-.07-.04-.14-.07-.21-.11v-.2c.01-1.32.27-2.66.8-3.95.04-.08.07-.17.11-.25,1.29-2.93,3.74-4.98,6.57-5.87Z"/>
    </clipPath>
  </defs>
  <g id="Layer_1-2" data-name="Layer 1">
    <g>
      <g>
        <g>
          <g class="cls-1">
            <polygon class="cls-60" points="36.14 4.32 36.28 5.03 36.14 5.03 36.14 4.32"/>
            <polygon class="cls-34" points="36.28 3.79 36.53 5.03 36.28 5.03 36.14 4.32 36.14 3.79 36.28 3.79"/>
            <polygon class="cls-35" points="36.53 3.79 36.78 5.03 36.53 5.03 36.28 3.79 36.53 3.79"/>
            <polygon class="cls-59" points="36.78 3.79 37.03 5.03 36.78 5.03 36.53 3.79 36.78 3.79"/>
            <polygon class="cls-58" points="37.03 3.79 37.28 5.03 37.03 5.03 36.78 3.79 37.03 3.79"/>
            <polygon class="cls-62" points="37.28 3.79 37.53 5.03 37.28 5.03 37.03 3.79 37.28 3.79"/>
            <polygon class="cls-63" points="37.53 3.79 37.78 5.03 37.53 5.03 37.28 3.79 37.53 3.79"/>
            <polygon class="cls-33" points="37.78 3.79 38.02 5.03 37.78 5.03 37.53 3.79 37.78 3.79"/>
            <polygon class="cls-43" points="38.03 3.79 38.27 5.03 38.02 5.03 37.78 3.79 38.03 3.79"/>
            <polygon class="cls-44" points="38.28 3.79 38.52 5.03 38.27 5.03 38.03 3.79 38.28 3.79"/>
            <polygon class="cls-49" points="38.53 3.79 38.57 3.99 38.57 5.03 38.52 5.03 38.28 3.79 38.53 3.79"/>
            <polygon class="cls-50" points="38.57 3.99 38.53 3.79 38.57 3.79 38.57 3.99"/>
            <polygon class="cls-46" points="29.66 16.92 29.9 18.14 29.66 18.14 29.66 16.92"/>
            <polygon class="cls-66" points="29.66 15.67 30.15 18.14 29.9 18.14 29.66 16.92 29.66 15.67"/>
            <polygon class="cls-67" points="29.66 14.42 30.4 18.14 30.15 18.14 29.66 15.67 29.66 14.42"/>
            <polygon class="cls-68" points="29.66 13.17 30.65 18.14 30.4 18.14 29.66 14.42 29.66 13.17"/>
            <polygon class="cls-82" points="29.66 11.92 30.9 18.14 30.65 18.14 29.66 13.17 29.66 11.92"/>
            <polygon class="cls-76" points="29.66 10.66 31.15 18.14 30.9 18.14 29.66 11.92 29.66 10.66"/>
            <polygon class="cls-78" points="29.66 9.41 31.4 18.14 31.15 18.14 29.66 10.66 29.66 9.41"/>
            <polygon class="cls-79" points="29.66 8.16 31.65 18.14 31.4 18.14 29.66 9.41 29.66 8.16"/>
            <polygon class="cls-77" points="29.66 6.91 31.9 18.14 31.65 18.14 29.66 8.16 29.66 6.91"/>
            <polygon class="cls-73" points="29.66 5.66 32.15 18.14 31.9 18.14 29.66 6.91 29.66 5.66"/>
            <polygon class="cls-80" points="29.66 4.4 32.4 18.14 32.15 18.14 29.66 5.66 29.66 4.4"/>
            <polygon class="cls-81" points="29.66 3.15 32.65 18.14 32.4 18.14 29.66 4.4 29.66 3.15"/>
            <polygon class="cls-64" points="29.66 1.9 32.9 18.14 32.65 18.14 29.66 3.15 29.66 1.9"/>
            <polygon class="cls-65" points="29.66 .81 29.69 .8 33.15 18.14 32.9 18.14 29.66 1.9 29.66 .81"/>
            <polygon class="cls-74" points="29.69 .8 29.93 .75 33.4 18.14 33.15 18.14 29.69 .8"/>
            <polygon class="cls-71" points="29.93 .75 30.17 .71 33.65 18.14 33.4 18.14 29.93 .75"/>
            <polygon class="cls-41" points="30.17 .71 30.41 .66 33.9 18.14 33.65 18.14 30.17 .71"/>
            <polygon class="cls-42" points="30.41 .66 30.65 .61 34.15 18.14 33.9 18.14 30.41 .66"/>
            <polygon class="cls-39" points="30.65 .61 30.89 .56 34.4 18.14 34.15 18.14 30.65 .61"/>
            <polygon class="cls-40" points="30.89 .56 31.13 .51 34.65 18.14 34.4 18.14 30.89 .56"/>
            <polygon class="cls-5" points="31.13 .51 31.37 .47 34.9 18.14 34.65 18.14 31.13 .51"/>
            <polygon class="cls-13" points="31.37 .47 31.61 .42 35.15 18.14 34.9 18.14 31.37 .47"/>
            <polygon class="cls-18" points="31.61 .42 31.85 .37 35.4 18.14 35.15 18.14 31.61 .42"/>
            <polygon class="cls-14" points="31.85 .37 32.09 .32 35.65 18.14 35.4 18.14 31.85 .37"/>
            <polygon class="cls-12" points="32.09 .32 32.33 .28 35.9 18.14 35.65 18.14 32.09 .32"/>
            <polygon class="cls-8" points="32.33 .28 32.57 .23 36.15 18.14 35.9 18.14 32.33 .28"/>
            <polygon class="cls-4" points="32.57 .23 32.81 .18 36.39 18.14 36.15 18.14 32.57 .23"/>
            <polygon class="cls-10" points="32.81 .18 33.05 .13 36.64 18.14 36.39 18.14 32.81 .18"/>
            <polygon class="cls-11" points="33.05 .13 33.29 .08 36.89 18.14 36.64 18.14 33.05 .13"/>
            <polygon class="cls-9" points="33.29 .08 33.53 .04 37.14 18.14 36.89 18.14 33.29 .08"/>
            <polygon class="cls-19" points="33.53 .04 33.71 0 33.78 0 37.39 18.14 37.14 18.14 33.53 .04"/>
            <polygon class="cls-37" points="34.03 0 37.64 18.14 37.39 18.14 33.78 0 34.03 0"/>
            <polygon class="cls-32" points="34.28 0 37.89 18.14 37.64 18.14 34.03 0 34.28 0"/>
            <polygon class="cls-36" points="34.53 0 38.14 18.14 37.89 18.14 34.28 0 34.53 0"/>
            <polygon class="cls-38" points="34.77 0 38.39 18.14 38.14 18.14 34.53 0 34.77 0"/>
            <polygon class="cls-61" points="35.02 0 38.64 18.14 38.39 18.14 34.77 0 35.02 0"/>
            <polygon class="cls-60" points="35.27 0 38.89 18.14 38.64 18.14 35.02 0 35.27 0"/>
            <polygon class="cls-34" points="35.52 0 39.14 18.14 38.89 18.14 35.27 0 35.52 0"/>
            <polygon class="cls-35" points="35.77 0 39.39 18.14 39.14 18.14 35.52 0 35.77 0"/>
            <polygon class="cls-59" points="36.02 0 39.64 18.14 39.39 18.14 35.77 0 36.02 0"/>
            <polygon class="cls-58" points="36.27 0 39.89 18.14 39.64 18.14 36.02 0 36.27 0"/>
            <polygon class="cls-62" points="36.52 0 40.14 18.14 39.89 18.14 36.27 0 36.52 0"/>
            <polygon class="cls-63" points="36.77 0 40.39 18.14 40.14 18.14 36.52 0 36.77 0"/>
            <polygon class="cls-33" points="37.02 0 40.64 18.14 40.39 18.14 36.77 0 37.02 0"/>
            <polygon class="cls-43" points="37.27 0 40.89 18.14 40.64 18.14 37.02 0 37.27 0"/>
            <polygon class="cls-44" points="37.52 0 41.14 18.14 40.89 18.14 37.27 0 37.52 0"/>
            <polygon class="cls-49" points="37.77 0 41.39 18.14 41.14 18.14 37.52 0 37.77 0"/>
            <polygon class="cls-50" points="38.02 0 41.64 18.14 41.39 18.14 37.77 0 38.02 0"/>
            <polygon class="cls-51" points="38.27 0 41.89 18.14 41.64 18.14 38.02 0 38.27 0"/>
            <polygon class="cls-20" points="38.52 0 42.14 18.14 41.89 18.14 38.27 0 38.52 0"/>
            <polygon class="cls-28" points="38.77 0 42.39 18.14 42.14 18.14 38.52 0 38.77 0"/>
            <polygon class="cls-27" points="39.02 0 42.64 18.14 42.39 18.14 38.77 0 39.02 0"/>
            <polygon class="cls-24" points="39.27 0 42.89 18.14 42.64 18.14 39.02 0 39.27 0"/>
            <polygon class="cls-31" points="39.52 0 43.13 18.14 42.89 18.14 39.27 0 39.52 0"/>
            <polygon class="cls-25" points="39.77 0 43.38 18.14 43.13 18.14 39.52 0 39.77 0"/>
            <polygon class="cls-26" points="40.02 0 43.63 18.14 43.38 18.14 39.77 0 40.02 0"/>
            <polygon class="cls-29" points="40.27 0 43.88 18.14 43.63 18.14 40.02 0 40.27 0"/>
            <polygon class="cls-30" points="40.52 0 44.13 18.14 43.88 18.14 40.27 0 40.52 0"/>
            <polygon class="cls-23" points="40.77 0 44.38 18.14 44.13 18.14 40.52 0 40.77 0"/>
            <polygon class="cls-22" points="41.02 0 44.63 18.14 44.38 18.14 40.77 0 41.02 0"/>
            <polygon class="cls-7" points="41.26 0 44.88 18.14 44.63 18.14 41.02 0 41.26 0"/>
            <polygon class="cls-6" points="41.51 0 45.13 18.14 44.88 18.14 41.26 0 41.51 0"/>
            <polygon class="cls-3" points="41.76 0 45.38 18.14 45.13 18.14 41.51 0 41.76 0"/>
            <polygon class="cls-3" points="53.95 17.09 48.67 18.14 45.38 18.14 41.76 0 53.95 0 53.95 17.09"/>
          </g>
          <g>
            <g id="mBmY4O">
              <g class="cls-83">
                <rect class="cls-17" x="38.71" y="20.68" width=".32" height="14.18"/>
                <rect class="cls-17" x="39.03" y="20.68" width=".11" height="14.18"/>
                <rect class="cls-15" x="39.14" y="20.68" width=".11" height="14.18"/>
                <rect class="cls-16" x="39.25" y="20.68" width=".11" height="14.18"/>
                <rect class="cls-70" x="39.36" y="20.68" width=".11" height="14.18"/>
                <rect class="cls-69" x="39.47" y="20.68" width=".11" height="14.18"/>
                <rect class="cls-72" x="39.58" y="20.68" width=".11" height="14.18"/>
                <rect class="cls-21" x="39.69" y="20.68" width=".11" height="14.18"/>
                <rect class="cls-52" x="39.8" y="20.68" width=".11" height="14.18"/>
                <rect class="cls-53" x="39.91" y="20.68" width=".11" height="14.18"/>
                <rect class="cls-56" x="40.02" y="20.68" width=".11" height="14.18"/>
                <rect class="cls-57" x="40.13" y="20.68" width=".11" height="14.18"/>
                <rect class="cls-55" x="40.24" y="20.68" width=".11" height="14.18"/>
                <rect class="cls-54" x="40.35" y="20.68" width=".11" height="14.18"/>
                <rect class="cls-47" x="40.46" y="20.68" width=".11" height="14.18"/>
                <rect class="cls-48" x="40.57" y="20.68" width=".11" height="14.18"/>
                <rect class="cls-45" x="40.68" y="20.68" width=".11" height="14.18"/>
                <rect class="cls-46" x="40.79" y="20.68" width=".11" height="14.18"/>
                <rect class="cls-66" x="40.9" y="20.68" width=".11" height="14.18"/>
                <rect class="cls-67" x="41.01" y="20.68" width=".11" height="14.18"/>
                <rect class="cls-68" x="41.12" y="20.68" width=".11" height="14.18"/>
                <rect class="cls-82" x="41.23" y="20.68" width=".11" height="14.18"/>
                <rect class="cls-76" x="41.34" y="20.68" width=".11" height="14.18"/>
                <rect class="cls-78" x="41.45" y="20.68" width=".11" height="14.18"/>
                <rect class="cls-79" x="41.57" y="20.68" width=".11" height="14.18"/>
                <rect class="cls-77" x="41.68" y="20.68" width=".11" height="14.18"/>
                <rect class="cls-73" x="41.79" y="20.68" width=".11" height="14.18"/>
                <rect class="cls-80" x="41.9" y="20.68" width=".11" height="14.18"/>
                <rect class="cls-81" x="42.01" y="20.68" width=".11" height="14.18"/>
                <rect class="cls-64" x="42.12" y="20.68" width=".11" height="14.18"/>
                <rect class="cls-65" x="42.23" y="20.68" width=".11" height="14.18"/>
                <rect class="cls-74" x="42.34" y="20.68" width=".11" height="14.18"/>
                <rect class="cls-71" x="42.45" y="20.68" width=".11" height="14.18"/>
                <rect class="cls-41" x="42.56" y="20.68" width=".11" height="14.18"/>
                <rect class="cls-42" x="42.67" y="20.68" width=".11" height="14.18"/>
                <rect class="cls-39" x="42.78" y="20.68" width=".11" height="14.18"/>
                <rect class="cls-40" x="42.89" y="20.68" width=".11" height="14.18"/>
                <rect class="cls-5" x="43" y="20.68" width=".11" height="14.18"/>
                <rect class="cls-13" x="43.11" y="20.68" width=".11" height="14.18"/>
                <rect class="cls-18" x="43.22" y="20.68" width=".11" height="14.18"/>
                <rect class="cls-14" x="43.33" y="20.68" width=".11" height="14.18"/>
                <rect class="cls-12" x="43.44" y="20.68" width=".11" height="14.18"/>
                <rect class="cls-8" x="43.55" y="20.68" width=".11" height="14.18"/>
                <rect class="cls-4" x="43.66" y="20.68" width=".11" height="14.18"/>
                <rect class="cls-10" x="43.77" y="20.68" width=".11" height="14.18"/>
                <rect class="cls-11" x="43.88" y="20.68" width=".11" height="14.18"/>
                <rect class="cls-9" x="43.99" y="20.68" width=".11" height="14.18"/>
                <rect class="cls-19" x="44.1" y="20.68" width=".11" height="14.18"/>
                <rect class="cls-37" x="44.21" y="20.68" width=".11" height="14.18"/>
                <rect class="cls-32" x="44.32" y="20.68" width=".11" height="14.18"/>
                <rect class="cls-36" x="44.43" y="20.68" width=".11" height="14.18"/>
                <rect class="cls-38" x="44.54" y="20.68" width=".11" height="14.18"/>
                <rect class="cls-61" x="44.65" y="20.68" width=".11" height="14.18"/>
                <rect class="cls-60" x="44.76" y="20.68" width=".11" height="14.18"/>
                <rect class="cls-34" x="44.87" y="20.68" width=".11" height="14.18"/>
                <rect class="cls-35" x="44.98" y="20.68" width=".11" height="14.18"/>
                <rect class="cls-59" x="45.09" y="20.68" width=".11" height="14.18"/>
                <rect class="cls-58" x="45.2" y="20.68" width=".11" height="14.18"/>
                <rect class="cls-62" x="45.31" y="20.68" width=".11" height="14.18"/>
                <rect class="cls-63" x="45.42" y="20.68" width=".11" height="14.18"/>
                <rect class="cls-33" x="45.53" y="20.68" width=".11" height="14.18"/>
                <rect class="cls-43" x="45.64" y="20.68" width=".11" height="14.18"/>
                <rect class="cls-44" x="45.75" y="20.68" width=".11" height="14.18"/>
                <rect class="cls-49" x="45.86" y="20.68" width=".11" height="14.18"/>
                <rect class="cls-50" x="45.97" y="20.68" width=".11" height="14.18"/>
                <rect class="cls-51" x="46.08" y="20.68" width=".11" height="14.18"/>
                <rect class="cls-20" x="46.19" y="20.68" width=".11" height="14.18"/>
                <rect class="cls-28" x="46.3" y="20.68" width=".11" height="14.18"/>
                <rect class="cls-27" x="46.41" y="20.68" width=".11" height="14.18"/>
                <rect class="cls-24" x="46.52" y="20.68" width=".11" height="14.18"/>
                <rect class="cls-31" x="46.63" y="20.68" width=".11" height="14.18"/>
                <rect class="cls-25" x="46.74" y="20.68" width=".11" height="14.18"/>
                <rect class="cls-26" x="46.85" y="20.68" width=".11" height="14.18"/>
                <rect class="cls-29" x="46.96" y="20.68" width=".11" height="14.18"/>
                <rect class="cls-30" x="47.07" y="20.68" width=".11" height="14.18"/>
                <rect class="cls-23" x="47.18" y="20.68" width=".11" height="14.18"/>
                <rect class="cls-22" x="47.29" y="20.68" width=".11" height="14.18"/>
                <rect class="cls-7" x="47.4" y="20.68" width=".11" height="14.18"/>
                <rect class="cls-6" x="47.51" y="20.68" width=".11" height="14.18"/>
                <rect class="cls-3" x="47.62" y="20.68" width=".11" height="14.18"/>
              </g>
            </g>
            <g class="cls-86">
              <rect class="cls-17" x="40.55" y="32.19" width=".07" height="2.66"/>
              <rect class="cls-15" x="40.62" y="32.19" width=".07" height="2.66"/>
              <rect class="cls-16" x="40.68" y="32.19" width=".07" height="2.66"/>
              <rect class="cls-70" x="40.75" y="32.19" width=".07" height="2.66"/>
              <rect class="cls-69" x="40.82" y="32.19" width=".07" height="2.66"/>
              <rect class="cls-72" x="40.89" y="32.19" width=".07" height="2.66"/>
              <rect class="cls-21" x="40.95" y="32.19" width=".07" height="2.66"/>
              <rect class="cls-52" x="41.02" y="32.19" width=".07" height="2.66"/>
              <rect class="cls-53" x="41.09" y="32.19" width=".07" height="2.66"/>
              <rect class="cls-56" x="41.16" y="32.19" width=".07" height="2.66"/>
              <rect class="cls-57" x="41.22" y="32.19" width=".07" height="2.66"/>
              <rect class="cls-55" x="41.29" y="32.19" width=".07" height="2.66"/>
              <rect class="cls-54" x="41.36" y="32.19" width=".07" height="2.66"/>
              <rect class="cls-47" x="41.43" y="32.19" width=".07" height="2.66"/>
              <rect class="cls-48" x="41.49" y="32.19" width=".07" height="2.66"/>
              <rect class="cls-45" x="41.56" y="32.19" width=".07" height="2.66"/>
              <rect class="cls-46" x="41.63" y="32.19" width=".07" height="2.66"/>
              <rect class="cls-66" x="41.7" y="32.19" width=".07" height="2.66"/>
              <rect class="cls-67" x="41.76" y="32.19" width=".07" height="2.66"/>
              <rect class="cls-68" x="41.83" y="32.19" width=".07" height="2.66"/>
              <rect class="cls-82" x="41.9" y="32.19" width=".07" height="2.66"/>
              <rect class="cls-76" x="41.97" y="32.19" width=".07" height="2.66"/>
              <rect class="cls-78" x="42.03" y="32.19" width=".07" height="2.66"/>
              <rect class="cls-79" x="42.1" y="32.19" width=".07" height="2.66"/>
              <rect class="cls-77" x="42.17" y="32.19" width=".07" height="2.66"/>
              <rect class="cls-73" x="42.24" y="32.19" width=".07" height="2.66"/>
              <rect class="cls-80" x="42.3" y="32.19" width=".07" height="2.66"/>
              <rect class="cls-81" x="42.37" y="32.19" width=".07" height="2.66"/>
              <rect class="cls-64" x="42.44" y="32.19" width=".07" height="2.66"/>
              <rect class="cls-65" x="42.51" y="32.19" width=".07" height="2.66"/>
              <rect class="cls-74" x="42.57" y="32.19" width=".07" height="2.66"/>
              <rect class="cls-71" x="42.64" y="32.19" width=".07" height="2.66"/>
              <rect class="cls-41" x="42.71" y="32.19" width=".07" height="2.66"/>
              <rect class="cls-42" x="42.78" y="32.19" width=".07" height="2.66"/>
              <rect class="cls-39" x="42.84" y="32.19" width=".07" height="2.66"/>
              <rect class="cls-40" x="42.91" y="32.19" width=".07" height="2.66"/>
              <rect class="cls-5" x="42.98" y="32.19" width=".07" height="2.66"/>
              <rect class="cls-13" x="43.04" y="32.19" width=".07" height="2.66"/>
              <rect class="cls-18" x="43.11" y="32.19" width=".07" height="2.66"/>
              <rect class="cls-14" x="43.18" y="32.19" width=".07" height="2.66"/>
              <rect class="cls-12" x="43.25" y="32.19" width=".07" height="2.66"/>
              <rect class="cls-8" x="43.31" y="32.19" width=".07" height="2.66"/>
              <rect class="cls-4" x="43.38" y="32.19" width=".07" height="2.66"/>
              <rect class="cls-10" x="43.45" y="32.19" width=".07" height="2.66"/>
              <rect class="cls-11" x="43.52" y="32.19" width=".07" height="2.66"/>
              <rect class="cls-9" x="43.58" y="32.19" width=".07" height="2.66"/>
              <rect class="cls-19" x="43.65" y="32.19" width=".07" height="2.66"/>
              <rect class="cls-37" x="43.72" y="32.19" width=".07" height="2.66"/>
              <rect class="cls-32" x="43.79" y="32.19" width=".07" height="2.66"/>
              <rect class="cls-36" x="43.85" y="32.19" width=".07" height="2.66"/>
              <rect class="cls-38" x="43.92" y="32.19" width=".07" height="2.66"/>
              <rect class="cls-61" x="43.99" y="32.19" width=".07" height="2.66"/>
              <rect class="cls-60" x="44.06" y="32.19" width=".07" height="2.66"/>
              <rect class="cls-34" x="44.12" y="32.19" width=".07" height="2.66"/>
              <rect class="cls-35" x="44.19" y="32.19" width=".07" height="2.66"/>
              <rect class="cls-59" x="44.26" y="32.19" width=".07" height="2.66"/>
              <rect class="cls-58" x="44.33" y="32.19" width=".07" height="2.66"/>
              <rect class="cls-62" x="44.39" y="32.19" width=".07" height="2.66"/>
              <rect class="cls-63" x="44.46" y="32.19" width=".07" height="2.66"/>
              <rect class="cls-33" x="44.53" y="32.19" width=".07" height="2.66"/>
              <rect class="cls-43" x="44.6" y="32.19" width=".07" height="2.66"/>
              <rect class="cls-44" x="44.66" y="32.19" width=".07" height="2.66"/>
              <rect class="cls-49" x="44.73" y="32.19" width=".07" height="2.66"/>
              <rect class="cls-50" x="44.8" y="32.19" width=".07" height="2.66"/>
              <rect class="cls-51" x="44.87" y="32.19" width=".07" height="2.66"/>
              <rect class="cls-20" x="44.93" y="32.19" width=".07" height="2.66"/>
              <rect class="cls-28" x="45" y="32.19" width=".07" height="2.66"/>
              <rect class="cls-27" x="45.07" y="32.19" width=".07" height="2.66"/>
              <rect class="cls-24" x="45.14" y="32.19" width=".07" height="2.66"/>
              <rect class="cls-31" x="45.2" y="32.19" width=".07" height="2.66"/>
              <rect class="cls-25" x="45.27" y="32.19" width=".07" height="2.66"/>
              <rect class="cls-26" x="45.34" y="32.19" width=".07" height="2.66"/>
              <rect class="cls-29" x="45.41" y="32.19" width=".07" height="2.66"/>
              <rect class="cls-30" x="45.47" y="32.19" width=".07" height="2.66"/>
              <rect class="cls-23" x="45.54" y="32.19" width=".07" height="2.66"/>
              <rect class="cls-22" x="45.61" y="32.19" width=".07" height="2.66"/>
              <rect class="cls-7" x="45.68" y="32.19" width=".07" height="2.66"/>
              <rect class="cls-6" x="45.74" y="32.19" width=".07" height="2.66"/>
              <rect class="cls-3" x="45.81" y="32.19" width=".07" height="2.66"/>
            </g>
          </g>
          <g class="cls-85">
            <rect class="cls-17" x="31.87" y="0" width=".41" height="18.14"/>
            <rect class="cls-15" x="32.28" y="0" width=".41" height="18.14"/>
            <rect class="cls-16" x="32.7" y="0" width=".41" height="18.14"/>
            <rect class="cls-70" x="33.11" y="0" width=".41" height="18.14"/>
            <rect class="cls-69" x="33.52" y="0" width=".41" height="18.14"/>
            <rect class="cls-72" x="33.94" y="0" width=".41" height="18.14"/>
            <rect class="cls-21" x="34.35" y="0" width=".41" height="18.14"/>
            <rect class="cls-52" x="34.77" y="0" width=".41" height="18.14"/>
            <rect class="cls-53" x="35.18" y="0" width=".41" height="18.14"/>
            <rect class="cls-56" x="35.6" y="0" width=".41" height="18.14"/>
            <rect class="cls-57" x="36.01" y="0" width=".41" height="18.14"/>
            <rect class="cls-55" x="36.43" y="0" width=".41" height="18.14"/>
            <rect class="cls-54" x="36.84" y="0" width=".41" height="18.14"/>
            <rect class="cls-47" x="37.26" y="0" width=".41" height="18.14"/>
            <rect class="cls-48" x="37.67" y="0" width=".41" height="18.14"/>
            <rect class="cls-45" x="38.08" y="0" width=".41" height="18.14"/>
            <rect class="cls-46" x="38.5" y="0" width=".41" height="18.14"/>
            <rect class="cls-66" x="38.91" y="0" width=".41" height="18.14"/>
            <rect class="cls-67" x="39.33" y="0" width=".41" height="18.14"/>
            <rect class="cls-68" x="39.74" y="0" width=".41" height="18.14"/>
            <rect class="cls-82" x="40.16" y="0" width=".41" height="18.14"/>
            <rect class="cls-76" x="40.57" y="0" width=".41" height="18.14"/>
            <rect class="cls-78" x="40.99" y="0" width=".41" height="18.14"/>
            <rect class="cls-79" x="41.4" y="0" width=".41" height="18.14"/>
            <rect class="cls-77" x="41.81" y="0" width=".41" height="18.14"/>
            <rect class="cls-73" x="42.23" y="0" width=".41" height="18.14"/>
            <rect class="cls-80" x="42.64" y="0" width=".41" height="18.14"/>
            <rect class="cls-81" x="43.06" y="0" width=".41" height="18.14"/>
            <rect class="cls-64" x="43.47" y="0" width=".41" height="18.14"/>
            <rect class="cls-65" x="43.89" y="0" width=".41" height="18.14"/>
            <rect class="cls-74" x="44.3" y="0" width=".41" height="18.14"/>
            <rect class="cls-71" x="44.72" y="0" width=".41" height="18.14"/>
            <rect class="cls-41" x="45.13" y="0" width=".41" height="18.14"/>
            <rect class="cls-42" x="45.54" y="0" width=".41" height="18.14"/>
            <rect class="cls-39" x="45.96" y="0" width=".41" height="18.14"/>
            <rect class="cls-40" x="46.37" y="0" width=".41" height="18.14"/>
            <rect class="cls-5" x="46.79" y="0" width=".41" height="18.14"/>
            <rect class="cls-13" x="47.2" y="0" width=".41" height="18.14"/>
            <rect class="cls-18" x="47.62" y="0" width=".41" height="18.14"/>
            <rect class="cls-14" x="48.03" y="0" width=".41" height="18.14"/>
            <rect class="cls-12" x="48.45" y="0" width=".41" height="18.14"/>
            <rect class="cls-8" x="48.86" y="0" width=".41" height="18.14"/>
            <rect class="cls-4" x="49.28" y="0" width=".41" height="18.14"/>
            <rect class="cls-10" x="49.69" y="0" width=".41" height="18.14"/>
            <rect class="cls-11" x="50.1" y="0" width=".41" height="18.14"/>
            <rect class="cls-9" x="50.52" y="0" width=".41" height="18.14"/>
            <rect class="cls-19" x="50.93" y="0" width=".41" height="18.14"/>
            <rect class="cls-37" x="51.35" y="0" width=".41" height="18.14"/>
            <rect class="cls-32" x="51.76" y="0" width=".41" height="18.14"/>
            <rect class="cls-36" x="52.18" y="0" width=".41" height="18.14"/>
            <rect class="cls-38" x="52.59" y="0" width=".41" height="18.14"/>
            <rect class="cls-61" x="53.01" y="0" width=".41" height="18.14"/>
            <rect class="cls-60" x="53.42" y="0" width=".41" height="18.14"/>
            <rect class="cls-34" x="53.83" y="0" width=".11" height="18.14"/>
          </g>
          <g>
            <g id="mBmY4O-2" data-name="mBmY4O">
              <g class="cls-84">
                <rect class="cls-17" x="41.63" y="22.72" width=".1" height="12.14"/>
                <rect class="cls-15" x="41.73" y="22.72" width=".1" height="12.14"/>
                <rect class="cls-16" x="41.83" y="22.72" width=".1" height="12.14"/>
                <rect class="cls-70" x="41.93" y="22.72" width=".1" height="12.14"/>
                <rect class="cls-69" x="42.04" y="22.72" width=".1" height="12.14"/>
                <rect class="cls-72" x="42.14" y="22.72" width=".1" height="12.14"/>
                <rect class="cls-21" x="42.24" y="22.72" width=".1" height="12.14"/>
                <rect class="cls-52" x="42.34" y="22.72" width=".1" height="12.14"/>
                <rect class="cls-53" x="42.44" y="22.72" width=".1" height="12.14"/>
                <rect class="cls-56" x="42.54" y="22.72" width=".1" height="12.14"/>
                <rect class="cls-57" x="42.64" y="22.72" width=".1" height="12.14"/>
                <rect class="cls-55" x="42.75" y="22.72" width=".1" height="12.14"/>
                <rect class="cls-54" x="42.85" y="22.72" width=".1" height="12.14"/>
                <rect class="cls-47" x="42.95" y="22.72" width=".1" height="12.14"/>
                <rect class="cls-48" x="43.05" y="22.72" width=".1" height="12.14"/>
                <rect class="cls-45" x="43.15" y="22.72" width=".1" height="12.14"/>
                <rect class="cls-46" x="43.25" y="22.72" width=".1" height="12.14"/>
                <rect class="cls-66" x="43.35" y="22.72" width=".1" height="12.14"/>
                <rect class="cls-67" x="43.46" y="22.72" width=".1" height="12.14"/>
                <rect class="cls-68" x="43.56" y="22.72" width=".1" height="12.14"/>
                <rect class="cls-82" x="43.66" y="22.72" width=".1" height="12.14"/>
                <rect class="cls-76" x="43.76" y="22.72" width=".1" height="12.14"/>
                <rect class="cls-78" x="43.86" y="22.72" width=".1" height="12.14"/>
                <rect class="cls-79" x="43.96" y="22.72" width=".1" height="12.14"/>
                <rect class="cls-77" x="44.06" y="22.72" width=".1" height="12.14"/>
                <rect class="cls-73" x="44.17" y="22.72" width=".1" height="12.14"/>
                <rect class="cls-80" x="44.27" y="22.72" width=".1" height="12.14"/>
                <rect class="cls-81" x="44.37" y="22.72" width=".1" height="12.14"/>
                <rect class="cls-64" x="44.47" y="22.72" width=".1" height="12.14"/>
                <rect class="cls-65" x="44.57" y="22.72" width=".1" height="12.14"/>
                <rect class="cls-74" x="44.67" y="22.72" width=".1" height="12.14"/>
                <rect class="cls-71" x="44.77" y="22.72" width=".1" height="12.14"/>
                <rect class="cls-41" x="44.87" y="22.72" width=".1" height="12.14"/>
                <rect class="cls-42" x="44.98" y="22.72" width=".1" height="12.14"/>
                <rect class="cls-39" x="45.08" y="22.72" width=".1" height="12.14"/>
                <rect class="cls-40" x="45.18" y="22.72" width=".1" height="12.14"/>
                <rect class="cls-5" x="45.28" y="22.72" width=".1" height="12.14"/>
                <rect class="cls-13" x="45.38" y="22.72" width=".1" height="12.14"/>
                <rect class="cls-18" x="45.48" y="22.72" width=".1" height="12.14"/>
                <rect class="cls-14" x="45.58" y="22.72" width=".1" height="12.14"/>
                <rect class="cls-12" x="45.69" y="22.72" width=".1" height="12.14"/>
                <rect class="cls-8" x="45.79" y="22.72" width=".1" height="12.14"/>
                <rect class="cls-4" x="45.89" y="22.72" width=".1" height="12.14"/>
                <rect class="cls-10" x="45.99" y="22.72" width=".1" height="12.14"/>
                <rect class="cls-11" x="46.09" y="22.72" width=".1" height="12.14"/>
                <rect class="cls-9" x="46.19" y="22.72" width=".1" height="12.14"/>
                <rect class="cls-19" x="46.29" y="22.72" width=".1" height="12.14"/>
                <rect class="cls-37" x="46.4" y="22.72" width=".1" height="12.14"/>
                <rect class="cls-32" x="46.5" y="22.72" width=".1" height="12.14"/>
                <rect class="cls-36" x="46.6" y="22.72" width=".1" height="12.14"/>
                <rect class="cls-38" x="46.7" y="22.72" width=".1" height="12.14"/>
                <rect class="cls-61" x="46.8" y="22.72" width=".1" height="12.14"/>
                <rect class="cls-60" x="46.9" y="22.72" width=".1" height="12.14"/>
                <rect class="cls-34" x="47" y="22.72" width=".1" height="12.14"/>
                <rect class="cls-35" x="47.11" y="22.72" width=".1" height="12.14"/>
                <rect class="cls-59" x="47.21" y="22.72" width=".1" height="12.14"/>
                <rect class="cls-58" x="47.31" y="22.72" width=".1" height="12.14"/>
                <rect class="cls-62" x="47.41" y="22.72" width=".1" height="12.14"/>
                <rect class="cls-63" x="47.51" y="22.72" width=".1" height="12.14"/>
                <rect class="cls-33" x="47.61" y="22.72" width=".1" height="12.14"/>
                <rect class="cls-43" x="47.71" y="22.72" width=".1" height="12.14"/>
                <rect class="cls-44" x="47.81" y="22.72" width=".1" height="12.14"/>
                <rect class="cls-49" x="47.92" y="22.72" width=".1" height="12.14"/>
                <rect class="cls-50" x="48.02" y="22.72" width=".1" height="12.14"/>
                <rect class="cls-51" x="48.12" y="22.72" width=".1" height="12.14"/>
                <rect class="cls-20" x="48.22" y="22.72" width=".1" height="12.14"/>
                <rect class="cls-28" x="48.32" y="22.72" width=".1" height="12.14"/>
                <rect class="cls-27" x="48.42" y="22.72" width=".1" height="12.14"/>
                <rect class="cls-24" x="48.52" y="22.72" width=".1" height="12.14"/>
                <rect class="cls-31" x="48.63" y="22.72" width=".1" height="12.14"/>
                <rect class="cls-25" x="48.73" y="22.72" width=".1" height="12.14"/>
                <rect class="cls-26" x="48.83" y="22.72" width=".1" height="12.14"/>
                <rect class="cls-29" x="48.93" y="22.72" width=".1" height="12.14"/>
                <rect class="cls-30" x="49.03" y="22.72" width=".1" height="12.14"/>
                <rect class="cls-23" x="49.13" y="22.72" width=".1" height="12.14"/>
                <rect class="cls-22" x="49.23" y="22.72" width=".1" height="12.14"/>
                <rect class="cls-7" x="49.34" y="22.72" width=".1" height="12.14"/>
                <rect class="cls-6" x="49.44" y="22.72" width=".1" height="12.14"/>
                <rect class="cls-3" x="49.54" y="22.72" width=".1" height="12.14"/>
              </g>
            </g>
            <g class="cls-90">
              <rect class="cls-17" x="42.45" y="32.19" width=".07" height="2.66"/>
              <rect class="cls-15" x="42.52" y="32.19" width=".07" height="2.66"/>
              <rect class="cls-16" x="42.59" y="32.19" width=".07" height="2.66"/>
              <rect class="cls-70" x="42.66" y="32.19" width=".07" height="2.66"/>
              <rect class="cls-69" x="42.72" y="32.19" width=".07" height="2.66"/>
              <rect class="cls-72" x="42.79" y="32.19" width=".07" height="2.66"/>
              <rect class="cls-21" x="42.86" y="32.19" width=".07" height="2.66"/>
              <rect class="cls-52" x="42.93" y="32.19" width=".07" height="2.66"/>
              <rect class="cls-53" x="42.99" y="32.19" width=".07" height="2.66"/>
              <rect class="cls-56" x="43.06" y="32.19" width=".07" height="2.66"/>
              <rect class="cls-57" x="43.13" y="32.19" width=".07" height="2.66"/>
              <rect class="cls-55" x="43.2" y="32.19" width=".07" height="2.66"/>
              <rect class="cls-54" x="43.26" y="32.19" width=".07" height="2.66"/>
              <rect class="cls-47" x="43.33" y="32.19" width=".07" height="2.66"/>
              <rect class="cls-48" x="43.4" y="32.19" width=".07" height="2.66"/>
              <rect class="cls-45" x="43.47" y="32.19" width=".07" height="2.66"/>
              <rect class="cls-46" x="43.53" y="32.19" width=".07" height="2.66"/>
              <rect class="cls-66" x="43.6" y="32.19" width=".07" height="2.66"/>
              <rect class="cls-67" x="43.67" y="32.19" width=".07" height="2.66"/>
              <rect class="cls-68" x="43.74" y="32.19" width=".07" height="2.66"/>
              <rect class="cls-82" x="43.8" y="32.19" width=".07" height="2.66"/>
              <rect class="cls-76" x="43.87" y="32.19" width=".07" height="2.66"/>
              <rect class="cls-78" x="43.94" y="32.19" width=".07" height="2.66"/>
              <rect class="cls-79" x="44.01" y="32.19" width=".07" height="2.66"/>
              <rect class="cls-77" x="44.07" y="32.19" width=".07" height="2.66"/>
              <rect class="cls-73" x="44.14" y="32.19" width=".07" height="2.66"/>
              <rect class="cls-80" x="44.21" y="32.19" width=".07" height="2.66"/>
              <rect class="cls-81" x="44.28" y="32.19" width=".07" height="2.66"/>
              <rect class="cls-64" x="44.34" y="32.19" width=".07" height="2.66"/>
              <rect class="cls-65" x="44.41" y="32.19" width=".07" height="2.66"/>
              <rect class="cls-74" x="44.48" y="32.19" width=".07" height="2.66"/>
              <rect class="cls-71" x="44.55" y="32.19" width=".07" height="2.66"/>
              <rect class="cls-41" x="44.61" y="32.19" width=".07" height="2.66"/>
              <rect class="cls-42" x="44.68" y="32.19" width=".07" height="2.66"/>
              <rect class="cls-39" x="44.75" y="32.19" width=".07" height="2.66"/>
              <rect class="cls-40" x="44.82" y="32.19" width=".07" height="2.66"/>
              <rect class="cls-5" x="44.88" y="32.19" width=".07" height="2.66"/>
              <rect class="cls-13" x="44.95" y="32.19" width=".07" height="2.66"/>
              <rect class="cls-18" x="45.02" y="32.19" width=".07" height="2.66"/>
              <rect class="cls-14" x="45.09" y="32.19" width=".07" height="2.66"/>
              <rect class="cls-12" x="45.15" y="32.19" width=".07" height="2.66"/>
              <rect class="cls-8" x="45.22" y="32.19" width=".07" height="2.66"/>
              <rect class="cls-4" x="45.29" y="32.19" width=".07" height="2.66"/>
              <rect class="cls-10" x="45.36" y="32.19" width=".07" height="2.66"/>
              <rect class="cls-11" x="45.42" y="32.19" width=".07" height="2.66"/>
              <rect class="cls-9" x="45.49" y="32.19" width=".07" height="2.66"/>
              <rect class="cls-19" x="45.56" y="32.19" width=".07" height="2.66"/>
              <rect class="cls-37" x="45.63" y="32.19" width=".07" height="2.66"/>
              <rect class="cls-32" x="45.69" y="32.19" width=".07" height="2.66"/>
              <rect class="cls-36" x="45.76" y="32.19" width=".07" height="2.66"/>
              <rect class="cls-38" x="45.83" y="32.19" width=".07" height="2.66"/>
              <rect class="cls-61" x="45.9" y="32.19" width=".07" height="2.66"/>
              <rect class="cls-60" x="45.96" y="32.19" width=".07" height="2.66"/>
              <rect class="cls-34" x="46.03" y="32.19" width=".07" height="2.66"/>
              <rect class="cls-35" x="46.1" y="32.19" width=".07" height="2.66"/>
              <rect class="cls-59" x="46.17" y="32.19" width=".07" height="2.66"/>
              <rect class="cls-58" x="46.23" y="32.19" width=".07" height="2.66"/>
              <rect class="cls-62" x="46.3" y="32.19" width=".07" height="2.66"/>
              <rect class="cls-63" x="46.37" y="32.19" width=".07" height="2.66"/>
              <rect class="cls-33" x="46.43" y="32.19" width=".07" height="2.66"/>
              <rect class="cls-43" x="46.5" y="32.19" width=".07" height="2.66"/>
              <rect class="cls-44" x="46.57" y="32.19" width=".07" height="2.66"/>
              <rect class="cls-49" x="46.64" y="32.19" width=".07" height="2.66"/>
              <rect class="cls-50" x="46.7" y="32.19" width=".07" height="2.66"/>
              <rect class="cls-51" x="46.77" y="32.19" width=".07" height="2.66"/>
              <rect class="cls-20" x="46.84" y="32.19" width=".07" height="2.66"/>
              <rect class="cls-28" x="46.91" y="32.19" width=".07" height="2.66"/>
              <rect class="cls-27" x="46.97" y="32.19" width=".07" height="2.66"/>
              <rect class="cls-24" x="47.04" y="32.19" width=".07" height="2.66"/>
              <rect class="cls-31" x="47.11" y="32.19" width=".07" height="2.66"/>
              <rect class="cls-25" x="47.18" y="32.19" width=".07" height="2.66"/>
              <rect class="cls-26" x="47.24" y="32.19" width=".07" height="2.66"/>
              <rect class="cls-29" x="47.31" y="32.19" width=".07" height="2.66"/>
              <rect class="cls-30" x="47.38" y="32.19" width=".07" height="2.66"/>
              <rect class="cls-23" x="47.45" y="32.19" width=".07" height="2.66"/>
              <rect class="cls-22" x="47.51" y="32.19" width=".07" height="2.66"/>
              <rect class="cls-7" x="47.58" y="32.19" width=".07" height="2.66"/>
              <rect class="cls-6" x="47.65" y="32.19" width=".07" height="2.66"/>
              <rect class="cls-3" x="47.72" y="32.19" width=".07" height="2.66"/>
            </g>
          </g>
          <g class="cls-89">
            <rect class="cls-17" x="37.84" y="10.13" width=".3" height="18.95"/>
            <rect class="cls-15" x="38.13" y="10.13" width=".3" height="18.95"/>
            <rect class="cls-16" x="38.43" y="10.13" width=".3" height="18.95"/>
            <rect class="cls-70" x="38.73" y="10.13" width=".3" height="18.95"/>
            <rect class="cls-69" x="39.03" y="10.13" width=".3" height="18.95"/>
            <rect class="cls-72" x="39.33" y="10.13" width=".3" height="18.95"/>
            <rect class="cls-21" x="39.63" y="10.13" width=".3" height="18.95"/>
            <rect class="cls-52" x="39.93" y="10.13" width=".3" height="18.95"/>
            <rect class="cls-53" x="40.23" y="10.13" width=".3" height="18.95"/>
            <rect class="cls-56" x="40.53" y="10.13" width=".3" height="18.95"/>
            <rect class="cls-57" x="40.83" y="10.13" width=".3" height="18.95"/>
            <rect class="cls-55" x="41.13" y="10.13" width=".3" height="18.95"/>
            <rect class="cls-54" x="41.43" y="10.13" width=".3" height="18.95"/>
            <rect class="cls-47" x="41.72" y="10.13" width=".3" height="18.95"/>
            <rect class="cls-48" x="42.02" y="10.13" width=".3" height="18.95"/>
            <rect class="cls-45" x="42.32" y="10.13" width=".3" height="18.95"/>
            <rect class="cls-46" x="42.62" y="10.13" width=".3" height="18.95"/>
            <rect class="cls-66" x="42.92" y="10.13" width=".3" height="18.95"/>
            <rect class="cls-67" x="43.22" y="10.13" width=".3" height="18.95"/>
            <rect class="cls-68" x="43.52" y="10.13" width=".3" height="18.95"/>
            <rect class="cls-82" x="43.82" y="10.13" width=".3" height="18.95"/>
            <rect class="cls-76" x="44.12" y="10.13" width=".3" height="18.95"/>
            <rect class="cls-78" x="44.42" y="10.13" width=".3" height="18.95"/>
            <rect class="cls-79" x="44.72" y="10.13" width=".3" height="18.95"/>
            <rect class="cls-77" x="45.01" y="10.13" width=".3" height="18.95"/>
            <rect class="cls-73" x="45.31" y="10.13" width=".3" height="18.95"/>
            <rect class="cls-80" x="45.61" y="10.13" width=".3" height="18.95"/>
            <rect class="cls-81" x="45.91" y="10.13" width=".3" height="18.95"/>
            <rect class="cls-64" x="46.21" y="10.13" width=".3" height="18.95"/>
            <rect class="cls-65" x="46.51" y="10.13" width=".3" height="18.95"/>
            <rect class="cls-74" x="46.81" y="10.13" width=".3" height="18.95"/>
            <rect class="cls-71" x="47.11" y="10.13" width=".3" height="18.95"/>
            <rect class="cls-41" x="47.41" y="10.13" width=".3" height="18.95"/>
            <rect class="cls-42" x="47.71" y="10.13" width=".3" height="18.95"/>
            <rect class="cls-39" x="48.01" y="10.13" width=".3" height="18.95"/>
            <rect class="cls-40" x="48.31" y="10.13" width=".3" height="18.95"/>
            <rect class="cls-5" x="48.6" y="10.13" width=".3" height="18.95"/>
            <rect class="cls-13" x="48.9" y="10.13" width=".3" height="18.95"/>
            <rect class="cls-18" x="49.2" y="10.13" width=".3" height="18.95"/>
            <rect class="cls-14" x="49.5" y="10.13" width=".3" height="18.95"/>
            <rect class="cls-12" x="49.8" y="10.13" width=".3" height="18.95"/>
            <rect class="cls-8" x="50.1" y="10.13" width=".3" height="18.95"/>
            <rect class="cls-4" x="50.4" y="10.13" width=".3" height="18.95"/>
            <rect class="cls-10" x="50.7" y="10.13" width=".3" height="18.95"/>
            <rect class="cls-11" x="51" y="10.13" width=".3" height="18.95"/>
            <rect class="cls-9" x="51.3" y="10.13" width=".3" height="18.95"/>
            <rect class="cls-19" x="51.6" y="10.13" width=".3" height="18.95"/>
            <rect class="cls-37" x="51.9" y="10.13" width=".3" height="18.95"/>
            <rect class="cls-32" x="52.19" y="10.13" width=".3" height="18.95"/>
            <rect class="cls-36" x="52.49" y="10.13" width=".3" height="18.95"/>
            <rect class="cls-38" x="52.79" y="10.13" width=".3" height="18.95"/>
            <rect class="cls-61" x="53.09" y="10.13" width=".3" height="18.95"/>
            <rect class="cls-60" x="53.39" y="10.13" width=".3" height="18.95"/>
            <rect class="cls-34" x="53.69" y="10.13" width=".3" height="18.95"/>
            <rect class="cls-35" x="53.99" y="10.13" width=".3" height="18.95"/>
            <rect class="cls-59" x="54.29" y="10.13" width=".3" height="18.95"/>
            <rect class="cls-58" x="54.59" y="10.13" width=".3" height="18.95"/>
            <rect class="cls-62" x="54.89" y="10.13" width=".3" height="18.95"/>
            <rect class="cls-63" x="55.19" y="10.13" width=".3" height="18.95"/>
            <rect class="cls-33" x="55.49" y="10.13" width=".3" height="18.95"/>
            <rect class="cls-43" x="55.78" y="10.13" width=".3" height="18.95"/>
            <rect class="cls-44" x="56.08" y="10.13" width=".3" height="18.95"/>
            <rect class="cls-49" x="56.38" y="10.13" width=".3" height="18.95"/>
            <rect class="cls-50" x="56.68" y="10.13" width=".3" height="18.95"/>
            <rect class="cls-51" x="56.98" y="10.13" width=".3" height="18.95"/>
            <rect class="cls-20" x="57.28" y="10.13" width=".3" height="18.95"/>
            <rect class="cls-28" x="57.58" y="10.13" width=".3" height="18.95"/>
            <rect class="cls-27" x="57.88" y="10.13" width=".3" height="18.95"/>
            <rect class="cls-24" x="58.18" y="10.13" width=".3" height="18.95"/>
            <rect class="cls-31" x="58.48" y="10.13" width=".3" height="18.95"/>
            <rect class="cls-25" x="58.78" y="10.13" width=".3" height="18.95"/>
            <rect class="cls-26" x="59.08" y="10.13" width=".3" height="18.95"/>
            <rect class="cls-29" x="59.37" y="10.13" width=".3" height="18.95"/>
            <rect class="cls-30" x="59.67" y="10.13" width=".3" height="18.95"/>
            <rect class="cls-23" x="59.97" y="10.13" width=".3" height="18.95"/>
            <rect class="cls-22" x="60.27" y="10.13" width=".3" height="18.95"/>
            <rect class="cls-7" x="60.57" y="10.13" width=".3" height="18.95"/>
            <rect class="cls-6" x="60.87" y="10.13" width=".3" height="18.95"/>
            <rect class="cls-3" x="61.17" y="10.13" width=".3" height="18.95"/>
          </g>
          <g>
            <g class="cls-87">
              <polygon class="cls-36" points="54.79 34.16 55.16 34.76 54.79 34.76 54.79 34.16"/>
              <polygon class="cls-38" points="54.79 33.46 55.6 34.76 55.16 34.76 54.79 34.16 54.79 33.46"/>
              <polygon class="cls-61" points="54.79 32.75 56.04 34.76 55.6 34.76 54.79 33.46 54.79 32.75"/>
              <polygon class="cls-60" points="54.79 32.05 56.48 34.76 56.04 34.76 54.79 32.75 54.79 32.05"/>
              <polygon class="cls-34" points="54.79 31.35 56.92 34.76 56.48 34.76 54.79 32.05 54.79 31.35"/>
              <polygon class="cls-35" points="54.79 30.64 57.35 34.76 56.92 34.76 54.79 31.35 54.79 30.64"/>
              <polygon class="cls-59" points="54.79 29.94 57.79 34.76 57.35 34.76 54.79 30.64 54.79 29.94"/>
              <polygon class="cls-58" points="54.79 29.23 58.23 34.76 57.79 34.76 54.79 29.94 54.79 29.23"/>
              <polygon class="cls-62" points="54.79 28.53 58.67 34.76 58.23 34.76 54.79 29.23 54.79 28.53"/>
              <polygon class="cls-63" points="54.79 27.82 59.11 34.76 58.67 34.76 54.79 28.53 54.79 27.82"/>
              <polygon class="cls-33" points="54.79 27.12 59.55 34.76 59.11 34.76 54.79 27.82 54.79 27.12"/>
              <polygon class="cls-43" points="54.79 26.42 59.99 34.76 59.55 34.76 54.79 27.12 54.79 26.42"/>
              <polygon class="cls-44" points="54.79 25.71 60.43 34.76 59.99 34.76 54.79 26.42 54.79 25.71"/>
              <polygon class="cls-49" points="54.79 25.01 60.87 34.76 60.43 34.76 54.79 25.71 54.79 25.01"/>
              <polygon class="cls-50" points="54.79 24.3 61.3 34.76 60.87 34.76 54.79 25.01 54.79 24.3"/>
              <polygon class="cls-51" points="54.79 23.6 61.74 34.76 61.3 34.76 54.79 24.3 54.79 23.6"/>
              <polygon class="cls-20" points="54.79 22.89 62.18 34.76 61.74 34.76 54.79 23.6 54.79 22.89"/>
              <polygon class="cls-28" points="54.79 22.19 62.62 34.76 62.18 34.76 54.79 22.89 54.79 22.19"/>
              <polygon class="cls-27" points="54.79 21.49 63.06 34.76 62.62 34.76 54.79 22.19 54.79 21.49"/>
              <polygon class="cls-24" points="54.79 20.78 63.5 34.76 63.06 34.76 54.79 21.49 54.79 20.78"/>
              <polygon class="cls-31" points="54.79 20.08 63.94 34.76 63.5 34.76 54.79 20.78 54.79 20.08"/>
              <polygon class="cls-25" points="54.79 19.37 64.38 34.76 63.94 34.76 54.79 20.08 54.79 19.37"/>
              <polygon class="cls-26" points="54.79 18.67 64.82 34.76 64.38 34.76 54.79 19.37 54.79 18.67"/>
              <polygon class="cls-29" points="54.79 17.96 65.26 34.76 64.82 34.76 54.79 18.67 54.79 17.96"/>
              <polygon class="cls-30" points="54.79 17.26 65.69 34.76 65.26 34.76 54.79 17.96 54.79 17.26"/>
              <polygon class="cls-23" points="54.79 16.56 66.13 34.76 65.69 34.76 54.79 17.26 54.79 16.56"/>
              <polygon class="cls-22" points="54.79 15.85 66.55 34.72 66.49 34.76 66.13 34.76 54.79 16.56 54.79 15.85"/>
              <polygon class="cls-7" points="54.79 15.15 66.66 34.2 66.66 34.65 66.55 34.72 54.79 15.85 54.79 15.15"/>
              <polygon class="cls-6" points="54.79 14.44 66.66 33.5 66.66 34.2 54.79 15.15 54.79 14.44"/>
              <polygon class="cls-3" points="54.79 13.74 66.66 32.79 66.66 33.5 54.79 14.44 54.79 13.74"/>
              <polygon class="cls-3" points="66.66 32.79 54.79 13.74 54.79 10.68 66.66 10.68 66.66 32.79"/>
            </g>
            <g class="cls-88">
              <rect class="cls-14" x="41.25" y="8.66" width="0" height="0"/>
            </g>
            <g class="cls-91">
              <polygon class="cls-57" points="37.85 34.45 38.04 34.76 37.85 34.76 37.85 34.45"/>
              <polygon class="cls-55" points="37.85 33.74 38.48 34.76 38.04 34.76 37.85 34.45 37.85 33.74"/>
              <polygon class="cls-54" points="37.85 33.04 38.92 34.76 38.48 34.76 37.85 33.74 37.85 33.04"/>
              <polygon class="cls-47" points="37.85 32.34 39.36 34.76 38.92 34.76 37.85 33.04 37.85 32.34"/>
              <polygon class="cls-48" points="37.85 31.63 39.8 34.76 39.36 34.76 37.85 32.34 37.85 31.63"/>
              <polygon class="cls-45" points="37.85 30.93 40.24 34.76 39.8 34.76 37.85 31.63 37.85 30.93"/>
              <polygon class="cls-46" points="37.85 30.22 40.68 34.76 40.24 34.76 37.85 30.93 37.85 30.22"/>
              <polygon class="cls-66" points="37.85 29.52 41.12 34.76 40.68 34.76 37.85 30.22 37.85 29.52"/>
              <polygon class="cls-67" points="37.85 28.81 41.56 34.76 41.12 34.76 37.85 29.52 37.85 28.81"/>
              <polygon class="cls-68" points="37.85 28.11 41.99 34.76 41.56 34.76 37.85 28.81 37.85 28.11"/>
              <polygon class="cls-82" points="37.85 27.41 42.43 34.76 41.99 34.76 37.85 28.11 37.85 27.41"/>
              <polygon class="cls-76" points="37.85 26.7 42.87 34.76 42.43 34.76 37.85 27.41 37.85 26.7"/>
              <polygon class="cls-78" points="37.85 26 43.31 34.76 42.87 34.76 37.85 26.7 37.85 26"/>
              <polygon class="cls-79" points="37.85 25.29 43.75 34.76 43.31 34.76 37.85 26 37.85 25.29"/>
              <polygon class="cls-77" points="37.85 24.59 44.19 34.76 43.75 34.76 37.85 25.29 37.85 24.59"/>
              <polygon class="cls-73" points="37.85 23.88 44.63 34.76 44.19 34.76 37.85 24.59 37.85 23.88"/>
              <polygon class="cls-80" points="37.85 23.18 45.07 34.76 44.63 34.76 37.85 23.88 37.85 23.18"/>
              <polygon class="cls-81" points="37.85 22.48 45.51 34.76 45.07 34.76 37.85 23.18 37.85 22.48"/>
              <polygon class="cls-64" points="37.85 21.77 45.94 34.76 45.51 34.76 37.85 22.48 37.85 21.77"/>
              <polygon class="cls-65" points="37.85 21.07 46.38 34.76 45.94 34.76 37.85 21.77 37.85 21.07"/>
              <polygon class="cls-74" points="37.85 20.36 46.82 34.76 46.38 34.76 37.85 21.07 37.85 20.36"/>
              <polygon class="cls-71" points="37.85 19.66 47.26 34.76 46.82 34.76 37.85 20.36 37.85 19.66"/>
              <polygon class="cls-41" points="37.85 18.95 47.7 34.76 47.26 34.76 37.85 19.66 37.85 18.95"/>
              <polygon class="cls-42" points="37.85 18.25 48.14 34.76 47.7 34.76 37.85 18.95 37.85 18.25"/>
              <polygon class="cls-39" points="37.85 17.55 48.58 34.76 48.14 34.76 37.85 18.25 37.85 17.55"/>
              <polygon class="cls-40" points="37.85 16.84 49.02 34.76 48.58 34.76 37.85 17.55 37.85 16.84"/>
              <polygon class="cls-5" points="37.85 16.14 49.46 34.76 49.02 34.76 37.85 16.84 37.85 16.14"/>
              <polygon class="cls-13" points="37.85 15.43 49.89 34.76 49.46 34.76 37.85 16.14 37.85 15.43"/>
              <polygon class="cls-18" points="37.85 14.73 50.33 34.76 49.89 34.76 37.85 15.43 37.85 14.73"/>
              <polygon class="cls-14" points="37.85 14.02 50.77 34.76 50.33 34.76 37.85 14.73 37.85 14.02"/>
              <polygon class="cls-12" points="37.85 13.32 51.21 34.76 50.77 34.76 37.85 14.02 37.85 13.32"/>
              <polygon class="cls-8" points="37.85 12.62 51.65 34.76 51.21 34.76 37.85 13.32 37.85 12.62"/>
              <polygon class="cls-4" points="37.85 11.91 52.09 34.76 51.65 34.76 37.85 12.62 37.85 11.91"/>
              <polygon class="cls-10" points="37.85 11.21 52.53 34.76 52.09 34.76 37.85 11.91 37.85 11.21"/>
              <polygon class="cls-11" points="37.85 10.5 52.97 34.76 52.53 34.76 37.85 11.21 37.85 10.5"/>
              <polygon class="cls-9" points="37.85 9.8 53.41 34.76 52.97 34.76 37.85 10.5 37.85 9.8"/>
              <polygon class="cls-19" points="37.85 9.1 53.84 34.76 53.41 34.76 37.85 9.8 37.85 9.1"/>
              <polygon class="cls-37" points="37.85 8.42 37.87 8.41 54.28 34.76 53.84 34.76 37.85 9.1 37.85 8.42"/>
              <polygon class="cls-32" points="37.87 8.41 38.18 8.22 54.72 34.76 54.28 34.76 37.87 8.41"/>
              <polygon class="cls-36" points="38.18 8.22 38.5 8.02 55.16 34.76 54.72 34.76 38.18 8.22"/>
              <polygon class="cls-38" points="38.5 8.02 38.56 7.98 38.91 7.98 55.6 34.76 55.16 34.76 38.5 8.02"/>
              <polygon class="cls-61" points="39.35 7.98 56.04 34.76 55.6 34.76 38.91 7.98 39.35 7.98"/>
              <polygon class="cls-60" points="39.79 7.98 56.48 34.76 56.04 34.76 39.35 7.98 39.79 7.98"/>
              <polygon class="cls-34" points="40.23 7.98 56.92 34.76 56.48 34.76 39.79 7.98 40.23 7.98"/>
              <polygon class="cls-35" points="40.67 7.98 57.36 34.76 56.92 34.76 40.23 7.98 40.67 7.98"/>
              <polygon class="cls-59" points="41.11 7.98 57.79 34.76 57.36 34.76 40.67 7.98 41.11 7.98"/>
              <polygon class="cls-58" points="41.55 7.98 58.23 34.76 57.79 34.76 41.11 7.98 41.55 7.98"/>
              <polygon class="cls-62" points="41.98 7.98 58.67 34.76 58.23 34.76 41.55 7.98 41.98 7.98"/>
              <polygon class="cls-63" points="42.42 7.98 59.11 34.76 58.67 34.76 41.98 7.98 42.42 7.98"/>
              <polygon class="cls-33" points="42.86 7.98 59.55 34.76 59.11 34.76 42.42 7.98 42.86 7.98"/>
              <polygon class="cls-43" points="43.3 7.98 59.99 34.76 59.55 34.76 42.86 7.98 43.3 7.98"/>
              <polygon class="cls-44" points="43.74 7.98 60.43 34.76 59.99 34.76 43.3 7.98 43.74 7.98"/>
              <polygon class="cls-49" points="44.18 7.98 60.87 34.76 60.43 34.76 43.74 7.98 44.18 7.98"/>
              <polygon class="cls-50" points="44.62 7.98 61.31 34.76 60.87 34.76 44.18 7.98 44.62 7.98"/>
              <polygon class="cls-51" points="45.06 7.98 61.71 34.7 61.62 34.76 61.31 34.76 44.62 7.98 45.06 7.98"/>
              <polygon class="cls-20" points="45.5 7.98 61.94 34.36 61.94 34.56 61.71 34.7 45.06 7.98 45.5 7.98"/>
              <polygon class="cls-28" points="45.93 7.98 61.94 33.66 61.94 34.36 45.5 7.98 45.93 7.98"/>
              <polygon class="cls-27" points="46.37 7.98 61.94 32.95 61.94 33.66 45.93 7.98 46.37 7.98"/>
              <polygon class="cls-24" points="46.81 7.98 61.94 32.25 61.94 32.95 46.37 7.98 46.81 7.98"/>
              <polygon class="cls-31" points="47.25 7.98 61.94 31.54 61.94 32.25 46.81 7.98 47.25 7.98"/>
              <polygon class="cls-25" points="47.69 7.98 61.94 30.84 61.94 31.54 47.25 7.98 47.69 7.98"/>
              <polygon class="cls-26" points="48.13 7.98 61.94 30.13 61.94 30.84 47.69 7.98 48.13 7.98"/>
              <polygon class="cls-29" points="48.57 7.98 61.94 29.43 61.94 30.13 48.13 7.98 48.57 7.98"/>
              <polygon class="cls-30" points="49.01 7.98 61.94 28.73 61.94 29.43 48.57 7.98 49.01 7.98"/>
              <polygon class="cls-23" points="49.45 7.98 61.94 28.02 61.94 28.73 49.01 7.98 49.45 7.98"/>
              <polygon class="cls-22" points="49.89 7.98 61.94 27.32 61.94 28.02 49.45 7.98 49.89 7.98"/>
              <polygon class="cls-7" points="50.32 7.98 61.94 26.61 61.94 27.32 49.89 7.98 50.32 7.98"/>
              <polygon class="cls-6" points="50.76 7.98 61.94 25.91 61.94 26.61 50.32 7.98 50.76 7.98"/>
              <polygon class="cls-3" points="51.2 7.98 61.94 25.2 61.94 25.91 50.76 7.98 51.2 7.98"/>
              <polygon class="cls-3" points="61.94 25.2 51.2 7.98 61.94 7.98 61.94 25.2"/>
            </g>
            <g class="cls-94">
              <polygon class="cls-36" points="54.79 34.16 55.16 34.76 54.79 34.76 54.79 34.16"/>
              <polygon class="cls-38" points="54.79 33.46 55.6 34.76 55.16 34.76 54.79 34.16 54.79 33.46"/>
              <polygon class="cls-61" points="54.79 32.75 56.04 34.76 55.6 34.76 54.79 33.46 54.79 32.75"/>
              <polygon class="cls-60" points="54.79 32.05 56.48 34.76 56.04 34.76 54.79 32.75 54.79 32.05"/>
              <polygon class="cls-34" points="54.79 31.35 56.92 34.76 56.48 34.76 54.79 32.05 54.79 31.35"/>
              <polygon class="cls-35" points="54.79 30.64 57.35 34.76 56.92 34.76 54.79 31.35 54.79 30.64"/>
              <polygon class="cls-59" points="54.79 29.94 57.79 34.76 57.35 34.76 54.79 30.64 54.79 29.94"/>
              <polygon class="cls-58" points="54.79 29.23 58.23 34.76 57.79 34.76 54.79 29.94 54.79 29.23"/>
              <polygon class="cls-62" points="54.79 28.53 58.67 34.76 58.23 34.76 54.79 29.23 54.79 28.53"/>
              <polygon class="cls-63" points="54.79 27.82 59.11 34.76 58.67 34.76 54.79 28.53 54.79 27.82"/>
              <polygon class="cls-33" points="54.79 27.12 59.55 34.76 59.11 34.76 54.79 27.82 54.79 27.12"/>
              <polygon class="cls-43" points="54.79 26.42 59.99 34.76 59.55 34.76 54.79 27.12 54.79 26.42"/>
              <polygon class="cls-44" points="54.79 25.71 60.43 34.76 59.99 34.76 54.79 26.42 54.79 25.71"/>
              <polygon class="cls-49" points="54.79 25.01 60.87 34.76 60.43 34.76 54.79 25.71 54.79 25.01"/>
              <polygon class="cls-50" points="54.79 24.3 61.3 34.76 60.87 34.76 54.79 25.01 54.79 24.3"/>
              <polygon class="cls-51" points="54.79 23.6 61.74 34.76 61.3 34.76 54.79 24.3 54.79 23.6"/>
              <polygon class="cls-20" points="54.79 22.89 62.18 34.76 61.74 34.76 54.79 23.6 54.79 22.89"/>
              <polygon class="cls-28" points="54.79 22.19 62.62 34.76 62.18 34.76 54.79 22.89 54.79 22.19"/>
              <polygon class="cls-27" points="54.79 21.49 63.06 34.76 62.62 34.76 54.79 22.19 54.79 21.49"/>
              <polygon class="cls-24" points="54.79 20.78 63.5 34.76 63.06 34.76 54.79 21.49 54.79 20.78"/>
              <polygon class="cls-31" points="54.79 20.08 63.94 34.76 63.5 34.76 54.79 20.78 54.79 20.08"/>
              <polygon class="cls-25" points="54.79 19.37 64.38 34.76 63.94 34.76 54.79 20.08 54.79 19.37"/>
              <polygon class="cls-26" points="54.79 18.67 64.82 34.76 64.38 34.76 54.79 19.37 54.79 18.67"/>
              <polygon class="cls-29" points="54.79 17.96 65.26 34.76 64.82 34.76 54.79 18.67 54.79 17.96"/>
              <polygon class="cls-30" points="54.79 17.26 65.69 34.76 65.26 34.76 54.79 17.96 54.79 17.26"/>
              <polygon class="cls-23" points="54.79 16.56 66.13 34.76 65.69 34.76 54.79 17.26 54.79 16.56"/>
              <polygon class="cls-22" points="54.79 15.85 66.55 34.72 66.49 34.76 66.13 34.76 54.79 16.56 54.79 15.85"/>
              <polygon class="cls-7" points="54.79 15.15 66.66 34.2 66.66 34.65 66.55 34.72 54.79 15.85 54.79 15.15"/>
              <polygon class="cls-6" points="54.79 14.44 66.66 33.5 66.66 34.2 54.79 15.15 54.79 14.44"/>
              <polygon class="cls-3" points="54.79 13.74 66.66 32.79 66.66 33.5 54.79 14.44 54.79 13.74"/>
              <polygon class="cls-3" points="66.66 32.79 54.79 13.74 54.79 10.68 66.66 10.68 66.66 32.79"/>
            </g>
          </g>
          <g class="cls-95">
            <rect class="cls-8" x="51" y="27.82" width="2.3" height="6.93"/>
            <rect class="cls-4" x="53.29" y="27.82" width="3.93" height="6.93"/>
            <rect class="cls-10" x="57.23" y="27.82" width="3.93" height="6.93"/>
            <rect class="cls-11" x="61.16" y="27.82" width="3.93" height="6.93"/>
            <rect class="cls-9" x="65.09" y="27.82" width=".8" height="6.93"/>
          </g>
          <g class="cls-93">
            <rect class="cls-8" x="54.79" y="10.68" width=".21" height="24.08"/>
            <rect class="cls-4" x="55" y="10.68" width=".37" height="24.08"/>
            <rect class="cls-10" x="55.37" y="10.68" width=".37" height="24.08"/>
            <rect class="cls-11" x="55.74" y="10.68" width=".37" height="24.08"/>
            <rect class="cls-9" x="56.11" y="10.68" width=".37" height="24.08"/>
            <rect class="cls-19" x="56.48" y="10.68" width=".37" height="24.08"/>
            <rect class="cls-37" x="56.85" y="10.68" width=".37" height="24.08"/>
            <rect class="cls-32" x="57.22" y="10.68" width=".37" height="24.08"/>
            <rect class="cls-36" x="57.59" y="10.68" width=".37" height="24.08"/>
            <rect class="cls-38" x="57.95" y="10.68" width=".37" height="24.08"/>
            <rect class="cls-61" x="58.32" y="10.68" width=".37" height="24.08"/>
            <rect class="cls-60" x="58.69" y="10.68" width=".37" height="24.08"/>
            <rect class="cls-34" x="59.06" y="10.68" width=".37" height="24.08"/>
            <rect class="cls-35" x="59.43" y="10.68" width=".37" height="24.08"/>
            <rect class="cls-59" x="59.8" y="10.68" width=".37" height="24.08"/>
            <rect class="cls-58" x="60.17" y="10.68" width=".37" height="24.08"/>
            <rect class="cls-62" x="60.54" y="10.68" width=".37" height="24.08"/>
            <rect class="cls-63" x="60.91" y="10.68" width=".37" height="24.08"/>
            <rect class="cls-33" x="61.28" y="10.68" width=".37" height="24.08"/>
            <rect class="cls-43" x="61.65" y="10.68" width=".37" height="24.08"/>
            <rect class="cls-44" x="62.02" y="10.68" width=".37" height="24.08"/>
            <rect class="cls-49" x="62.39" y="10.68" width=".37" height="24.08"/>
            <rect class="cls-50" x="62.76" y="10.68" width=".37" height="24.08"/>
            <rect class="cls-51" x="63.13" y="10.68" width=".37" height="24.08"/>
            <rect class="cls-20" x="63.49" y="10.68" width=".37" height="24.08"/>
            <rect class="cls-28" x="63.86" y="10.68" width=".37" height="24.08"/>
            <rect class="cls-27" x="64.23" y="10.68" width=".37" height="24.08"/>
            <rect class="cls-24" x="64.6" y="10.68" width=".37" height="24.08"/>
            <rect class="cls-31" x="64.97" y="10.68" width=".37" height="24.08"/>
            <rect class="cls-25" x="65.34" y="10.68" width=".37" height="24.08"/>
            <rect class="cls-26" x="65.71" y="10.68" width=".37" height="24.08"/>
            <rect class="cls-29" x="66.08" y="10.68" width=".37" height="24.08"/>
            <rect class="cls-30" x="66.45" y="10.68" width=".37" height="24.08"/>
            <rect class="cls-23" x="66.82" y="10.68" width=".37" height="24.08"/>
            <rect class="cls-22" x="67.19" y="10.68" width=".37" height="24.08"/>
            <rect class="cls-7" x="67.56" y="10.68" width=".37" height="24.08"/>
            <rect class="cls-6" x="67.93" y="10.68" width=".37" height="24.08"/>
            <rect class="cls-3" x="68.3" y="10.68" width=".37" height="24.08"/>
          </g>
        </g>
        <g class="cls-92">
          <polygon class="cls-59" points="51.36 22.77 51.08 22.81 51.08 22.77 51.36 22.77"/>
          <polygon class="cls-58" points="53.25 22.77 51.08 23.02 51.08 22.81 51.36 22.77 53.25 22.77"/>
          <polygon class="cls-62" points="55.15 22.77 51.08 23.23 51.08 23.02 53.25 22.77 55.15 22.77"/>
          <polygon class="cls-63" points="57.04 22.77 51.08 23.44 51.08 23.23 55.15 22.77 57.04 22.77"/>
          <polygon class="cls-33" points="58.57 22.81 51.08 23.65 51.08 23.44 57.04 22.77 58.57 22.77 58.57 22.81"/>
          <polygon class="cls-43" points="58.57 23.02 51.08 23.86 51.08 23.65 58.57 22.81 58.57 23.02"/>
          <polygon class="cls-44" points="58.57 23.23 51.08 24.07 51.08 23.86 58.57 23.02 58.57 23.23"/>
          <polygon class="cls-49" points="58.57 23.44 51.08 24.28 51.08 24.07 58.57 23.23 58.57 23.44"/>
          <polygon class="cls-50" points="58.57 23.65 51.08 24.49 51.08 24.28 58.57 23.44 58.57 23.65"/>
          <polygon class="cls-51" points="58.57 23.86 51.08 24.7 51.08 24.49 58.57 23.65 58.57 23.86"/>
          <polygon class="cls-20" points="58.57 24.07 51.08 24.91 51.08 24.7 58.57 23.86 58.57 24.07"/>
          <polygon class="cls-28" points="58.57 24.28 51.08 25.12 51.08 24.91 58.57 24.07 58.57 24.28"/>
          <polygon class="cls-27" points="58.57 24.49 51.08 25.33 51.08 25.12 58.57 24.28 58.57 24.49"/>
          <polygon class="cls-24" points="58.57 24.7 51.08 25.54 51.08 25.33 58.57 24.49 58.57 24.7"/>
          <polygon class="cls-31" points="58.57 24.91 51.08 25.75 51.08 25.54 58.57 24.7 58.57 24.91"/>
          <polygon class="cls-25" points="58.57 25.12 51.08 25.96 51.08 25.75 58.57 24.91 58.57 25.12"/>
          <polygon class="cls-26" points="58.57 25.34 51.08 26.17 51.08 25.96 58.57 25.12 58.57 25.34"/>
          <polygon class="cls-29" points="58.57 25.55 51.08 26.38 51.08 26.17 58.57 25.34 58.57 25.55"/>
          <polygon class="cls-30" points="58.57 25.76 51.08 26.59 51.08 26.38 58.57 25.55 58.57 25.76"/>
          <polygon class="cls-23" points="58.57 25.97 51.08 26.8 51.08 26.59 58.57 25.76 58.57 25.97"/>
          <polygon class="cls-22" points="58.57 26.18 51.08 27.01 51.08 26.8 58.57 25.97 58.57 26.18"/>
          <polygon class="cls-7" points="58.57 26.39 51.08 27.22 51.08 27.01 58.57 26.18 58.57 26.39"/>
          <polygon class="cls-6" points="58.57 26.6 51.08 27.43 51.08 27.22 58.57 26.39 58.57 26.6"/>
          <polygon class="cls-3" points="58.57 26.81 51.08 27.64 51.08 27.43 58.57 26.6 58.57 26.81"/>
          <polygon class="cls-3" points="51.08 27.64 58.57 26.81 58.57 33.7 51.08 33.7 51.08 27.64"/>
        </g>
      </g>
      <g>
        <path class="cls-75" d="M12.87,48.95h-2.27c-.09-.49-.25-.91-.49-1.28-.24-.37-.53-.68-.87-.94s-.73-.45-1.15-.58c-.43-.13-.88-.2-1.35-.2-.86,0-1.63.22-2.31.65-.68.43-1.21,1.07-1.6,1.9-.39.83-.59,1.85-.59,3.06s.2,2.24.59,3.07c.39.84.93,1.47,1.61,1.89.68.43,1.44.64,2.29.64.47,0,.92-.06,1.34-.19.42-.13.81-.32,1.15-.57.34-.25.64-.56.88-.93.24-.37.41-.79.5-1.26h2.27c-.12.74-.36,1.41-.7,2.03s-.79,1.14-1.33,1.59-1.16.79-1.85,1.03-1.45.36-2.27.36c-1.29,0-2.44-.31-3.45-.92-1.01-.61-1.81-1.49-2.39-2.64-.58-1.15-.87-2.51-.87-4.1s.29-2.96.87-4.11c.58-1.14,1.38-2.02,2.39-2.64,1.01-.61,2.16-.92,3.45-.92.79,0,1.53.11,2.22.34s1.31.56,1.85.99,1,.96,1.36,1.59.6,1.34.73,2.14Z"/>
        <path class="cls-75" d="M17.58,59.27c-.71,0-1.35-.13-1.92-.4-.57-.26-1.03-.65-1.36-1.15-.33-.5-.5-1.12-.5-1.86,0-.63.12-1.15.36-1.56.24-.41.57-.73.98-.97.41-.24.87-.42,1.38-.54.51-.12,1.03-.21,1.56-.28.67-.08,1.21-.14,1.63-.19.42-.05.72-.13.91-.25.19-.12.28-.31.28-.57v-.05c0-.64-.18-1.13-.54-1.48s-.89-.52-1.59-.52-1.31.16-1.73.48c-.42.32-.71.68-.87,1.08l-2.05-.47c.24-.68.6-1.23,1.07-1.65s1.01-.73,1.62-.92c.61-.19,1.26-.29,1.93-.29.45,0,.92.05,1.42.16.5.1.97.29,1.41.57.44.28.8.67,1.08,1.18.28.51.42,1.18.42,1.99v7.43h-2.13v-1.53h-.09c-.14.28-.35.56-.63.83-.28.27-.64.5-1.09.68s-.97.27-1.59.27ZM18.06,57.52c.6,0,1.12-.12,1.55-.36.43-.24.76-.55.98-.94.23-.39.34-.8.34-1.24v-1.44c-.08.08-.23.15-.45.21-.22.07-.47.12-.75.17-.28.05-.56.09-.82.12s-.49.07-.67.09c-.42.05-.81.14-1.15.27-.35.13-.62.31-.83.54-.21.24-.31.55-.31.94,0,.54.2.95.6,1.22.4.27.91.41,1.52.41Z"/>
        <path class="cls-75" d="M24.94,63.22v-15.39h2.13v1.81h.18c.13-.23.31-.5.55-.81.24-.31.57-.57.99-.81.42-.23.98-.35,1.68-.35.9,0,1.71.23,2.42.68.71.46,1.27,1.12,1.67,1.97s.61,1.89.61,3.1-.2,2.24-.6,3.11c-.4.86-.96,1.53-1.66,1.99-.7.46-1.51.7-2.41.7-.68,0-1.23-.11-1.66-.34-.43-.23-.77-.5-1.01-.8-.24-.31-.43-.58-.56-.82h-.13v5.94h-2.18ZM27.07,53.43c0,.79.11,1.48.34,2.07.23.59.56,1.05.99,1.39.43.33.96.5,1.59.5s1.19-.17,1.63-.52c.44-.35.77-.82.99-1.42.23-.6.34-1.27.34-2.02s-.11-1.4-.33-1.99c-.22-.59-.55-1.05-.99-1.39-.44-.34-.99-.51-1.64-.51s-1.16.16-1.6.49c-.44.33-.76.78-.99,1.36-.22.58-.33,1.26-.33,2.04Z"/>
        <path class="cls-75" d="M37.91,63.22c-.33,0-.62-.03-.89-.08-.27-.05-.47-.11-.6-.16l.52-1.78c.4.11.75.15,1.06.14.31-.01.59-.13.83-.35.24-.22.45-.58.64-1.07l.27-.74-4.09-11.33h2.33l2.83,8.68h.12l2.83-8.68h2.34l-4.61,12.68c-.21.58-.49,1.08-.82,1.48-.33.41-.72.71-1.18.91-.46.2-.99.31-1.59.31Z"/>
        <path class="cls-75" d="M46.52,46.04v-1.94h11.55v1.94h-4.65v12.98h-2.24v-12.98h-4.65Z"/>
        <path class="cls-75" d="M62.62,59.27c-.71,0-1.35-.13-1.92-.4-.57-.26-1.03-.65-1.36-1.15-.33-.5-.5-1.12-.5-1.86,0-.63.12-1.15.36-1.56.24-.41.57-.73.98-.97.41-.24.87-.42,1.38-.54.51-.12,1.03-.21,1.56-.28.67-.08,1.21-.14,1.63-.19.42-.05.72-.13.91-.25.19-.12.28-.31.28-.57v-.05c0-.64-.18-1.13-.54-1.48s-.89-.52-1.59-.52-1.31.16-1.73.48c-.42.32-.71.68-.87,1.08l-2.05-.47c.24-.68.6-1.23,1.07-1.65s1.01-.73,1.62-.92c.61-.19,1.26-.29,1.93-.29.45,0,.92.05,1.42.16.5.1.97.29,1.41.57.44.28.8.67,1.08,1.18.28.51.42,1.18.42,1.99v7.43h-2.13v-1.53h-.09c-.14.28-.35.56-.63.83-.28.27-.64.5-1.09.68s-.97.27-1.59.27ZM63.1,57.52c.6,0,1.12-.12,1.55-.36.43-.24.76-.55.98-.94.23-.39.34-.8.34-1.24v-1.44c-.08.08-.23.15-.45.21-.22.07-.47.12-.75.17-.28.05-.56.09-.82.12s-.49.07-.67.09c-.42.05-.81.14-1.15.27-.35.13-.62.31-.83.54-.21.24-.31.55-.31.94,0,.54.2.95.6,1.22.4.27.91.41,1.52.41Z"/>
        <path class="cls-75" d="M78.36,50.57l-1.97.35c-.08-.25-.21-.49-.39-.72-.18-.23-.42-.42-.72-.56-.3-.15-.68-.22-1.13-.22-.62,0-1.13.14-1.54.41-.41.27-.62.63-.62,1.06,0,.37.14.67.42.9s.72.42,1.34.56l1.78.41c1.03.24,1.8.6,2.3,1.1.51.5.76,1.14.76,1.93,0,.67-.19,1.27-.58,1.79-.39.52-.92.93-1.61,1.23-.69.3-1.48.44-2.39.44-1.25,0-2.28-.27-3.07-.8-.79-.54-1.28-1.3-1.46-2.29l2.11-.32c.13.55.4.96.81,1.24.41.28.94.42,1.6.42.71,0,1.28-.15,1.71-.45s.64-.66.64-1.1c0-.35-.13-.64-.39-.88-.26-.24-.66-.42-1.19-.54l-1.89-.42c-1.04-.24-1.81-.62-2.31-1.14-.5-.52-.75-1.18-.75-1.97,0-.66.18-1.24.55-1.73s.88-.88,1.53-1.16,1.4-.42,2.24-.42c1.21,0,2.16.26,2.86.78.69.52,1.15,1.22,1.38,2.09Z"/>
        <path class="cls-75" d="M79.9,59.02v-14.92h2.18v14.92h-2.18ZM81.91,55.23v-2.66s.36,0,.36,0l4.46-4.74h2.61l-5.08,5.39h-.34l-2,2ZM86.97,59.02l-4.01-5.32,1.5-1.52,5.18,6.84h-2.67Z"/>
        <path class="cls-75" d="M98.64,50.57l-1.97.35c-.08-.25-.21-.49-.39-.72-.18-.23-.42-.42-.72-.56-.3-.15-.68-.22-1.13-.22-.62,0-1.13.14-1.54.41-.41.27-.62.63-.62,1.06,0,.37.14.67.42.9s.72.42,1.34.56l1.78.41c1.03.24,1.8.6,2.3,1.1.51.5.76,1.14.76,1.93,0,.67-.19,1.27-.58,1.79-.39.52-.92.93-1.61,1.23-.69.3-1.48.44-2.39.44-1.25,0-2.28-.27-3.07-.8-.79-.54-1.28-1.3-1.46-2.29l2.11-.32c.13.55.4.96.81,1.24.41.28.94.42,1.6.42.71,0,1.28-.15,1.71-.45s.64-.66.64-1.1c0-.35-.13-.64-.39-.88-.26-.24-.66-.42-1.19-.54l-1.89-.42c-1.04-.24-1.81-.62-2.31-1.14-.5-.52-.75-1.18-.75-1.97,0-.66.18-1.24.55-1.73s.88-.88,1.53-1.16,1.4-.42,2.24-.42c1.21,0,2.16.26,2.86.78.69.52,1.15,1.22,1.38,2.09Z"/>
      </g>
    </g>
  </g>
</svg>